SplineFontDB: 3.0
FontName: Barrio-Regular
FullName: Barrio-Regular
FamilyName: Barrio
Weight: Regular
Copyright: Copyright (c) 2013, Omnibus-Type (www.omnibus-type.com omnibus.type@gmail.com) with Reserved Font Name 'Barrio'
Version: 001.003
ItalicAngle: 0
UnderlinePosition: -102.4
UnderlineWidth: 102.4
Ascent: 1561
Descent: 487
sfntRevision: 0x000100c4
LayerCount: 2
Layer: 0 1 "Back"  1
Layer: 1 1 "Fore"  0
XUID: [1021 809 -2065993493 1412352]
FSType: 8
OS2Version: 3
OS2_WeightWidthSlopeOnly: 0
OS2_UseTypoMetrics: 1
CreationTime: 1388081994
ModificationTime: 1388101610
PfmFamily: 81
TTFWeight: 400
TTFWidth: 5
LineGap: 0
VLineGap: 0
Panose: 0 0 5 0 0 0 0 0 0 0
OS2TypoAscent: 1561
OS2TypoAOffset: 0
OS2TypoDescent: -487
OS2TypoDOffset: 0
OS2TypoLinegap: 410
OS2WinAscent: 1970
OS2WinAOffset: 0
OS2WinDescent: 487
OS2WinDOffset: 0
HheadAscent: 1970
HheadAOffset: 0
HheadDescent: -487
HheadDOffset: 0
OS2SubXSize: 1331
OS2SubYSize: 1229
OS2SubXOff: 0
OS2SubYOff: 154
OS2SupXSize: 1331
OS2SupYSize: 1229
OS2SupXOff: 0
OS2SupYOff: 717
OS2StrikeYSize: 102
OS2StrikeYPos: 604
OS2Vendor: 'UKWN'
OS2CodePages: 20000093.00000000
OS2UnicodeRanges: 00000007.00000000.00000000.00000000
Lookup: 1 0 0 "'aalt' Access All Alternates lookup 0"  {"'aalt' Access All Alternates lookup 0 subtable"  } ['aalt' ('DFLT' <'dflt' > 'grek' <'dflt' > 'latn' <'CAT ' 'ESP ' 'MOL ' 'PLK ' 'ROM ' 'TRK ' 'dflt' > ) ]
Lookup: 3 0 0 "'aalt' Access All Alternates lookup 1"  {"'aalt' Access All Alternates lookup 1 subtable"  } ['aalt' ('DFLT' <'dflt' > 'grek' <'dflt' > 'latn' <'CAT ' 'ESP ' 'MOL ' 'PLK ' 'ROM ' 'TRK ' 'dflt' > ) ]
Lookup: 1 0 0 "'locl' Localized Forms in Latin lookup 2"  {"'locl' Localized Forms in Latin lookup 2 subtable"  } ['locl' ('latn' <'TRK ' > ) ]
Lookup: 1 0 0 "'locl' Localized Forms in Latin lookup 3"  {"'locl' Localized Forms in Latin lookup 3 subtable"  } ['locl' ('latn' <'AZE ' > ) ]

StartChar: .notdef
Encoding: 65536 -1 0
Width: 1024
Flags: MW
HStem: 8 129 1323 117 1337 98<319 335>
VStem: 117 106 795 117<328 659 506 659>
LayerCount: 2
Fore
SplineSet
369 1436 m 1,0,1
 415 1437 415 1437 461 1436 c 128,-1,2
 507 1435 507 1435 539 1433.5 c 128,-1,3
 571 1432 571 1432 578 1432 c 0,4,5
 653 1432 653 1432 734.5 1436 c 128,-1,6
 816 1440 816 1440 848 1440 c 0,7,8
 904 1440 904 1440 928 1434 c 0,9,10
 948 1428 948 1428 948 1413 c 0,11,12
 948 1409 948 1409 944 1397 c 0,13,14
 944 1394 944 1394 937.5 1342 c 128,-1,15
 931 1290 931 1290 926 1235 c 0,16,17
 921 1174 921 1174 916 940.5 c 128,-1,18
 911 707 911 707 911 614 c 0,19,20
 911 561 911 561 905 376.5 c 128,-1,21
 899 192 899 192 899 180 c 0,22,23
 899 171 899 171 898 142.5 c 128,-1,24
 897 114 897 114 897 98 c 0,25,26
 897 67 897 67 901 39 c 1,27,28
 903 33 903 33 903 27 c 128,-1,29
 903 21 903 21 901 18 c 128,-1,30
 899 15 899 15 896.5 14 c 128,-1,31
 894 13 894 13 889.5 12.5 c 128,-1,32
 885 12 885 12 883 12 c 0,33,34
 863 8 863 8 809 8 c 0,35,36
 567 8 567 8 324 2 c 1,37,38
 201 2 201 2 164 4 c 1,39,40
 126.333309727 0.0350852344466 126.333309727 0.0350852344466 119.233847101 32.7404910539 c 0,41,42
 116.722679515 48.2913640865 116.722679515 48.2913640865 117 133 c 0,43,44
 117 170 117 170 115 472 c 128,-1,45
 113 774 113 774 113 842 c 0,46,47
 113 918 113 918 115 1137 c 128,-1,48
 117 1356 117 1356 117 1372 c 0,49,50
 117 1396 117 1396 120 1410 c 128,-1,51
 123 1424 123 1424 130.5 1429 c 128,-1,52
 138 1434 138 1434 143 1435 c 128,-1,53
 148 1436 148 1436 160 1436 c 2,54,-1
 369 1436 l 1,0,1
362 1335 m 1,55,56
 350 1337 350 1337 330 1337 c 0,57,58
 303 1337 303 1337 279 1333 c 1,59,-1
 293 1303 l 1,60,61
 310 1252 310 1252 344 1172.5 c 128,-1,62
 378 1093 378 1093 408 1049 c 1,63,64
 427 1005 427 1005 516 819 c 1,65,66
 614 1022 614 1022 625 1049 c 1,67,68
 655 1093 655 1093 688.5 1172 c 128,-1,69
 722 1251 722 1251 739 1303 c 1,70,-1
 752 1327 l 1,71,72
 698 1323 698 1323 670 1323 c 0,73,74
 643 1323 643 1323 633 1325 c 1,75,76
 587 1329 587 1329 573 1329 c 1,77,78
 549 1332 549 1332 362 1335 c 1,55,56
807 862 m 1,79,80
 807 880 807 880 806 919 c 128,-1,81
 805 958 805 958 805 975 c 2,82,-1
 809 1204 l 1,83,84
 713 1018 713 1018 684 944 c 1,85,86
 670 917 670 917 573 700 c 1,87,-1
 645 553 l 1,88,89
 693 441 693 441 795 233 c 1,90,-1
 795 328 l 1,91,-1
 795 547 l 2,92,93
 795 582 795 582 797 600 c 0,94,95
 801 662 801 662 801 698 c 0,96,97
 801 766 801 766 803 801 c 2,98,-1
 807 862 l 1,79,80
225 774 m 1,99,100
 228 654 228 654 227 641 c 0,101,102
 223 575 223 575 223 516 c 0,103,104
 223 496 223 496 222 419.5 c 128,-1,105
 221 343 221 343 221 303 c 0,106,107
 221 232 221 232 223 203 c 1,108,109
 237 232 237 232 273.5 308.5 c 128,-1,110
 310 385 310 385 339.5 447.5 c 128,-1,111
 369 510 369 510 387 553 c 1,112,-1
 459 700 l 1,113,114
 362 917 362 917 348 944 c 1,115,116
 327 997 327 997 242 1171 c 1,117,-1
 240 1130 l 1,118,-1
 231 928 l 1,119,-1
 225 774 l 1,99,100
498 139 m 0,120,121
 537 145 537 145 707 145 c 2,122,-1
 721 145 l 1,123,124
 659 290 659 290 549 506 c 0,125,126
 546 512 546 512 535 534 c 128,-1,127
 524 556 524 556 516 573 c 1,128,129
 508 556 508 556 497 534 c 128,-1,130
 486 512 486 512 483 506 c 0,131,132
 339 212 339 212 309 139 c 1,133,-1
 365 137 l 1,134,135
 480 137 480 137 498 139 c 0,120,121
EndSplineSet
Validated: 524321
EndChar

StartChar: A
Encoding: 65 65 1
Width: 1038
Flags: MW
HStem: 0 43G<48 55 55 96 873 879 879 993> 496 135<246 338 250 338 318 338 318 379> 1434 41G<478 507>
VStem: 42 974
LayerCount: 2
Fore
SplineSet
74 141 m 2,0,1
 76 148 76 148 82 167 c 128,-1,2
 88 186 88 186 93.5 205.5 c 128,-1,3
 99 225 99 225 102 242 c 0,4,5
 109 282 109 282 141 391 c 0,6,7
 146 407 146 407 162 460 c 128,-1,8
 178 513 178 513 190.5 557 c 128,-1,9
 203 601 203 601 207 627 c 1,10,11
 214 660 214 660 234.5 729.5 c 128,-1,12
 255 799 255 799 260 821 c 0,13,14
 261 827 261 827 315 1032 c 1,15,16
 353 1155 353 1155 362 1176 c 0,17,18
 364 1182 364 1182 379.5 1225.5 c 128,-1,19
 395 1269 395 1269 408.5 1310.5 c 128,-1,20
 422 1352 422 1352 426 1376 c 1,21,22
 440 1426 440 1426 455.5 1450.5 c 128,-1,23
 471 1475 471 1475 498 1475 c 0,24,25
 502 1475 502 1475 505.5 1472.5 c 128,-1,26
 509 1470 509 1470 513 1464.5 c 128,-1,27
 517 1459 517 1459 520 1453 c 128,-1,28
 523 1447 523 1447 527.5 1436.5 c 128,-1,29
 532 1426 532 1426 535 1417.5 c 128,-1,30
 538 1409 538 1409 543.5 1395 c 128,-1,31
 549 1381 549 1381 553 1372 c 0,32,33
 563 1349 563 1349 579 1295 c 128,-1,34
 595 1241 595 1241 610 1184.5 c 128,-1,35
 625 1128 625 1128 627 1120 c 0,36,37
 630 1099 630 1099 680 959.5 c 128,-1,38
 730 820 730 820 733 807 c 1,39,40
 738 794 738 794 762 728 c 128,-1,41
 786 662 786 662 810 599 c 128,-1,42
 834 536 834 536 844 514 c 1,43,44
 923 273 923 273 928 252 c 0,45,46
 935 223 935 223 952.5 175.5 c 128,-1,47
 970 128 970 128 989.5 80 c 128,-1,48
 1009 32 1009 32 1010 29 c 0,49,50
 1016 14 1016 14 1016 8 c 0,51,52
 1016 0 1016 0 993 0 c 2,53,-1
 879 0 l 2,54,55
 863 0 863 0 856 18 c 0,56,57
 847 43 847 43 834 92 c 1,58,59
 814 147 814 147 809 184 c 1,60,61
 792 269 792 269 766 324 c 1,62,63
 746 369 746 369 733 412 c 2,64,-1
 715 471 l 1,65,66
 705 494 705 494 699.5 499 c 128,-1,67
 694 504 694 504 682 504 c 0,68,69
 638 504 638 504 618 502 c 0,70,71
 548 498 548 498 530 498 c 1,72,73
 514 496 514 496 379 496 c 2,74,-1
 254 496 l 1,75,-1
 250 496 l 2,76,77
 237 496 237 496 231 473 c 1,78,-1
 227 453 l 1,79,-1
 219 414 l 1,80,81
 214 397 214 397 194.5 305 c 128,-1,82
 175 213 175 213 172 205 c 1,83,84
 167 162 167 162 154 137 c 0,85,86
 151 133 151 133 133 72 c 1,87,88
 128 59 128 59 119 18 c 1,89,90
 113.100013272 2.26670205859 113.100013272 2.26670205859 107.887975672 0.894057697049 c 0,91,92
 104.493168929 0 104.493168929 0 96 0 c 2,93,-1
 55 0 l 2,94,95
 36 0 36 0 45 27 c 1,96,97
 45 33 45 33 47 37 c 0,98,99
 47 38 47 38 49 48 c 128,-1,100
 51 58 51 58 55 66 c 1,101,-1
 74 141 l 2,0,1
627 637 m 0,102,103
 653 637 653 637 653 651 c 0,104,105
 653 661 653 661 639 696 c 0,106,107
 631 715 631 715 603.5 806.5 c 128,-1,108
 576 898 576 898 565 928 c 1,109,110
 549 977 549 977 523.5 1067 c 128,-1,111
 498 1157 498 1157 494 1182 c 1,112,113
 465 1290 465 1290 453 1290 c 0,114,115
 449 1290 449 1290 444.5 1277.5 c 128,-1,116
 440 1265 440 1265 432 1234 c 128,-1,117
 424 1203 424 1203 420 1190 c 1,118,119
 413 1157 413 1157 383.5 1053 c 128,-1,120
 354 949 354 949 342 911 c 1,121,122
 334 873 334 873 310 785.5 c 128,-1,123
 286 698 286 698 274 666 c 0,124,125
 270 654 270 654 270 651 c 0,126,127
 270 643 270 643 274 638.5 c 128,-1,128
 278 634 278 634 286 632.5 c 128,-1,129
 294 631 294 631 299.5 630.5 c 128,-1,130
 305 630 305 630 315.5 630.5 c 128,-1,131
 326 631 326 631 328 631 c 0,132,133
 337 631 337 631 384.5 633 c 128,-1,134
 432 635 432 635 446 635 c 1,135,136
 470 639 470 639 516 639 c 0,137,138
 539 639 539 639 578.5 638 c 128,-1,139
 618 637 618 637 627 637 c 0,102,103
EndSplineSet
Validated: 524289
Substitution2: "Single Substitution lookup 21 subtable" a
Substitution2: "Single Substitution lookup 20 subtable" ordfeminine
AlternateSubs2: "'aalt' Access All Alternates lookup 1 subtable" ordfeminine a
Position2: "'cpsp' Capital Spacing lookup 0 subtable" dx=10 dy=0 dh=20 dv=0
EndChar

StartChar: Aacute
Encoding: 193 193 2
Width: 1036
Flags: MW
HStem: 0 43G<48 55 55 96 873 879 879 993> 496 135<246 338 250 338 318 338 318 379> 1434 41G<478 507>
VStem: 42 974
LayerCount: 2
Fore
SplineSet
612 1690 m 1,0,1
 656 1704 656 1704 684 1704 c 1,2,3
 716 1708 716 1708 725 1708 c 0,4,5
 748 1708 748 1708 757 1695.5 c 128,-1,6
 766 1683 766 1683 760 1651 c 1,7,8
 753 1628 753 1628 719 1608 c 128,-1,9
 685 1588 685 1588 659 1581 c 1,10,11
 561 1549 561 1549 485 1513 c 1,12,13
 433 1495 433 1495 420 1495 c 0,14,15
 399 1495 399 1495 377 1509 c 1,16,17
 336 1523 336 1523 336 1554 c 0,18,19
 336 1559 336 1559 340 1575 c 0,20,21
 343 1584 343 1584 381.5 1601.5 c 128,-1,22
 420 1619 420 1619 442 1626 c 1,23,24
 454 1633 454 1633 487.5 1643 c 128,-1,25
 521 1653 521 1653 567 1673 c 1,26,-1
 612 1690 l 1,0,1
74 141 m 2,27,28
 76 148 76 148 82 167 c 128,-1,29
 88 186 88 186 93.5 205.5 c 128,-1,30
 99 225 99 225 102 242 c 0,31,32
 109 282 109 282 141 391 c 0,33,34
 146 407 146 407 162 460 c 128,-1,35
 178 513 178 513 190.5 557 c 128,-1,36
 203 601 203 601 207 627 c 1,37,38
 214 660 214 660 234.5 729.5 c 128,-1,39
 255 799 255 799 260 821 c 0,40,41
 261 827 261 827 315 1032 c 1,42,43
 353 1155 353 1155 362 1176 c 0,44,45
 364 1182 364 1182 379.5 1225.5 c 128,-1,46
 395 1269 395 1269 408.5 1310.5 c 128,-1,47
 422 1352 422 1352 426 1376 c 1,48,49
 440 1426 440 1426 455.5 1450.5 c 128,-1,50
 471 1475 471 1475 498 1475 c 0,51,52
 502 1475 502 1475 505.5 1472.5 c 128,-1,53
 509 1470 509 1470 513 1464.5 c 128,-1,54
 517 1459 517 1459 520 1453 c 128,-1,55
 523 1447 523 1447 527.5 1436.5 c 128,-1,56
 532 1426 532 1426 535 1417.5 c 128,-1,57
 538 1409 538 1409 543.5 1395 c 128,-1,58
 549 1381 549 1381 553 1372 c 0,59,60
 563 1349 563 1349 579 1295 c 128,-1,61
 595 1241 595 1241 610 1184.5 c 128,-1,62
 625 1128 625 1128 627 1120 c 0,63,64
 630 1099 630 1099 680 959.5 c 128,-1,65
 730 820 730 820 733 807 c 1,66,67
 738 794 738 794 762 728 c 128,-1,68
 786 662 786 662 810 599 c 128,-1,69
 834 536 834 536 844 514 c 1,70,71
 923 273 923 273 928 252 c 0,72,73
 935 223 935 223 952.5 175.5 c 128,-1,74
 970 128 970 128 989.5 80 c 128,-1,75
 1009 32 1009 32 1010 29 c 0,76,77
 1016 14 1016 14 1016 8 c 0,78,79
 1016 0 1016 0 993 0 c 2,80,-1
 879 0 l 2,81,82
 863 0 863 0 856 18 c 0,83,84
 847 43 847 43 834 92 c 1,85,86
 814 147 814 147 809 184 c 1,87,88
 792 269 792 269 766 324 c 1,89,90
 746 369 746 369 733 412 c 2,91,-1
 715 471 l 1,92,93
 705 494 705 494 699.5 499 c 128,-1,94
 694 504 694 504 682 504 c 0,95,96
 638 504 638 504 618 502 c 0,97,98
 548 498 548 498 530 498 c 1,99,100
 514 496 514 496 379 496 c 2,101,-1
 254 496 l 1,102,-1
 250 496 l 2,103,104
 237 496 237 496 231 473 c 1,105,-1
 227 453 l 1,106,-1
 219 414 l 1,107,108
 214 397 214 397 194.5 305 c 128,-1,109
 175 213 175 213 172 205 c 1,110,111
 167 162 167 162 154 137 c 0,112,113
 151 133 151 133 133 72 c 1,114,115
 128 59 128 59 119 18 c 1,116,117
 113.100013272 2.26670205859 113.100013272 2.26670205859 107.887975672 0.894057697049 c 0,118,119
 104.493168929 0 104.493168929 0 96 0 c 2,120,-1
 55 0 l 2,121,122
 36 0 36 0 45 27 c 1,123,124
 45 33 45 33 47 37 c 0,125,126
 47 38 47 38 49 48 c 128,-1,127
 51 58 51 58 55 66 c 1,128,-1
 74 141 l 2,27,28
627 637 m 0,129,130
 653 637 653 637 653 651 c 0,131,132
 653 661 653 661 639 696 c 0,133,134
 631 715 631 715 603.5 806.5 c 128,-1,135
 576 898 576 898 565 928 c 1,136,137
 549 977 549 977 523.5 1067 c 128,-1,138
 498 1157 498 1157 494 1182 c 1,139,140
 465 1290 465 1290 453 1290 c 0,141,142
 449 1290 449 1290 444.5 1277.5 c 128,-1,143
 440 1265 440 1265 432 1234 c 128,-1,144
 424 1203 424 1203 420 1190 c 1,145,146
 413 1157 413 1157 383.5 1053 c 128,-1,147
 354 949 354 949 342 911 c 1,148,149
 334 873 334 873 310 785.5 c 128,-1,150
 286 698 286 698 274 666 c 0,151,152
 270 654 270 654 270 651 c 0,153,154
 270 643 270 643 274 638.5 c 128,-1,155
 278 634 278 634 286 632.5 c 128,-1,156
 294 631 294 631 299.5 630.5 c 128,-1,157
 305 630 305 630 315.5 630.5 c 128,-1,158
 326 631 326 631 328 631 c 0,159,160
 337 631 337 631 384.5 633 c 128,-1,161
 432 635 432 635 446 635 c 1,162,163
 470 639 470 639 516 639 c 0,164,165
 539 639 539 639 578.5 638 c 128,-1,166
 618 637 618 637 627 637 c 0,129,130
EndSplineSet
Validated: 524289
Substitution2: "Single Substitution lookup 21 subtable" aacute
Substitution2: "'aalt' Access All Alternates lookup 0 subtable" aacute
Position2: "'cpsp' Capital Spacing lookup 0 subtable" dx=10 dy=0 dh=20 dv=0
EndChar

StartChar: Abreve
Encoding: 258 258 3
Width: 1038
Flags: MW
HStem: 0 43G<48 55 55 96 873 879 879 993> 496 135<246 338 250 338 318 338 318 379> 1434 41G<478 507> 1511 111<479 493 475 527>
VStem: 42 974 188 119<1698 1715>
LayerCount: 2
Fore
SplineSet
799 1704 m 0,0,1
 799 1620 799 1620 756 1587 c 0,2,3
 726 1564 726 1564 676 1538 c 0,4,5
 624 1511 624 1511 479 1511 c 1,6,7
 317 1520 317 1520 274 1542 c 0,8,9
 234 1563 234 1563 219 1597 c 0,10,11
 191 1665 191 1665 188 1712 c 0,12,13
 188 1716 188 1716 196 1717 c 128,-1,14
 204 1718 204 1718 248 1718 c 0,15,16
 291 1718 291 1718 299 1715 c 128,-1,17
 307 1712 307 1712 307 1698 c 1,18,19
 316 1659 316 1659 340 1642 c 1,20,21
 362 1628 362 1628 475 1622 c 1,22,23
 530 1622 530 1622 600 1640 c 1,24,25
 673 1661 673 1661 676 1702 c 1,26,27
 683 1713 683 1713 731 1716 c 1,28,29
 799 1713 799 1713 799 1704 c 0,0,1
74 141 m 2,30,31
 76 148 76 148 82 167 c 128,-1,32
 88 186 88 186 93.5 205.5 c 128,-1,33
 99 225 99 225 102 242 c 0,34,35
 109 282 109 282 141 391 c 0,36,37
 146 407 146 407 162 460 c 128,-1,38
 178 513 178 513 190.5 557 c 128,-1,39
 203 601 203 601 207 627 c 1,40,41
 214 660 214 660 234.5 729.5 c 128,-1,42
 255 799 255 799 260 821 c 0,43,44
 261 827 261 827 315 1032 c 1,45,46
 353 1155 353 1155 362 1176 c 0,47,48
 364 1182 364 1182 379.5 1225.5 c 128,-1,49
 395 1269 395 1269 408.5 1310.5 c 128,-1,50
 422 1352 422 1352 426 1376 c 1,51,52
 440 1426 440 1426 455.5 1450.5 c 128,-1,53
 471 1475 471 1475 498 1475 c 0,54,55
 502 1475 502 1475 505.5 1472.5 c 128,-1,56
 509 1470 509 1470 513 1464.5 c 128,-1,57
 517 1459 517 1459 520 1453 c 128,-1,58
 523 1447 523 1447 527.5 1436.5 c 128,-1,59
 532 1426 532 1426 535 1417.5 c 128,-1,60
 538 1409 538 1409 543.5 1395 c 128,-1,61
 549 1381 549 1381 553 1372 c 0,62,63
 563 1349 563 1349 579 1295 c 128,-1,64
 595 1241 595 1241 610 1184.5 c 128,-1,65
 625 1128 625 1128 627 1120 c 0,66,67
 630 1099 630 1099 680 959.5 c 128,-1,68
 730 820 730 820 733 807 c 1,69,70
 738 794 738 794 762 728 c 128,-1,71
 786 662 786 662 810 599 c 128,-1,72
 834 536 834 536 844 514 c 1,73,74
 923 273 923 273 928 252 c 0,75,76
 935 223 935 223 952.5 175.5 c 128,-1,77
 970 128 970 128 989.5 80 c 128,-1,78
 1009 32 1009 32 1010 29 c 0,79,80
 1016 14 1016 14 1016 8 c 0,81,82
 1016 0 1016 0 993 0 c 2,83,-1
 879 0 l 2,84,85
 863 0 863 0 856 18 c 0,86,87
 847 43 847 43 834 92 c 1,88,89
 814 147 814 147 809 184 c 1,90,91
 792 269 792 269 766 324 c 1,92,93
 746 369 746 369 733 412 c 2,94,-1
 715 471 l 1,95,96
 705 494 705 494 699.5 499 c 128,-1,97
 694 504 694 504 682 504 c 0,98,99
 638 504 638 504 618 502 c 0,100,101
 548 498 548 498 530 498 c 1,102,103
 514 496 514 496 379 496 c 2,104,-1
 254 496 l 1,105,-1
 250 496 l 2,106,107
 237 496 237 496 231 473 c 1,108,-1
 227 453 l 1,109,-1
 219 414 l 1,110,111
 214 397 214 397 194.5 305 c 128,-1,112
 175 213 175 213 172 205 c 1,113,114
 167 162 167 162 154 137 c 0,115,116
 151 133 151 133 133 72 c 1,117,118
 128 59 128 59 119 18 c 1,119,120
 113.100013272 2.26670205859 113.100013272 2.26670205859 107.887975672 0.894057697049 c 0,121,122
 104.493168929 0 104.493168929 0 96 0 c 2,123,-1
 55 0 l 2,124,125
 36 0 36 0 45 27 c 1,126,127
 45 33 45 33 47 37 c 0,128,129
 47 38 47 38 49 48 c 128,-1,130
 51 58 51 58 55 66 c 1,131,-1
 74 141 l 2,30,31
627 637 m 0,132,133
 653 637 653 637 653 651 c 0,134,135
 653 661 653 661 639 696 c 0,136,137
 631 715 631 715 603.5 806.5 c 128,-1,138
 576 898 576 898 565 928 c 1,139,140
 549 977 549 977 523.5 1067 c 128,-1,141
 498 1157 498 1157 494 1182 c 1,142,143
 465 1290 465 1290 453 1290 c 0,144,145
 449 1290 449 1290 444.5 1277.5 c 128,-1,146
 440 1265 440 1265 432 1234 c 128,-1,147
 424 1203 424 1203 420 1190 c 1,148,149
 413 1157 413 1157 383.5 1053 c 128,-1,150
 354 949 354 949 342 911 c 1,151,152
 334 873 334 873 310 785.5 c 128,-1,153
 286 698 286 698 274 666 c 0,154,155
 270 654 270 654 270 651 c 0,156,157
 270 643 270 643 274 638.5 c 128,-1,158
 278 634 278 634 286 632.5 c 128,-1,159
 294 631 294 631 299.5 630.5 c 128,-1,160
 305 630 305 630 315.5 630.5 c 128,-1,161
 326 631 326 631 328 631 c 0,162,163
 337 631 337 631 384.5 633 c 128,-1,164
 432 635 432 635 446 635 c 1,165,166
 470 639 470 639 516 639 c 0,167,168
 539 639 539 639 578.5 638 c 128,-1,169
 618 637 618 637 627 637 c 0,132,133
EndSplineSet
Validated: 524289
Substitution2: "Single Substitution lookup 21 subtable" abreve
Substitution2: "'aalt' Access All Alternates lookup 0 subtable" abreve
Position2: "'cpsp' Capital Spacing lookup 0 subtable" dx=10 dy=0 dh=20 dv=0
EndChar

StartChar: Acircumflex
Encoding: 194 194 4
Width: 1036
Flags: MW
HStem: 0 43G<48 55 55 96 873 879 879 993> 496 135<246 338 250 338 318 338 318 379> 1434 41G<478 507>
VStem: 42 974
LayerCount: 2
Fore
SplineSet
238 1593 m 2,0,1
 241 1594 241 1594 253 1599.5 c 128,-1,2
 265 1605 265 1605 272.5 1609 c 128,-1,3
 280 1613 280 1613 297.5 1625 c 128,-1,4
 315 1637 315 1637 336 1653 c 1,5,6
 417 1699 417 1699 442 1706 c 1,7,8
 461 1714 461 1714 479 1714 c 1,9,10
 487 1716 487 1716 502 1716 c 0,11,12
 513 1716 513 1716 523 1713.5 c 128,-1,13
 533 1711 533 1711 538.5 1708.5 c 128,-1,14
 544 1706 544 1706 558 1698 c 128,-1,15
 572 1690 572 1690 580 1686 c 1,16,17
 605 1668 605 1668 717 1597 c 0,18,19
 718 1596 718 1596 726 1591.5 c 128,-1,20
 734 1587 734 1587 739 1583.5 c 128,-1,21
 744 1580 744 1580 752.5 1574 c 128,-1,22
 761 1568 761 1568 766.5 1563 c 128,-1,23
 772 1558 772 1558 777.5 1552 c 128,-1,24
 783 1546 783 1546 785 1540 c 128,-1,25
 787 1534 787 1534 786 1528 c 0,26,27
 778 1497 778 1497 754 1497 c 0,28,29
 738 1497 738 1497 698 1511 c 1,30,-1
 643 1526 l 1,31,32
 614 1537 614 1537 571 1563 c 1,33,-1
 506 1593 l 1,34,-1
 412 1550 l 1,35,36
 369 1528 369 1528 295 1507 c 1,37,38
 254 1501 254 1501 217 1501 c 0,39,40
 194 1501 194 1501 181 1511 c 128,-1,41
 168 1521 168 1521 168 1534 c 0,42,43
 168 1551 168 1551 182 1559 c 2,44,-1
 238 1593 l 2,0,1
74 141 m 2,45,46
 76 148 76 148 82 167 c 128,-1,47
 88 186 88 186 93.5 205.5 c 128,-1,48
 99 225 99 225 102 242 c 0,49,50
 109 282 109 282 141 391 c 0,51,52
 146 407 146 407 162 460 c 128,-1,53
 178 513 178 513 190.5 557 c 128,-1,54
 203 601 203 601 207 627 c 1,55,56
 214 660 214 660 234.5 729.5 c 128,-1,57
 255 799 255 799 260 821 c 0,58,59
 261 827 261 827 315 1032 c 1,60,61
 353 1155 353 1155 362 1176 c 0,62,63
 364 1182 364 1182 379.5 1225.5 c 128,-1,64
 395 1269 395 1269 408.5 1310.5 c 128,-1,65
 422 1352 422 1352 426 1376 c 1,66,67
 440 1426 440 1426 455.5 1450.5 c 128,-1,68
 471 1475 471 1475 498 1475 c 0,69,70
 502 1475 502 1475 505.5 1472.5 c 128,-1,71
 509 1470 509 1470 513 1464.5 c 128,-1,72
 517 1459 517 1459 520 1453 c 128,-1,73
 523 1447 523 1447 527.5 1436.5 c 128,-1,74
 532 1426 532 1426 535 1417.5 c 128,-1,75
 538 1409 538 1409 543.5 1395 c 128,-1,76
 549 1381 549 1381 553 1372 c 0,77,78
 563 1349 563 1349 579 1295 c 128,-1,79
 595 1241 595 1241 610 1184.5 c 128,-1,80
 625 1128 625 1128 627 1120 c 0,81,82
 630 1099 630 1099 680 959.5 c 128,-1,83
 730 820 730 820 733 807 c 1,84,85
 738 794 738 794 762 728 c 128,-1,86
 786 662 786 662 810 599 c 128,-1,87
 834 536 834 536 844 514 c 1,88,89
 923 273 923 273 928 252 c 0,90,91
 935 223 935 223 952.5 175.5 c 128,-1,92
 970 128 970 128 989.5 80 c 128,-1,93
 1009 32 1009 32 1010 29 c 0,94,95
 1016 14 1016 14 1016 8 c 0,96,97
 1016 0 1016 0 993 0 c 2,98,-1
 879 0 l 2,99,100
 863 0 863 0 856 18 c 0,101,102
 847 43 847 43 834 92 c 1,103,104
 814 147 814 147 809 184 c 1,105,106
 792 269 792 269 766 324 c 1,107,108
 746 369 746 369 733 412 c 2,109,-1
 715 471 l 1,110,111
 705 494 705 494 699.5 499 c 128,-1,112
 694 504 694 504 682 504 c 0,113,114
 638 504 638 504 618 502 c 0,115,116
 548 498 548 498 530 498 c 1,117,118
 514 496 514 496 379 496 c 2,119,-1
 254 496 l 1,120,-1
 250 496 l 2,121,122
 237 496 237 496 231 473 c 1,123,-1
 227 453 l 1,124,-1
 219 414 l 1,125,126
 214 397 214 397 194.5 305 c 128,-1,127
 175 213 175 213 172 205 c 1,128,129
 167 162 167 162 154 137 c 0,130,131
 151 133 151 133 133 72 c 1,132,133
 128 59 128 59 119 18 c 1,134,135
 113.100013272 2.26670205859 113.100013272 2.26670205859 107.887975672 0.894057697049 c 0,136,137
 104.493168929 0 104.493168929 0 96 0 c 2,138,-1
 55 0 l 2,139,140
 36 0 36 0 45 27 c 1,141,142
 45 33 45 33 47 37 c 0,143,144
 47 38 47 38 49 48 c 128,-1,145
 51 58 51 58 55 66 c 1,146,-1
 74 141 l 2,45,46
627 637 m 0,147,148
 653 637 653 637 653 651 c 0,149,150
 653 661 653 661 639 696 c 0,151,152
 631 715 631 715 603.5 806.5 c 128,-1,153
 576 898 576 898 565 928 c 1,154,155
 549 977 549 977 523.5 1067 c 128,-1,156
 498 1157 498 1157 494 1182 c 1,157,158
 465 1290 465 1290 453 1290 c 0,159,160
 449 1290 449 1290 444.5 1277.5 c 128,-1,161
 440 1265 440 1265 432 1234 c 128,-1,162
 424 1203 424 1203 420 1190 c 1,163,164
 413 1157 413 1157 383.5 1053 c 128,-1,165
 354 949 354 949 342 911 c 1,166,167
 334 873 334 873 310 785.5 c 128,-1,168
 286 698 286 698 274 666 c 0,169,170
 270 654 270 654 270 651 c 0,171,172
 270 643 270 643 274 638.5 c 128,-1,173
 278 634 278 634 286 632.5 c 128,-1,174
 294 631 294 631 299.5 630.5 c 128,-1,175
 305 630 305 630 315.5 630.5 c 128,-1,176
 326 631 326 631 328 631 c 0,177,178
 337 631 337 631 384.5 633 c 128,-1,179
 432 635 432 635 446 635 c 1,180,181
 470 639 470 639 516 639 c 0,182,183
 539 639 539 639 578.5 638 c 128,-1,184
 618 637 618 637 627 637 c 0,147,148
EndSplineSet
Validated: 524289
Substitution2: "Single Substitution lookup 21 subtable" acircumflex
Substitution2: "'aalt' Access All Alternates lookup 0 subtable" acircumflex
Position2: "'cpsp' Capital Spacing lookup 0 subtable" dx=10 dy=0 dh=20 dv=0
EndChar

StartChar: Adieresis
Encoding: 196 196 5
Width: 1036
Flags: MW
HStem: 0 43G<48 55 55 96 873 879 879 993> 496 135<246 338 250 338 318 338 318 379> 1434 41G<249 301 478 507> 1475 231<249 300 237 301 237 507> 1483 238<751 781>
VStem: 158 246<1561 1621> 627 240<1569 1625 1566 1650>
LayerCount: 2
Fore
SplineSet
627 1593 m 0,0,1
 627 1720 627 1720 778 1720 c 0,2,3
 817 1720 817 1720 841.5 1681.5 c 128,-1,4
 866 1643 866 1643 866 1593 c 0,5,6
 866 1548 866 1548 832.5 1515.5 c 128,-1,7
 799 1483 799 1483 737 1483 c 0,8,9
 677 1483 677 1483 652 1515.5 c 128,-1,10
 627 1548 627 1548 627 1593 c 0,0,1
403 1602 m 0,11,12
 403 1546 403 1546 361 1510.5 c 128,-1,13
 319 1475 319 1475 276 1475 c 0,14,15
 231 1475 231 1475 194.5 1508 c 128,-1,16
 158 1541 158 1541 158 1593 c 0,17,18
 158 1636 158 1636 190 1671 c 128,-1,19
 222 1706 222 1706 268 1706 c 0,20,21
 321 1706 321 1706 362 1679 c 128,-1,22
 403 1652 403 1652 403 1602 c 0,11,12
74 141 m 2,23,24
 76 148 76 148 82 167 c 128,-1,25
 88 186 88 186 93.5 205.5 c 128,-1,26
 99 225 99 225 102 242 c 0,27,28
 109 282 109 282 141 391 c 0,29,30
 146 407 146 407 162 460 c 128,-1,31
 178 513 178 513 190.5 557 c 128,-1,32
 203 601 203 601 207 627 c 1,33,34
 214 660 214 660 234.5 729.5 c 128,-1,35
 255 799 255 799 260 821 c 0,36,37
 261 827 261 827 315 1032 c 1,38,39
 353 1155 353 1155 362 1176 c 0,40,41
 364 1182 364 1182 379.5 1225.5 c 128,-1,42
 395 1269 395 1269 408.5 1310.5 c 128,-1,43
 422 1352 422 1352 426 1376 c 1,44,45
 440 1426 440 1426 455.5 1450.5 c 128,-1,46
 471 1475 471 1475 498 1475 c 0,47,48
 502 1475 502 1475 505.5 1472.5 c 128,-1,49
 509 1470 509 1470 513 1464.5 c 128,-1,50
 517 1459 517 1459 520 1453 c 128,-1,51
 523 1447 523 1447 527.5 1436.5 c 128,-1,52
 532 1426 532 1426 535 1417.5 c 128,-1,53
 538 1409 538 1409 543.5 1395 c 128,-1,54
 549 1381 549 1381 553 1372 c 0,55,56
 563 1349 563 1349 579 1295 c 128,-1,57
 595 1241 595 1241 610 1184.5 c 128,-1,58
 625 1128 625 1128 627 1120 c 0,59,60
 630 1099 630 1099 680 959.5 c 128,-1,61
 730 820 730 820 733 807 c 1,62,63
 738 794 738 794 762 728 c 128,-1,64
 786 662 786 662 810 599 c 128,-1,65
 834 536 834 536 844 514 c 1,66,67
 923 273 923 273 928 252 c 0,68,69
 935 223 935 223 952.5 175.5 c 128,-1,70
 970 128 970 128 989.5 80 c 128,-1,71
 1009 32 1009 32 1010 29 c 0,72,73
 1016 14 1016 14 1016 8 c 0,74,75
 1016 0 1016 0 993 0 c 2,76,-1
 879 0 l 2,77,78
 863 0 863 0 856 18 c 0,79,80
 847 43 847 43 834 92 c 1,81,82
 814 147 814 147 809 184 c 1,83,84
 792 269 792 269 766 324 c 1,85,86
 746 369 746 369 733 412 c 2,87,-1
 715 471 l 1,88,89
 705 494 705 494 699.5 499 c 128,-1,90
 694 504 694 504 682 504 c 0,91,92
 638 504 638 504 618 502 c 0,93,94
 548 498 548 498 530 498 c 1,95,96
 514 496 514 496 379 496 c 2,97,-1
 254 496 l 1,98,-1
 250 496 l 2,99,100
 237 496 237 496 231 473 c 1,101,-1
 227 453 l 1,102,-1
 219 414 l 1,103,104
 214 397 214 397 194.5 305 c 128,-1,105
 175 213 175 213 172 205 c 1,106,107
 167 162 167 162 154 137 c 0,108,109
 151 133 151 133 133 72 c 1,110,111
 128 59 128 59 119 18 c 1,112,113
 113.100013272 2.26670205859 113.100013272 2.26670205859 107.887975672 0.894057697049 c 0,114,115
 104.493168929 0 104.493168929 0 96 0 c 2,116,-1
 55 0 l 2,117,118
 36 0 36 0 45 27 c 1,119,120
 45 33 45 33 47 37 c 0,121,122
 47 38 47 38 49 48 c 128,-1,123
 51 58 51 58 55 66 c 1,124,-1
 74 141 l 2,23,24
627 637 m 0,125,126
 653 637 653 637 653 651 c 0,127,128
 653 661 653 661 639 696 c 0,129,130
 631 715 631 715 603.5 806.5 c 128,-1,131
 576 898 576 898 565 928 c 1,132,133
 549 977 549 977 523.5 1067 c 128,-1,134
 498 1157 498 1157 494 1182 c 1,135,136
 465 1290 465 1290 453 1290 c 0,137,138
 449 1290 449 1290 444.5 1277.5 c 128,-1,139
 440 1265 440 1265 432 1234 c 128,-1,140
 424 1203 424 1203 420 1190 c 1,141,142
 413 1157 413 1157 383.5 1053 c 128,-1,143
 354 949 354 949 342 911 c 1,144,145
 334 873 334 873 310 785.5 c 128,-1,146
 286 698 286 698 274 666 c 0,147,148
 270 654 270 654 270 651 c 0,149,150
 270 643 270 643 274 638.5 c 128,-1,151
 278 634 278 634 286 632.5 c 128,-1,152
 294 631 294 631 299.5 630.5 c 128,-1,153
 305 630 305 630 315.5 630.5 c 128,-1,154
 326 631 326 631 328 631 c 0,155,156
 337 631 337 631 384.5 633 c 128,-1,157
 432 635 432 635 446 635 c 1,158,159
 470 639 470 639 516 639 c 0,160,161
 539 639 539 639 578.5 638 c 128,-1,162
 618 637 618 637 627 637 c 0,125,126
EndSplineSet
Validated: 524289
Substitution2: "Single Substitution lookup 21 subtable" adieresis
Substitution2: "'aalt' Access All Alternates lookup 0 subtable" adieresis
Position2: "'cpsp' Capital Spacing lookup 0 subtable" dx=10 dy=0 dh=20 dv=0
EndChar

StartChar: Agrave
Encoding: 192 192 6
Width: 1036
Flags: MW
HStem: 0 43G<48 55 55 96 873 879 879 993> 496 135<246 338 250 338 318 338 318 379> 1434 41G<478 507> 1540 174
VStem: 42 974
LayerCount: 2
Fore
SplineSet
475 1556 m 1,0,1
 429 1577 429 1577 394 1585 c 128,-1,2
 359 1593 359 1593 348 1599 c 1,3,4
 323 1605 323 1605 286.5 1620.5 c 128,-1,5
 250 1636 250 1636 246 1647 c 1,6,7
 240 1659 240 1659 240 1669 c 0,8,9
 240 1697 240 1697 279 1714 c 1,10,11
 310 1731 310 1731 324 1731 c 0,12,13
 332 1731 332 1731 341 1729 c 128,-1,14
 350 1727 350 1727 364.5 1721.5 c 128,-1,15
 379 1716 379 1716 387 1714 c 1,16,17
 482 1673 482 1673 563 1655 c 0,18,19
 564 1655 564 1655 586 1646 c 128,-1,20
 608 1637 608 1637 620.5 1631.5 c 128,-1,21
 633 1626 633 1626 648 1613.5 c 128,-1,22
 663 1601 663 1601 666 1587 c 0,23,24
 670 1567 670 1567 670 1561 c 0,25,26
 670 1536 670 1536 648.5 1530.5 c 128,-1,27
 627 1525 627 1525 592 1532 c 1,28,29
 569 1529 569 1529 520 1540 c 1,30,-1
 475 1556 l 1,0,1
74 141 m 2,31,32
 76 148 76 148 82 167 c 128,-1,33
 88 186 88 186 93.5 205.5 c 128,-1,34
 99 225 99 225 102 242 c 0,35,36
 109 282 109 282 141 391 c 0,37,38
 146 407 146 407 162 460 c 128,-1,39
 178 513 178 513 190.5 557 c 128,-1,40
 203 601 203 601 207 627 c 1,41,42
 214 660 214 660 234.5 729.5 c 128,-1,43
 255 799 255 799 260 821 c 0,44,45
 261 827 261 827 315 1032 c 1,46,47
 353 1155 353 1155 362 1176 c 0,48,49
 364 1182 364 1182 379.5 1225.5 c 128,-1,50
 395 1269 395 1269 408.5 1310.5 c 128,-1,51
 422 1352 422 1352 426 1376 c 1,52,53
 440 1426 440 1426 455.5 1450.5 c 128,-1,54
 471 1475 471 1475 498 1475 c 0,55,56
 502 1475 502 1475 505.5 1472.5 c 128,-1,57
 509 1470 509 1470 513 1464.5 c 128,-1,58
 517 1459 517 1459 520 1453 c 128,-1,59
 523 1447 523 1447 527.5 1436.5 c 128,-1,60
 532 1426 532 1426 535 1417.5 c 128,-1,61
 538 1409 538 1409 543.5 1395 c 128,-1,62
 549 1381 549 1381 553 1372 c 0,63,64
 563 1349 563 1349 579 1295 c 128,-1,65
 595 1241 595 1241 610 1184.5 c 128,-1,66
 625 1128 625 1128 627 1120 c 0,67,68
 630 1099 630 1099 680 959.5 c 128,-1,69
 730 820 730 820 733 807 c 1,70,71
 738 794 738 794 762 728 c 128,-1,72
 786 662 786 662 810 599 c 128,-1,73
 834 536 834 536 844 514 c 1,74,75
 923 273 923 273 928 252 c 0,76,77
 935 223 935 223 952.5 175.5 c 128,-1,78
 970 128 970 128 989.5 80 c 128,-1,79
 1009 32 1009 32 1010 29 c 0,80,81
 1016 14 1016 14 1016 8 c 0,82,83
 1016 0 1016 0 993 0 c 2,84,-1
 879 0 l 2,85,86
 863 0 863 0 856 18 c 0,87,88
 847 43 847 43 834 92 c 1,89,90
 814 147 814 147 809 184 c 1,91,92
 792 269 792 269 766 324 c 1,93,94
 746 369 746 369 733 412 c 2,95,-1
 715 471 l 1,96,97
 705 494 705 494 699.5 499 c 128,-1,98
 694 504 694 504 682 504 c 0,99,100
 638 504 638 504 618 502 c 0,101,102
 548 498 548 498 530 498 c 1,103,104
 514 496 514 496 379 496 c 2,105,-1
 254 496 l 1,106,-1
 250 496 l 2,107,108
 237 496 237 496 231 473 c 1,109,-1
 227 453 l 1,110,-1
 219 414 l 1,111,112
 214 397 214 397 194.5 305 c 128,-1,113
 175 213 175 213 172 205 c 1,114,115
 167 162 167 162 154 137 c 0,116,117
 151 133 151 133 133 72 c 1,118,119
 128 59 128 59 119 18 c 1,120,121
 113.100013272 2.26670205859 113.100013272 2.26670205859 107.887975672 0.894057697049 c 0,122,123
 104.493168929 0 104.493168929 0 96 0 c 2,124,-1
 55 0 l 2,125,126
 36 0 36 0 45 27 c 1,127,128
 45 33 45 33 47 37 c 0,129,130
 47 38 47 38 49 48 c 128,-1,131
 51 58 51 58 55 66 c 1,132,-1
 74 141 l 2,31,32
627 637 m 0,133,134
 653 637 653 637 653 651 c 0,135,136
 653 661 653 661 639 696 c 0,137,138
 631 715 631 715 603.5 806.5 c 128,-1,139
 576 898 576 898 565 928 c 1,140,141
 549 977 549 977 523.5 1067 c 128,-1,142
 498 1157 498 1157 494 1182 c 1,143,144
 465 1290 465 1290 453 1290 c 0,145,146
 449 1290 449 1290 444.5 1277.5 c 128,-1,147
 440 1265 440 1265 432 1234 c 128,-1,148
 424 1203 424 1203 420 1190 c 1,149,150
 413 1157 413 1157 383.5 1053 c 128,-1,151
 354 949 354 949 342 911 c 1,152,153
 334 873 334 873 310 785.5 c 128,-1,154
 286 698 286 698 274 666 c 0,155,156
 270 654 270 654 270 651 c 0,157,158
 270 643 270 643 274 638.5 c 128,-1,159
 278 634 278 634 286 632.5 c 128,-1,160
 294 631 294 631 299.5 630.5 c 128,-1,161
 305 630 305 630 315.5 630.5 c 128,-1,162
 326 631 326 631 328 631 c 0,163,164
 337 631 337 631 384.5 633 c 128,-1,165
 432 635 432 635 446 635 c 1,166,167
 470 639 470 639 516 639 c 0,168,169
 539 639 539 639 578.5 638 c 128,-1,170
 618 637 618 637 627 637 c 0,133,134
EndSplineSet
Validated: 524321
Substitution2: "Single Substitution lookup 21 subtable" agrave
Substitution2: "'aalt' Access All Alternates lookup 0 subtable" agrave
Position2: "'cpsp' Capital Spacing lookup 0 subtable" dx=10 dy=0 dh=20 dv=0
EndChar

StartChar: Amacron
Encoding: 256 256 7
Width: 1038
Flags: MW
HStem: 0 43G<48 55 55 96 873 879 879 993> 496 135<246 338 250 338 318 338 318 379> 1434 41G<478 507> 1587 115<303 311 311 582>
VStem: 42 974
LayerCount: 2
Fore
SplineSet
762 1702 m 2,0,1
 765 1702 765 1702 769.5 1703 c 128,-1,2
 774 1704 774 1704 776 1704 c 0,3,4
 787 1704 787 1704 792 1698.5 c 128,-1,5
 797 1693 797 1693 798 1687 c 128,-1,6
 799 1681 799 1681 799 1669 c 2,7,-1
 799 1608 l 2,8,9
 799 1593 799 1593 790.5 1587 c 128,-1,10
 782 1581 782 1581 754 1581 c 0,11,12
 737 1581 737 1581 672.5 1584 c 128,-1,13
 608 1587 608 1587 582 1587 c 2,14,-1
 311 1587 l 2,15,16
 217 1587 217 1587 207 1581 c 1,17,18
 190 1581 190 1581 190 1608 c 2,19,-1
 190 1663 l 2,20,21
 190 1702 190 1702 213 1702 c 2,22,-1
 762 1702 l 2,0,1
74 141 m 2,23,24
 76 148 76 148 82 167 c 128,-1,25
 88 186 88 186 93.5 205.5 c 128,-1,26
 99 225 99 225 102 242 c 0,27,28
 109 282 109 282 141 391 c 0,29,30
 146 407 146 407 162 460 c 128,-1,31
 178 513 178 513 190.5 557 c 128,-1,32
 203 601 203 601 207 627 c 1,33,34
 214 660 214 660 234.5 729.5 c 128,-1,35
 255 799 255 799 260 821 c 0,36,37
 261 827 261 827 315 1032 c 1,38,39
 353 1155 353 1155 362 1176 c 0,40,41
 364 1182 364 1182 379.5 1225.5 c 128,-1,42
 395 1269 395 1269 408.5 1310.5 c 128,-1,43
 422 1352 422 1352 426 1376 c 1,44,45
 440 1426 440 1426 455.5 1450.5 c 128,-1,46
 471 1475 471 1475 498 1475 c 0,47,48
 502 1475 502 1475 505.5 1472.5 c 128,-1,49
 509 1470 509 1470 513 1464.5 c 128,-1,50
 517 1459 517 1459 520 1453 c 128,-1,51
 523 1447 523 1447 527.5 1436.5 c 128,-1,52
 532 1426 532 1426 535 1417.5 c 128,-1,53
 538 1409 538 1409 543.5 1395 c 128,-1,54
 549 1381 549 1381 553 1372 c 0,55,56
 563 1349 563 1349 579 1295 c 128,-1,57
 595 1241 595 1241 610 1184.5 c 128,-1,58
 625 1128 625 1128 627 1120 c 0,59,60
 630 1099 630 1099 680 959.5 c 128,-1,61
 730 820 730 820 733 807 c 1,62,63
 738 794 738 794 762 728 c 128,-1,64
 786 662 786 662 810 599 c 128,-1,65
 834 536 834 536 844 514 c 1,66,67
 923 273 923 273 928 252 c 0,68,69
 935 223 935 223 952.5 175.5 c 128,-1,70
 970 128 970 128 989.5 80 c 128,-1,71
 1009 32 1009 32 1010 29 c 0,72,73
 1016 14 1016 14 1016 8 c 0,74,75
 1016 0 1016 0 993 0 c 2,76,-1
 879 0 l 2,77,78
 863 0 863 0 856 18 c 0,79,80
 847 43 847 43 834 92 c 1,81,82
 814 147 814 147 809 184 c 1,83,84
 792 269 792 269 766 324 c 1,85,86
 746 369 746 369 733 412 c 2,87,-1
 715 471 l 1,88,89
 705 494 705 494 699.5 499 c 128,-1,90
 694 504 694 504 682 504 c 0,91,92
 638 504 638 504 618 502 c 0,93,94
 548 498 548 498 530 498 c 1,95,96
 514 496 514 496 379 496 c 2,97,-1
 254 496 l 1,98,-1
 250 496 l 2,99,100
 237 496 237 496 231 473 c 1,101,-1
 227 453 l 1,102,-1
 219 414 l 1,103,104
 214 397 214 397 194.5 305 c 128,-1,105
 175 213 175 213 172 205 c 1,106,107
 167 162 167 162 154 137 c 0,108,109
 151 133 151 133 133 72 c 1,110,111
 128 59 128 59 119 18 c 1,112,113
 113.100013272 2.26670205859 113.100013272 2.26670205859 107.887975672 0.894057697049 c 0,114,115
 104.493168929 0 104.493168929 0 96 0 c 2,116,-1
 55 0 l 2,117,118
 36 0 36 0 45 27 c 1,119,120
 45 33 45 33 47 37 c 0,121,122
 47 38 47 38 49 48 c 128,-1,123
 51 58 51 58 55 66 c 1,124,-1
 74 141 l 2,23,24
627 637 m 0,125,126
 653 637 653 637 653 651 c 0,127,128
 653 661 653 661 639 696 c 0,129,130
 631 715 631 715 603.5 806.5 c 128,-1,131
 576 898 576 898 565 928 c 1,132,133
 549 977 549 977 523.5 1067 c 128,-1,134
 498 1157 498 1157 494 1182 c 1,135,136
 465 1290 465 1290 453 1290 c 0,137,138
 449 1290 449 1290 444.5 1277.5 c 128,-1,139
 440 1265 440 1265 432 1234 c 128,-1,140
 424 1203 424 1203 420 1190 c 1,141,142
 413 1157 413 1157 383.5 1053 c 128,-1,143
 354 949 354 949 342 911 c 1,144,145
 334 873 334 873 310 785.5 c 128,-1,146
 286 698 286 698 274 666 c 0,147,148
 270 654 270 654 270 651 c 0,149,150
 270 643 270 643 274 638.5 c 128,-1,151
 278 634 278 634 286 632.5 c 128,-1,152
 294 631 294 631 299.5 630.5 c 128,-1,153
 305 630 305 630 315.5 630.5 c 128,-1,154
 326 631 326 631 328 631 c 0,155,156
 337 631 337 631 384.5 633 c 128,-1,157
 432 635 432 635 446 635 c 1,158,159
 470 639 470 639 516 639 c 0,160,161
 539 639 539 639 578.5 638 c 128,-1,162
 618 637 618 637 627 637 c 0,125,126
EndSplineSet
Validated: 524289
Substitution2: "Single Substitution lookup 21 subtable" amacron
Substitution2: "'aalt' Access All Alternates lookup 0 subtable" amacron
Position2: "'cpsp' Capital Spacing lookup 0 subtable" dx=10 dy=0 dh=20 dv=0
EndChar

StartChar: Aogonek
Encoding: 260 260 8
Width: 1038
Flags: MW
HStem: -350 152 0 43G<48 55 55 96 958 993 958 958> 496 135<246 338 250 338 318 338 318 379> 1434 41G<478 507>
VStem: 801 145<-186 -109>
LayerCount: 2
Fore
SplineSet
958 0 m 1,0,1
 958 -10 958 -10 954 -37.5 c 128,-1,2
 950 -65 950 -65 948 -78 c 0,3,4
 946 -90 946 -90 946 -115 c 0,5,6
 946 -196 946 -196 987 -199 c 0,7,8
 1030 -202 1030 -202 1062.5 -195 c 128,-1,9
 1095 -188 1095 -188 1108.5 -178.5 c 128,-1,10
 1122 -169 1122 -169 1133 -160.5 c 128,-1,11
 1144 -152 1144 -152 1149 -152 c 0,12,13
 1161 -152 1161 -152 1175.5 -170 c 128,-1,14
 1190 -188 1190 -188 1190 -203 c 0,15,16
 1190 -243 1190 -243 1108.5 -295 c 128,-1,17
 1027 -347 1027 -347 969 -350 c 1,18,19
 887 -352 887 -352 846 -317.5 c 128,-1,20
 805 -283 805 -283 801 -186 c 1,21,22
 801 -148 801 -148 819 -92 c 0,23,24
 830 -58 830 -58 848 -16 c 1,25,-1
 860 8 l 2,26,27
 860 10 860 10 856 18 c 1,28,29
 847 43 847 43 834 92 c 1,30,31
 814 147 814 147 809 184 c 1,32,33
 792 269 792 269 766 324 c 1,34,35
 746 369 746 369 733 412 c 2,36,-1
 715 471 l 1,37,38
 705 494 705 494 699.5 499 c 128,-1,39
 694 504 694 504 682 504 c 0,40,41
 638 504 638 504 618 502 c 0,42,43
 548 498 548 498 530 498 c 1,44,45
 514 496 514 496 379 496 c 2,46,-1
 254 496 l 1,47,-1
 250 496 l 2,48,49
 237 496 237 496 231 473 c 1,50,-1
 227 453 l 1,51,-1
 219 414 l 1,52,53
 214 397 214 397 194.5 305 c 128,-1,54
 175 213 175 213 172 205 c 1,55,56
 167 162 167 162 154 137 c 0,57,58
 151 133 151 133 133 72 c 1,59,60
 128 59 128 59 119 18 c 1,61,62
 113.100013272 2.26670205859 113.100013272 2.26670205859 107.887975672 0.894057697049 c 0,63,64
 104.493168929 0 104.493168929 0 96 0 c 2,65,-1
 55 0 l 2,66,67
 36 0 36 0 45 27 c 1,68,69
 45 33 45 33 47 37 c 0,70,71
 47 38 47 38 49 48 c 128,-1,72
 51 58 51 58 55 66 c 1,73,-1
 74 141 l 2,74,75
 76 148 76 148 82 167 c 128,-1,76
 88 186 88 186 93.5 205.5 c 128,-1,77
 99 225 99 225 102 242 c 0,78,79
 109 282 109 282 141 391 c 0,80,81
 146 407 146 407 162 460 c 128,-1,82
 178 513 178 513 190.5 557 c 128,-1,83
 203 601 203 601 207 627 c 1,84,85
 214 660 214 660 234.5 729.5 c 128,-1,86
 255 799 255 799 260 821 c 0,87,88
 261 827 261 827 315 1032 c 1,89,90
 353 1155 353 1155 362 1176 c 0,91,92
 364 1182 364 1182 379.5 1225.5 c 128,-1,93
 395 1269 395 1269 408.5 1310.5 c 128,-1,94
 422 1352 422 1352 426 1376 c 1,95,96
 440 1426 440 1426 455.5 1450.5 c 128,-1,97
 471 1475 471 1475 498 1475 c 0,98,99
 502 1475 502 1475 505.5 1472.5 c 128,-1,100
 509 1470 509 1470 513 1464.5 c 128,-1,101
 517 1459 517 1459 520 1453 c 128,-1,102
 523 1447 523 1447 527.5 1436.5 c 128,-1,103
 532 1426 532 1426 535 1417.5 c 128,-1,104
 538 1409 538 1409 543.5 1395 c 128,-1,105
 549 1381 549 1381 553 1372 c 0,106,107
 563 1349 563 1349 579 1295 c 128,-1,108
 595 1241 595 1241 610 1184.5 c 128,-1,109
 625 1128 625 1128 627 1120 c 0,110,111
 630 1099 630 1099 680 959.5 c 128,-1,112
 730 820 730 820 733 807 c 1,113,114
 738 794 738 794 762 728 c 128,-1,115
 786 662 786 662 810 599 c 128,-1,116
 834 536 834 536 844 514 c 1,117,118
 923 273 923 273 928 252 c 0,119,120
 935 223 935 223 952.5 175.5 c 128,-1,121
 970 128 970 128 989.5 80 c 128,-1,122
 1009 32 1009 32 1010 29 c 0,123,124
 1016 14 1016 14 1016 8 c 0,125,126
 1016 0 1016 0 993 0 c 2,127,-1
 958 0 l 1,0,1
627 637 m 0,128,129
 653 637 653 637 653 651 c 0,130,131
 653 656 653 656 639 696 c 1,132,133
 631 715 631 715 603.5 806.5 c 128,-1,134
 576 898 576 898 565 928 c 1,135,136
 549 977 549 977 523.5 1067 c 128,-1,137
 498 1157 498 1157 494 1182 c 1,138,139
 465 1290 465 1290 453 1290 c 0,140,141
 449 1290 449 1290 444.5 1277.5 c 128,-1,142
 440 1265 440 1265 432 1234 c 128,-1,143
 424 1203 424 1203 420 1190 c 1,144,145
 413 1157 413 1157 383.5 1053 c 128,-1,146
 354 949 354 949 342 911 c 1,147,148
 334 873 334 873 310 785.5 c 128,-1,149
 286 698 286 698 274 666 c 0,150,151
 270 654 270 654 270 651 c 0,152,153
 270 643 270 643 274 638.5 c 128,-1,154
 278 634 278 634 286 632.5 c 128,-1,155
 294 631 294 631 299.5 630.5 c 128,-1,156
 305 630 305 630 315.5 630.5 c 128,-1,157
 326 631 326 631 328 631 c 0,158,159
 337 631 337 631 384.5 633 c 128,-1,160
 432 635 432 635 446 635 c 1,161,162
 470 639 470 639 516 639 c 0,163,164
 539 639 539 639 578.5 638 c 128,-1,165
 618 637 618 637 627 637 c 0,128,129
EndSplineSet
Validated: 524321
Substitution2: "Single Substitution lookup 21 subtable" aogonek
Substitution2: "'aalt' Access All Alternates lookup 0 subtable" aogonek
Position2: "'cpsp' Capital Spacing lookup 0 subtable" dx=10 dy=0 dh=20 dv=0
EndChar

StartChar: Aring
Encoding: 197 197 9
Width: 1036
Flags: MW
HStem: 0 43G<48 55 55 96 873 879 879 993> 496 135<246 338 250 338 318 338 318 379> 1425 102<499 532> 1618 102<499 535>
VStem: 360 100<1561 1565> 569 98<1563 1583>
LayerCount: 2
Fore
SplineSet
74 141 m 2,0,1
 76 148 76 148 82 167 c 128,-1,2
 88 186 88 186 93.5 205.5 c 128,-1,3
 99 225 99 225 102 242 c 0,4,5
 109 282 109 282 141 391 c 0,6,7
 146 407 146 407 162 460 c 128,-1,8
 178 513 178 513 190.5 557 c 128,-1,9
 203 601 203 601 207 627 c 1,10,11
 214 660 214 660 234.5 729.5 c 128,-1,12
 255 799 255 799 260 821 c 0,13,14
 261 827 261 827 315 1032 c 1,15,16
 353 1155 353 1155 362 1176 c 0,17,18
 364 1182 364 1182 379.5 1225.5 c 128,-1,19
 395 1269 395 1269 408.5 1310.5 c 128,-1,20
 422 1352 422 1352 426 1376 c 1,21,22
 433 1407 433 1407 449 1438 c 1,23,24
 411 1456 411 1456 385.5 1490.5 c 128,-1,25
 360 1525 360 1525 360 1565 c 1,26,27
 362 1599 362 1599 381 1642 c 1,28,29
 411 1720 411 1720 508 1720 c 0,30,31
 549 1720 549 1720 580.5 1707 c 128,-1,32
 612 1694 612 1694 628 1676.5 c 128,-1,33
 644 1659 644 1659 653.5 1636 c 128,-1,34
 663 1613 663 1613 665.5 1599 c 128,-1,35
 668 1585 668 1585 668 1573 c 0,36,37
 668 1547 668 1547 646.5 1503 c 128,-1,38
 625 1459 625 1459 580 1436 c 1,39,40
 564 1429 564 1429 532 1425 c 1,41,-1
 553 1372 l 2,42,43
 563 1349 563 1349 579 1295 c 128,-1,44
 595 1241 595 1241 610 1184.5 c 128,-1,45
 625 1128 625 1128 627 1120 c 0,46,47
 630 1099 630 1099 680 959.5 c 128,-1,48
 730 820 730 820 733 807 c 1,49,50
 738 794 738 794 762 728 c 128,-1,51
 786 662 786 662 810 599 c 128,-1,52
 834 536 834 536 844 514 c 1,53,54
 923 273 923 273 928 252 c 0,55,56
 935 223 935 223 952.5 175.5 c 128,-1,57
 970 128 970 128 989.5 80 c 128,-1,58
 1009 32 1009 32 1010 29 c 0,59,60
 1016 14 1016 14 1016 8 c 0,61,62
 1016 0 1016 0 993 0 c 2,63,-1
 879 0 l 2,64,65
 863 0 863 0 856 18 c 0,66,67
 847 43 847 43 834 92 c 1,68,69
 814 147 814 147 809 184 c 1,70,71
 792 269 792 269 766 324 c 1,72,73
 746 369 746 369 733 412 c 2,74,-1
 715 471 l 1,75,76
 705 494 705 494 699.5 499 c 128,-1,77
 694 504 694 504 682 504 c 0,78,79
 638 504 638 504 618 502 c 0,80,81
 548 498 548 498 530 498 c 1,82,83
 514 496 514 496 379 496 c 2,84,-1
 254 496 l 1,85,-1
 250 496 l 2,86,87
 237 496 237 496 231 473 c 1,88,-1
 227 453 l 1,89,-1
 219 414 l 1,90,91
 214 397 214 397 194.5 305 c 128,-1,92
 175 213 175 213 172 205 c 1,93,94
 167 162 167 162 154 137 c 0,95,96
 151 133 151 133 133 72 c 1,97,98
 128 59 128 59 119 18 c 1,99,100
 113.100013272 2.26670205859 113.100013272 2.26670205859 107.887975672 0.894057697049 c 0,101,102
 104.493168929 0 104.493168929 0 96 0 c 2,103,-1
 55 0 l 2,104,105
 36 0 36 0 45 27 c 1,106,107
 45 33 45 33 47 37 c 0,108,109
 47 38 47 38 49 48 c 128,-1,110
 51 58 51 58 55 66 c 1,111,-1
 74 141 l 2,0,1
518 1618 m 0,112,113
 490 1618 490 1618 475.5 1605 c 128,-1,114
 461 1592 461 1592 461 1573 c 128,-1,115
 461 1554 461 1554 476.5 1541 c 128,-1,116
 492 1528 492 1528 512 1528 c 0,117,118
 518 1528 518 1528 526.5 1529 c 2,119,-1
 535 1530 l 2,120,121
 536 1531 536 1531 546 1536 c 128,-1,122
 556 1541 556 1541 562.5 1550 c 128,-1,123
 569 1559 569 1559 569 1573 c 0,124,125
 569 1590 569 1590 555 1604 c 128,-1,126
 541 1618 541 1618 518 1618 c 0,112,113
627 637 m 0,127,128
 653 637 653 637 653 651 c 0,129,130
 653 655 653 655 651 661.5 c 128,-1,131
 649 668 649 668 645 678 c 128,-1,132
 641 688 641 688 639 696 c 1,133,134
 631 715 631 715 603.5 806.5 c 128,-1,135
 576 898 576 898 565 928 c 1,136,137
 549 977 549 977 523.5 1067 c 128,-1,138
 498 1157 498 1157 494 1182 c 1,139,140
 465 1290 465 1290 453 1290 c 0,141,142
 449 1290 449 1290 444.5 1277.5 c 128,-1,143
 440 1265 440 1265 432 1234 c 128,-1,144
 424 1203 424 1203 420 1190 c 1,145,146
 413 1157 413 1157 383.5 1053 c 128,-1,147
 354 949 354 949 342 911 c 1,148,149
 334 873 334 873 310 785.5 c 128,-1,150
 286 698 286 698 274 666 c 0,151,152
 270 654 270 654 270 651 c 0,153,154
 270 643 270 643 274 638.5 c 128,-1,155
 278 634 278 634 286 632.5 c 128,-1,156
 294 631 294 631 299.5 630.5 c 128,-1,157
 305 630 305 630 315.5 630.5 c 128,-1,158
 326 631 326 631 328 631 c 0,159,160
 337 631 337 631 384.5 633 c 128,-1,161
 432 635 432 635 446 635 c 1,162,163
 470 639 470 639 516 639 c 0,164,165
 539 639 539 639 578.5 638 c 128,-1,166
 618 637 618 637 627 637 c 0,127,128
EndSplineSet
Validated: 524289
Substitution2: "Single Substitution lookup 21 subtable" aring
Substitution2: "'aalt' Access All Alternates lookup 0 subtable" aring
Position2: "'cpsp' Capital Spacing lookup 0 subtable" dx=10 dy=0 dh=20 dv=0
EndChar

StartChar: Aringacute
Encoding: 506 506 10
Width: 1038
Flags: MW
HStem: 0 43G<48 55 55 96 873 879 879 993> 496 135<246 338 250 338 318 338 318 379> 1386 41G<530 530>
VStem: 336 100<1561 1565> 545 98<1563 1581 1563 1583>
LayerCount: 2
Fore
SplineSet
520 1784 m 1,0,1
 564 1798 564 1798 592 1798 c 1,2,3
 624 1802 624 1802 633 1802 c 0,4,5
 656 1802 656 1802 665 1789.5 c 128,-1,6
 674 1777 674 1777 668 1745 c 1,7,8
 658 1712 658 1712 594 1686 c 1,9,10
 613 1668 613 1668 625 1642.5 c 128,-1,11
 637 1617 637 1617 640 1601 c 128,-1,12
 643 1585 643 1585 643 1573 c 0,13,14
 643 1547 643 1547 621.5 1503 c 128,-1,15
 600 1459 600 1459 555 1436 c 0,16,17
 544 1430 544 1430 530 1427 c 1,18,-1
 553 1372 l 2,19,20
 563 1349 563 1349 579 1295 c 128,-1,21
 595 1241 595 1241 610 1184.5 c 128,-1,22
 625 1128 625 1128 627 1120 c 0,23,24
 630 1099 630 1099 680 959.5 c 128,-1,25
 730 820 730 820 733 807 c 1,26,27
 738 794 738 794 762 728 c 128,-1,28
 786 662 786 662 810 599 c 128,-1,29
 834 536 834 536 844 514 c 1,30,31
 923 273 923 273 928 252 c 0,32,33
 935 223 935 223 952.5 175.5 c 128,-1,34
 970 128 970 128 989.5 80 c 128,-1,35
 1009 32 1009 32 1010 29 c 0,36,37
 1016 14 1016 14 1016 8 c 0,38,39
 1016 0 1016 0 993 0 c 2,40,-1
 879 0 l 2,41,42
 863 0 863 0 856 18 c 0,43,44
 847 43 847 43 834 92 c 1,45,46
 814 147 814 147 809 184 c 1,47,48
 792 269 792 269 766 324 c 1,49,50
 746 369 746 369 733 412 c 2,51,-1
 715 471 l 1,52,53
 705 494 705 494 699.5 499 c 128,-1,54
 694 504 694 504 682 504 c 0,55,56
 638 504 638 504 618 502 c 0,57,58
 548 498 548 498 530 498 c 1,59,60
 514 496 514 496 379 496 c 2,61,-1
 254 496 l 1,62,-1
 250 496 l 2,63,64
 237 496 237 496 231 473 c 1,65,-1
 227 453 l 1,66,-1
 219 414 l 1,67,68
 214 397 214 397 194.5 305 c 128,-1,69
 175 213 175 213 172 205 c 1,70,71
 167 162 167 162 154 137 c 0,72,73
 151 133 151 133 133 72 c 1,74,75
 128 59 128 59 119 18 c 1,76,77
 113.100013272 2.26670205859 113.100013272 2.26670205859 107.887975672 0.894057697049 c 0,78,79
 104.493168929 0 104.493168929 0 96 0 c 2,80,-1
 55 0 l 2,81,82
 36 0 36 0 45 27 c 1,83,84
 45 33 45 33 47 37 c 0,85,86
 47 38 47 38 49 48 c 128,-1,87
 51 58 51 58 55 66 c 1,88,-1
 74 141 l 2,89,90
 76 148 76 148 82 167 c 128,-1,91
 88 186 88 186 93.5 205.5 c 128,-1,92
 99 225 99 225 102 242 c 0,93,94
 109 282 109 282 141 391 c 0,95,96
 146 407 146 407 162 460 c 128,-1,97
 178 513 178 513 190.5 557 c 128,-1,98
 203 601 203 601 207 627 c 1,99,100
 214 660 214 660 234.5 729.5 c 128,-1,101
 255 799 255 799 260 821 c 0,102,103
 261 827 261 827 315 1032 c 1,104,105
 353 1155 353 1155 362 1176 c 0,106,107
 364 1182 364 1182 379.5 1225.5 c 128,-1,108
 395 1269 395 1269 408.5 1310.5 c 128,-1,109
 422 1352 422 1352 426 1376 c 1,110,111
 438 1416 438 1416 444 1430 c 1,112,113
 400 1442 400 1442 368 1480.5 c 128,-1,114
 336 1519 336 1519 336 1565 c 1,115,-1
 340 1591 l 1,116,117
 336 1589 336 1589 328 1589 c 0,118,119
 309 1589 309 1589 285 1604 c 1,120,121
 244 1618 244 1618 244 1649 c 0,122,123
 244 1653 244 1653 248 1669 c 0,124,125
 251 1678 251 1678 289.5 1695.5 c 128,-1,126
 328 1713 328 1713 350 1720 c 1,127,128
 362 1727 362 1727 395.5 1737 c 128,-1,129
 429 1747 429 1747 475 1767 c 1,130,-1
 520 1784 l 1,0,1
494 1618 m 0,131,132
 466 1618 466 1618 451 1605 c 128,-1,133
 436 1592 436 1592 436 1573 c 128,-1,134
 436 1554 436 1554 451.5 1541 c 128,-1,135
 467 1528 467 1528 487 1528 c 0,136,137
 493 1528 493 1528 501.5 1529 c 2,138,-1
 510 1530 l 2,139,140
 511 1531 511 1531 521 1536 c 128,-1,141
 531 1541 531 1541 538 1550 c 128,-1,142
 545 1559 545 1559 545 1573 c 0,143,144
 545 1590 545 1590 531 1604 c 128,-1,145
 517 1618 517 1618 494 1618 c 0,131,132
627 637 m 0,146,147
 653 637 653 637 653 651 c 0,148,149
 653 661 653 661 639 696 c 0,150,151
 631 715 631 715 603.5 806.5 c 128,-1,152
 576 898 576 898 565 928 c 1,153,154
 549 977 549 977 523.5 1067 c 128,-1,155
 498 1157 498 1157 494 1182 c 1,156,157
 465 1290 465 1290 453 1290 c 0,158,159
 449 1290 449 1290 444.5 1277.5 c 128,-1,160
 440 1265 440 1265 432 1234 c 128,-1,161
 424 1203 424 1203 420 1190 c 1,162,163
 413 1157 413 1157 383.5 1053 c 128,-1,164
 354 949 354 949 342 911 c 1,165,166
 334 873 334 873 310 785.5 c 128,-1,167
 286 698 286 698 274 666 c 0,168,169
 270 654 270 654 270 651 c 0,170,171
 270 643 270 643 274 638.5 c 128,-1,172
 278 634 278 634 286 632.5 c 128,-1,173
 294 631 294 631 299.5 630.5 c 128,-1,174
 305 630 305 630 315.5 630.5 c 128,-1,175
 326 631 326 631 328 631 c 0,176,177
 337 631 337 631 384.5 633 c 128,-1,178
 432 635 432 635 446 635 c 1,179,180
 470 639 470 639 516 639 c 0,181,182
 539 639 539 639 578.5 638 c 128,-1,183
 618 637 618 637 627 637 c 0,146,147
EndSplineSet
Validated: 524289
Substitution2: "Single Substitution lookup 21 subtable" aringacute
Substitution2: "'aalt' Access All Alternates lookup 0 subtable" aringacute
Position2: "'cpsp' Capital Spacing lookup 0 subtable" dx=10 dy=0 dh=20 dv=0
EndChar

StartChar: Atilde
Encoding: 195 195 11
Width: 1036
Flags: MW
HStem: 0 43G<48 55 55 96 873 879 879 993> 496 135<246 338 250 338 318 338 318 379> 1434 41G<478 507> 1565 102<256 285 256 296> 1604 98<655 672 594 680>
VStem: 42 974
LayerCount: 2
Fore
SplineSet
838 1612 m 2,0,1
 838 1579 838 1579 791 1579 c 0,2,3
 773 1579 773 1579 727 1591.5 c 128,-1,4
 681 1604 681 1604 655 1604 c 0,5,6
 599 1603 599 1603 530 1593 c 128,-1,7
 461 1583 461 1583 440 1581 c 0,8,9
 414 1579 414 1579 381 1574.5 c 128,-1,10
 348 1570 348 1570 319.5 1567.5 c 128,-1,11
 291 1565 291 1565 256 1565 c 0,12,13
 121 1565 121 1565 121 1612 c 2,14,-1
 121 1638 l 2,15,16
 121 1672 121 1672 125 1686 c 0,17,18
 128 1696 128 1696 139 1696 c 0,19,20
 146 1696 146 1696 161 1691.5 c 128,-1,21
 176 1687 176 1687 202.5 1679.5 c 128,-1,22
 229 1672 229 1672 256 1667 c 1,23,24
 295 1667 295 1667 403 1686 c 0,25,26
 494 1702 494 1702 647 1702 c 0,27,28
 726 1702 726 1702 778 1694 c 1,29,30
 800 1693 800 1693 813.5 1688.5 c 128,-1,31
 827 1684 827 1684 831.5 1678.5 c 128,-1,32
 836 1673 836 1673 837.5 1666 c 128,-1,33
 839 1659 839 1659 837.5 1653 c 128,-1,34
 836 1647 836 1647 838 1642 c 1,35,-1
 838 1612 l 2,0,1
74 141 m 2,36,37
 76 148 76 148 82 167 c 128,-1,38
 88 186 88 186 93.5 205.5 c 128,-1,39
 99 225 99 225 102 242 c 0,40,41
 109 282 109 282 141 391 c 0,42,43
 146 407 146 407 162 460 c 128,-1,44
 178 513 178 513 190.5 557 c 128,-1,45
 203 601 203 601 207 627 c 1,46,47
 214 660 214 660 234.5 729.5 c 128,-1,48
 255 799 255 799 260 821 c 0,49,50
 261 827 261 827 315 1032 c 1,51,52
 353 1155 353 1155 362 1176 c 0,53,54
 364 1182 364 1182 379.5 1225.5 c 128,-1,55
 395 1269 395 1269 408.5 1310.5 c 128,-1,56
 422 1352 422 1352 426 1376 c 1,57,58
 440 1426 440 1426 455.5 1450.5 c 128,-1,59
 471 1475 471 1475 498 1475 c 0,60,61
 502 1475 502 1475 505.5 1472.5 c 128,-1,62
 509 1470 509 1470 513 1464.5 c 128,-1,63
 517 1459 517 1459 520 1453 c 128,-1,64
 523 1447 523 1447 527.5 1436.5 c 128,-1,65
 532 1426 532 1426 535 1417.5 c 128,-1,66
 538 1409 538 1409 543.5 1395 c 128,-1,67
 549 1381 549 1381 553 1372 c 0,68,69
 563 1349 563 1349 579 1295 c 128,-1,70
 595 1241 595 1241 610 1184.5 c 128,-1,71
 625 1128 625 1128 627 1120 c 0,72,73
 630 1099 630 1099 680 959.5 c 128,-1,74
 730 820 730 820 733 807 c 1,75,76
 738 794 738 794 762 728 c 128,-1,77
 786 662 786 662 810 599 c 128,-1,78
 834 536 834 536 844 514 c 1,79,80
 923 273 923 273 928 252 c 0,81,82
 935 223 935 223 952.5 175.5 c 128,-1,83
 970 128 970 128 989.5 80 c 128,-1,84
 1009 32 1009 32 1010 29 c 0,85,86
 1016 14 1016 14 1016 8 c 0,87,88
 1016 0 1016 0 993 0 c 2,89,-1
 879 0 l 2,90,91
 863 0 863 0 856 18 c 0,92,93
 847 43 847 43 834 92 c 1,94,95
 814 147 814 147 809 184 c 1,96,97
 792 269 792 269 766 324 c 1,98,99
 746 369 746 369 733 412 c 2,100,-1
 715 471 l 1,101,102
 705 494 705 494 699.5 499 c 128,-1,103
 694 504 694 504 682 504 c 0,104,105
 638 504 638 504 618 502 c 0,106,107
 548 498 548 498 530 498 c 1,108,109
 514 496 514 496 379 496 c 2,110,-1
 254 496 l 1,111,-1
 250 496 l 2,112,113
 237 496 237 496 231 473 c 1,114,-1
 227 453 l 1,115,-1
 219 414 l 1,116,117
 214 397 214 397 194.5 305 c 128,-1,118
 175 213 175 213 172 205 c 1,119,120
 167 162 167 162 154 137 c 0,121,122
 151 133 151 133 133 72 c 1,123,124
 128 59 128 59 119 18 c 1,125,126
 113.100013272 2.26670205859 113.100013272 2.26670205859 107.887975672 0.894057697049 c 0,127,128
 104.493168929 0 104.493168929 0 96 0 c 2,129,-1
 55 0 l 2,130,131
 36 0 36 0 45 27 c 1,132,133
 45 33 45 33 47 37 c 0,134,135
 47 38 47 38 49 48 c 128,-1,136
 51 58 51 58 55 66 c 1,137,-1
 74 141 l 2,36,37
627 637 m 0,138,139
 653 637 653 637 653 651 c 0,140,141
 653 661 653 661 639 696 c 0,142,143
 631 715 631 715 603.5 806.5 c 128,-1,144
 576 898 576 898 565 928 c 1,145,146
 549 977 549 977 523.5 1067 c 128,-1,147
 498 1157 498 1157 494 1182 c 1,148,149
 465 1290 465 1290 453 1290 c 0,150,151
 449 1290 449 1290 444.5 1277.5 c 128,-1,152
 440 1265 440 1265 432 1234 c 128,-1,153
 424 1203 424 1203 420 1190 c 1,154,155
 413 1157 413 1157 383.5 1053 c 128,-1,156
 354 949 354 949 342 911 c 1,157,158
 334 873 334 873 310 785.5 c 128,-1,159
 286 698 286 698 274 666 c 0,160,161
 270 654 270 654 270 651 c 0,162,163
 270 643 270 643 274 638.5 c 128,-1,164
 278 634 278 634 286 632.5 c 128,-1,165
 294 631 294 631 299.5 630.5 c 128,-1,166
 305 630 305 630 315.5 630.5 c 128,-1,167
 326 631 326 631 328 631 c 0,168,169
 337 631 337 631 384.5 633 c 128,-1,170
 432 635 432 635 446 635 c 1,171,172
 470 639 470 639 516 639 c 0,173,174
 539 639 539 639 578.5 638 c 128,-1,175
 618 637 618 637 627 637 c 0,138,139
EndSplineSet
Validated: 524289
Substitution2: "Single Substitution lookup 21 subtable" atilde
Substitution2: "'aalt' Access All Alternates lookup 0 subtable" atilde
Position2: "'cpsp' Capital Spacing lookup 0 subtable" dx=10 dy=0 dh=20 dv=0
EndChar

StartChar: AE
Encoding: 198 198 12
Width: 1814
Flags: MW
HStem: 0 276 6 266<1004 1304> 487 217<1047 1299> 496 135<346 479 350 479 457 479 479 496 457 573> 1133 295<862 901 862 1040 862 1057> 1133 301<894 1122 901 1122 1122 1372> 1133 311<901 1314 1304 1314 1251 1372> 1434 41G
VStem: 735 152<1075 1182> 766 144 817 152
LayerCount: 2
Fore
SplineSet
1122 1434 m 1,0,1
 1214 1444 1214 1444 1272 1444 c 0,2,3
 1320 1444 1320 1444 1403.5 1440 c 128,-1,4
 1487 1436 1487 1436 1501 1436 c 0,5,6
 1538 1436 1538 1436 1552 1434 c 1,7,8
 1574 1434 1574 1434 1577 1378 c 1,9,10
 1577 1352 1577 1352 1579 1308 c 128,-1,11
 1581 1264 1581 1264 1581 1241 c 0,12,13
 1581 1174 1581 1174 1579 1147 c 1,14,15
 1581 1132 1581 1132 1576.5 1124 c 128,-1,16
 1572 1116 1572 1116 1562.5 1115.5 c 128,-1,17
 1553 1115 1553 1115 1544.5 1116.5 c 128,-1,18
 1536 1118 1536 1118 1524 1121.5 c 128,-1,19
 1512 1125 1512 1125 1509 1126 c 0,20,21
 1471 1133 1471 1133 1329 1133 c 0,22,23
 1304 1133 1304 1133 1252 1135 c 128,-1,24
 1200 1137 1200 1137 1174 1137 c 0,25,26
 1136 1137 1136 1137 1118 1135 c 128,-1,27
 1100 1133 1100 1133 1057 1133 c 2,28,-1
 901 1133 l 2,29,30
 883 1133 883 1133 883 1118 c 0,31,32
 883 1116 883 1116 887 1092 c 0,33,34
 887 1087 887 1087 903 895 c 1,35,-1
 918 774 l 2,36,37
 919 759 919 759 928 709 c 1,38,39
 944 707 944 707 983 707 c 1,40,41
 1001 705 1001 705 1047 705 c 2,42,-1
 1126 705 l 2,43,44
 1167 705 1167 705 1244.5 709 c 128,-1,45
 1322 713 1322 713 1343 713 c 0,46,47
 1371 713 1371 713 1403.5 710 c 128,-1,48
 1436 707 1436 707 1444 707 c 0,49,50
 1447 707 1447 707 1454 708 c 128,-1,51
 1461 709 1461 709 1464 709 c 0,52,53
 1493 709 1493 709 1493 659 c 2,54,-1
 1493 618 l 1,55,56
 1489 582 1489 582 1489 575 c 0,57,58
 1489 566 1489 566 1491 546.5 c 128,-1,59
 1493 527 1493 527 1493 510 c 2,60,-1
 1493 498 l 2,61,62
 1493 486 1493 486 1488.5 481.5 c 128,-1,63
 1484 477 1484 477 1478 478 c 128,-1,64
 1472 479 1472 479 1460 481 c 128,-1,65
 1448 483 1448 483 1440 483 c 0,66,67
 1436 483 1436 483 1374 485 c 128,-1,68
 1312 487 1312 487 1235 487 c 0,69,70
 1177 487 1177 487 1122.5 483 c 128,-1,71
 1068 479 1068 479 1035 475 c 128,-1,72
 1002 471 1002 471 995 471 c 0,73,74
 973 471 973 471 969 473 c 1,75,76
 958 473 958 473 956 475 c 1,77,-1
 981 270 l 1,78,79
 996 270 996 270 1004 272 c 1,80,81
 1010 272 1010 272 1029 273 c 128,-1,82
 1048 274 1048 274 1061 274 c 0,83,84
 1079 274 1079 274 1163.5 275 c 128,-1,85
 1248 276 1248 276 1300 276 c 0,86,87
 1332 276 1332 276 1425 274 c 128,-1,88
 1518 272 1518 272 1561 272 c 0,89,90
 1618 272 1618 272 1636 274 c 1,91,92
 1676 275 1676 275 1690.5 262 c 128,-1,93
 1705 249 1705 249 1710 219 c 1,94,-1
 1710 47 l 1,95,96
 1714 36 1714 36 1710.5 28.5 c 128,-1,97
 1707 21 1707 21 1707.5 16 c 128,-1,98
 1708 11 1708 11 1701 8 c 128,-1,99
 1694 5 1694 5 1691 3.5 c 128,-1,100
 1688 2 1688 2 1678 1.5 c 128,-1,101
 1668 1 1668 1 1661.5 1 c 128,-1,102
 1655 1 1655 1 1641.5 1.5 c 128,-1,103
 1628 2 1628 2 1618 2 c 0,104,105
 1588 2 1588 2 1447 4 c 128,-1,106
 1306 6 1306 6 1255 6 c 0,107,108
 1202 6 1202 6 1167 4 c 1,109,-1
 879 0 l 2,110,111
 862 0 862 0 860 18 c 0,112,113
 856 44 856 44 852 92 c 1,114,115
 849 110 849 110 846 143 c 128,-1,116
 843 176 843 176 838 215 c 1,117,118
 837 240 837 240 823 338 c 1,119,-1
 811 471 l 1,120,121
 805 494 805 494 800.5 499 c 128,-1,122
 796 504 796 504 784 504 c 0,123,124
 741 504 741 504 721 502 c 0,125,126
 651 498 651 498 633 498 c 1,127,128
 623 496 623 496 573 496 c 2,129,-1
 354 496 l 1,130,-1
 350 496 l 2,131,132
 340 496 340 496 328 473 c 1,133,-1
 319 453 l 1,134,-1
 303 414 l 1,135,136
 296 400 296 400 257 307 c 128,-1,137
 218 214 218 214 213 205 c 1,138,139
 196 159 196 159 182 137 c 1,140,141
 178 133 178 133 173.5 123.5 c 128,-1,142
 169 114 169 114 162 98 c 128,-1,143
 155 82 155 82 150 72 c 2,144,-1
 125 18 l 2,145,146
 119 6 119 6 115 3 c 128,-1,147
 111 0 111 0 98 0 c 2,148,-1
 57 0 l 2,149,150
 45 0 45 0 45 8 c 0,151,152
 45 11 45 11 53 27 c 0,153,154
 53 29 53 29 57 37 c 2,155,-1
 72 66 l 1,156,157
 76 79 76 79 88 105 c 128,-1,158
 100 131 100 131 104 141 c 0,159,160
 107 147 107 147 126.5 183 c 128,-1,161
 146 219 146 219 154 242 c 0,162,163
 164 275 164 275 221 391 c 1,164,165
 302 544 302 544 334 627 c 1,166,167
 341 642 341 642 428 821 c 1,168,-1
 526 1032 l 1,169,170
 598 1170 598 1170 602 1176 c 0,171,172
 603 1179 603 1179 621.5 1211 c 128,-1,173
 640 1243 640 1243 651 1266 c 2,174,-1
 682 1325 l 1,175,-1
 707 1376 l 2,176,177
 730 1425 730 1425 751 1450 c 128,-1,178
 772 1475 772 1475 799 1475 c 0,179,180
 813 1475 813 1475 819 1444 c 1,181,182
 819 1436 819 1436 821 1432 c 1,183,-1
 862 1427 l 2,184,185
 885 1425 885 1425 967 1425 c 0,186,187
 1013 1425 1013 1425 1040 1427 c 2,188,-1
 1122 1434 l 1,0,1
758 637 m 2,189,190
 786 637 786 637 786 655 c 0,191,192
 786 659 786 659 783.5 673 c 128,-1,193
 781 687 781 687 780 696 c 0,194,195
 780 697 780 697 777 737 c 128,-1,196
 774 777 774 777 770 803 c 2,197,-1
 762 870 l 2,198,199
 762 875 762 875 754 928 c 1,200,201
 735 1128 735 1128 735 1182 c 1,202,203
 733 1194 733 1194 730 1224.5 c 128,-1,204
 727 1255 727 1255 724 1272.5 c 128,-1,205
 721 1290 721 1290 717 1290 c 0,206,207
 715 1290 715 1290 711 1284.5 c 128,-1,208
 707 1279 707 1279 701.5 1268 c 128,-1,209
 696 1257 696 1257 690.5 1246 c 128,-1,210
 685 1235 685 1235 677 1218 c 128,-1,211
 669 1201 669 1201 664 1190 c 2,212,-1
 635 1135 l 1,213,214
 536 927 536 927 528 911 c 0,215,216
 527 909 527 909 496.5 842.5 c 128,-1,217
 466 776 466 776 444 730.5 c 128,-1,218
 422 685 422 685 410 666 c 1,219,220
 403 652 403 652 403 647 c 0,221,222
 403 640 403 640 406.5 636.5 c 128,-1,223
 410 633 410 633 417 631.5 c 128,-1,224
 424 630 424 630 430 630 c 128,-1,225
 436 630 436 630 445 630.5 c 128,-1,226
 454 631 454 631 457 631 c 2,227,-1
 479 631 l 2,228,229
 497 631 497 631 532 633 c 128,-1,230
 567 635 567 635 575 635 c 1,231,232
 583 637 583 637 610 637 c 2,233,-1
 758 637 l 2,189,190
EndSplineSet
Validated: 1
Substitution2: "Single Substitution lookup 21 subtable" ae
Substitution2: "'aalt' Access All Alternates lookup 0 subtable" ae
Position2: "'cpsp' Capital Spacing lookup 0 subtable" dx=10 dy=0 dh=20 dv=0
EndChar

StartChar: AEacute
Encoding: 508 508 13
Width: 1814
Flags: MW
HStem: 0 276 6 266<1004 1304> 487 217<1047 1299> 496 135<346 479 350 479 457 479 479 496 457 573> 1133 295<862 901 862 1040 862 1057> 1133 301<894 1122 901 1122 1122 1372> 1133 311<901 1314 1304 1314 1251 1372> 1434 41G
VStem: 735 152<1075 1182> 766 144 817 152
LayerCount: 2
Fore
SplineSet
1069 1700 m 1,0,1
 1113 1714 1113 1714 1141 1714 c 1,2,3
 1173 1718 1173 1718 1182 1718 c 0,4,5
 1205 1718 1205 1718 1214 1705.5 c 128,-1,6
 1223 1693 1223 1693 1217 1661 c 1,7,8
 1210 1638 1210 1638 1176 1618 c 128,-1,9
 1142 1598 1142 1598 1116 1591 c 1,10,11
 1011 1556 1011 1556 942 1524 c 1,12,13
 887 1505 887 1505 877 1505 c 0,14,15
 858 1505 858 1505 834 1520 c 1,16,17
 793 1534 793 1534 793 1565 c 0,18,19
 793 1569 793 1569 797 1585 c 0,20,21
 800 1594 800 1594 838.5 1611.5 c 128,-1,22
 877 1629 877 1629 899 1636 c 1,23,24
 911 1643 911 1643 944.5 1653 c 128,-1,25
 978 1663 978 1663 1024 1683 c 1,26,-1
 1069 1700 l 1,0,1
1122 1434 m 1,27,28
 1214 1444 1214 1444 1272 1444 c 0,29,30
 1320 1444 1320 1444 1403.5 1440 c 128,-1,31
 1487 1436 1487 1436 1501 1436 c 0,32,33
 1538 1436 1538 1436 1552 1434 c 1,34,35
 1574 1434 1574 1434 1577 1378 c 1,36,37
 1577 1352 1577 1352 1579 1308 c 128,-1,38
 1581 1264 1581 1264 1581 1241 c 0,39,40
 1581 1174 1581 1174 1579 1147 c 1,41,42
 1581 1132 1581 1132 1576.5 1124 c 128,-1,43
 1572 1116 1572 1116 1562.5 1115.5 c 128,-1,44
 1553 1115 1553 1115 1544.5 1116.5 c 128,-1,45
 1536 1118 1536 1118 1524 1121.5 c 128,-1,46
 1512 1125 1512 1125 1509 1126 c 0,47,48
 1471 1133 1471 1133 1329 1133 c 0,49,50
 1304 1133 1304 1133 1252 1135 c 128,-1,51
 1200 1137 1200 1137 1174 1137 c 0,52,53
 1136 1137 1136 1137 1118 1135 c 128,-1,54
 1100 1133 1100 1133 1057 1133 c 2,55,-1
 901 1133 l 2,56,57
 883 1133 883 1133 883 1118 c 0,58,59
 883 1116 883 1116 887 1092 c 0,60,61
 887 1087 887 1087 903 895 c 1,62,-1
 918 774 l 2,63,64
 919 759 919 759 928 709 c 1,65,66
 944 707 944 707 983 707 c 1,67,68
 1001 705 1001 705 1047 705 c 2,69,-1
 1126 705 l 2,70,71
 1167 705 1167 705 1244.5 709 c 128,-1,72
 1322 713 1322 713 1343 713 c 0,73,74
 1371 713 1371 713 1403.5 710 c 128,-1,75
 1436 707 1436 707 1444 707 c 0,76,77
 1447 707 1447 707 1454 708 c 128,-1,78
 1461 709 1461 709 1464 709 c 0,79,80
 1493 709 1493 709 1493 659 c 2,81,-1
 1493 618 l 1,82,83
 1489 582 1489 582 1489 575 c 0,84,85
 1489 566 1489 566 1491 546.5 c 128,-1,86
 1493 527 1493 527 1493 510 c 2,87,-1
 1493 498 l 2,88,89
 1493 486 1493 486 1488.5 481.5 c 128,-1,90
 1484 477 1484 477 1478 478 c 128,-1,91
 1472 479 1472 479 1460 481 c 128,-1,92
 1448 483 1448 483 1440 483 c 0,93,94
 1436 483 1436 483 1374 485 c 128,-1,95
 1312 487 1312 487 1235 487 c 0,96,97
 1177 487 1177 487 1122.5 483 c 128,-1,98
 1068 479 1068 479 1035 475 c 128,-1,99
 1002 471 1002 471 995 471 c 0,100,101
 973 471 973 471 969 473 c 1,102,103
 958 473 958 473 956 475 c 1,104,-1
 981 270 l 1,105,106
 996 270 996 270 1004 272 c 1,107,108
 1010 272 1010 272 1029 273 c 128,-1,109
 1048 274 1048 274 1061 274 c 0,110,111
 1079 274 1079 274 1163.5 275 c 128,-1,112
 1248 276 1248 276 1300 276 c 0,113,114
 1332 276 1332 276 1425 274 c 128,-1,115
 1518 272 1518 272 1561 272 c 0,116,117
 1618 272 1618 272 1636 274 c 1,118,119
 1676 275 1676 275 1690.5 262 c 128,-1,120
 1705 249 1705 249 1710 219 c 1,121,-1
 1710 47 l 1,122,123
 1714 36 1714 36 1710.5 28.5 c 128,-1,124
 1707 21 1707 21 1707.5 16 c 128,-1,125
 1708 11 1708 11 1701 8 c 128,-1,126
 1694 5 1694 5 1691 3.5 c 128,-1,127
 1688 2 1688 2 1678 1.5 c 128,-1,128
 1668 1 1668 1 1661.5 1 c 128,-1,129
 1655 1 1655 1 1641.5 1.5 c 128,-1,130
 1628 2 1628 2 1618 2 c 0,131,132
 1588 2 1588 2 1447 4 c 128,-1,133
 1306 6 1306 6 1255 6 c 0,134,135
 1202 6 1202 6 1167 4 c 1,136,-1
 879 0 l 2,137,138
 862 0 862 0 860 18 c 0,139,140
 856 44 856 44 852 92 c 1,141,142
 849 110 849 110 846 143 c 128,-1,143
 843 176 843 176 838 215 c 1,144,145
 837 240 837 240 823 338 c 1,146,-1
 811 471 l 1,147,148
 805 494 805 494 800.5 499 c 128,-1,149
 796 504 796 504 784 504 c 0,150,151
 741 504 741 504 721 502 c 0,152,153
 651 498 651 498 633 498 c 1,154,155
 623 496 623 496 573 496 c 2,156,-1
 354 496 l 1,157,-1
 350 496 l 2,158,159
 340 496 340 496 328 473 c 1,160,-1
 319 453 l 1,161,-1
 303 414 l 1,162,163
 296 400 296 400 257 307 c 128,-1,164
 218 214 218 214 213 205 c 1,165,166
 196 159 196 159 182 137 c 1,167,168
 178 133 178 133 173.5 123.5 c 128,-1,169
 169 114 169 114 162 98 c 128,-1,170
 155 82 155 82 150 72 c 2,171,-1
 125 18 l 2,172,173
 119 6 119 6 115 3 c 128,-1,174
 111 0 111 0 98 0 c 2,175,-1
 57 0 l 2,176,177
 45 0 45 0 45 8 c 0,178,179
 45 11 45 11 53 27 c 0,180,181
 53 29 53 29 57 37 c 2,182,-1
 72 66 l 1,183,184
 76 79 76 79 88 105 c 128,-1,185
 100 131 100 131 104 141 c 0,186,187
 107 147 107 147 126.5 183 c 128,-1,188
 146 219 146 219 154 242 c 0,189,190
 164 275 164 275 221 391 c 1,191,192
 302 544 302 544 334 627 c 1,193,194
 341 642 341 642 428 821 c 1,195,-1
 526 1032 l 1,196,197
 598 1170 598 1170 602 1176 c 0,198,199
 603 1179 603 1179 621.5 1211 c 128,-1,200
 640 1243 640 1243 651 1266 c 2,201,-1
 682 1325 l 1,202,-1
 707 1376 l 2,203,204
 730 1425 730 1425 751 1450 c 128,-1,205
 772 1475 772 1475 799 1475 c 0,206,207
 813 1475 813 1475 819 1444 c 1,208,209
 819 1436 819 1436 821 1432 c 1,210,-1
 862 1427 l 2,211,212
 885 1425 885 1425 967 1425 c 0,213,214
 1013 1425 1013 1425 1040 1427 c 2,215,-1
 1122 1434 l 1,27,28
758 637 m 2,216,217
 786 637 786 637 786 655 c 0,218,219
 786 659 786 659 783.5 673 c 128,-1,220
 781 687 781 687 780 696 c 0,221,222
 780 697 780 697 777 737 c 128,-1,223
 774 777 774 777 770 803 c 2,224,-1
 762 870 l 2,225,226
 762 875 762 875 754 928 c 1,227,228
 735 1128 735 1128 735 1182 c 1,229,230
 733 1194 733 1194 730 1224.5 c 128,-1,231
 727 1255 727 1255 724 1272.5 c 128,-1,232
 721 1290 721 1290 717 1290 c 0,233,234
 715 1290 715 1290 711 1284.5 c 128,-1,235
 707 1279 707 1279 701.5 1268 c 128,-1,236
 696 1257 696 1257 690.5 1246 c 128,-1,237
 685 1235 685 1235 677 1218 c 128,-1,238
 669 1201 669 1201 664 1190 c 2,239,-1
 635 1135 l 1,240,241
 536 927 536 927 528 911 c 0,242,243
 527 909 527 909 496.5 842.5 c 128,-1,244
 466 776 466 776 444 730.5 c 128,-1,245
 422 685 422 685 410 666 c 1,246,247
 403 652 403 652 403 647 c 0,248,249
 403 640 403 640 406.5 636.5 c 128,-1,250
 410 633 410 633 417 631.5 c 128,-1,251
 424 630 424 630 430 630 c 128,-1,252
 436 630 436 630 445 630.5 c 128,-1,253
 454 631 454 631 457 631 c 2,254,-1
 479 631 l 2,255,256
 497 631 497 631 532 633 c 128,-1,257
 567 635 567 635 575 635 c 1,258,259
 583 637 583 637 610 637 c 2,260,-1
 758 637 l 2,216,217
EndSplineSet
Validated: 1
Substitution2: "Single Substitution lookup 21 subtable" aeacute
Substitution2: "'aalt' Access All Alternates lookup 0 subtable" aeacute
Position2: "'cpsp' Capital Spacing lookup 0 subtable" dx=10 dy=0 dh=20 dv=0
EndChar

StartChar: B
Encoding: 66 66 14
Width: 1048
Flags: MW
HStem: -14 45 -8 39<468 549> 678 61 1401 59<403 497>
VStem: 127 262<43 303> 129 266<518 817 601 817> 778 76<1007 1229> 860 129<199 380>
LayerCount: 2
Fore
SplineSet
618 713 m 1,0,1
 637 706 637 706 653.5 699.5 c 128,-1,2
 670 693 670 693 710.5 672.5 c 128,-1,3
 751 652 751 652 783.5 630 c 128,-1,4
 816 608 816 608 856.5 570 c 128,-1,5
 897 532 897 532 924 490.5 c 128,-1,6
 951 449 951 449 970 390 c 128,-1,7
 989 331 989 331 989 266 c 0,8,9
 989 -12 989 -12 521.031752062 -8.07446846373 c 0,10,11
 512 -8 512 -8 508 -8 c 0,12,13
 464 -8 464 -8 333.5 -11 c 128,-1,14
 203 -14 203 -14 184 -14 c 0,15,16
 150 -14 150 -14 138.5 6.5 c 128,-1,17
 127 27 127 27 127 63 c 2,18,-1
 129 518 l 1,19,-1
 129 616 l 2,20,21
 129 695 129 695 135 758 c 1,22,23
 138 813 138 813 141 1013 c 128,-1,24
 144 1213 144 1213 147 1243 c 0,25,26
 150 1267 150 1267 150 1300 c 0,27,28
 150 1368 150 1368 143 1403 c 1,29,30
 141 1407 141 1407 141 1413 c 0,31,32
 141 1426 141 1426 164 1432 c 1,33,34
 183 1438 183 1438 271.5 1449 c 128,-1,35
 360 1460 360 1460 432 1460 c 128,-1,36
 504 1460 504 1460 561.5 1451.5 c 128,-1,37
 619 1443 619 1443 675.5 1419 c 128,-1,38
 732 1395 732 1395 769.5 1354.5 c 128,-1,39
 807 1314 807 1314 830.5 1246.5 c 128,-1,40
 854 1179 854 1179 854 1087 c 0,41,42
 854 891 854 891 735 780 c 1,43,44
 683 734 683 734 618 713 c 1,0,1
395 817 m 2,45,46
 395 798 395 798 393 780.5 c 128,-1,47
 391 763 391 763 391 758 c 0,48,49
 391 747 391 747 393.5 743 c 128,-1,50
 396 739 396 739 406 739 c 0,51,52
 414 739 414 739 432 740.5 c 128,-1,53
 450 742 450 742 486.5 750 c 128,-1,54
 523 758 523 758 559.5 771 c 128,-1,55
 596 784 596 784 636.5 809.5 c 128,-1,56
 677 835 677 835 707.5 868.5 c 128,-1,57
 738 902 738 902 758 954.5 c 128,-1,58
 778 1007 778 1007 778 1071 c 0,59,60
 778 1137 778 1137 766.5 1188.5 c 128,-1,61
 755 1240 755 1240 737 1274.5 c 128,-1,62
 719 1309 719 1309 688.5 1333 c 128,-1,63
 658 1357 658 1357 629.5 1370 c 128,-1,64
 601 1383 601 1383 558 1390.5 c 128,-1,65
 515 1398 515 1398 483 1399.5 c 128,-1,66
 451 1401 451 1401 403 1401 c 1,67,-1
 399 1270 l 2,68,69
 395 1122 395 1122 395 1051 c 2,70,-1
 395 817 l 2,45,46
459 31 m 0,71,72
 659 31 659 31 759.5 95 c 128,-1,73
 860 159 860 159 860 268 c 0,74,75
 860 543 860 543 625 641 c 1,76,77
 521 681 521 681 389 678 c 1,78,79
 387 672 387 672 387 662 c 1,80,81
 385 652 385 652 385 614 c 0,82,83
 385 590 385 590 389 490 c 128,-1,84
 393 390 393 390 393 373 c 0,85,86
 393 355 393 355 391 330 c 128,-1,87
 389 305 389 305 389 279 c 128,-1,88
 389 253 389 253 393 166.5 c 128,-1,89
 397 80 397 80 397 63 c 0,90,91
 397 51 397 51 399 44 c 128,-1,92
 401 37 401 37 408.5 34 c 128,-1,93
 416 31 416 31 419.5 30.5 c 128,-1,94
 423 30 423 30 438 30.5 c 128,-1,95
 453 31 453 31 459 31 c 0,71,72
EndSplineSet
Validated: 524321
Substitution2: "Single Substitution lookup 20 subtable" b
Substitution2: "'aalt' Access All Alternates lookup 0 subtable" b
Position2: "'cpsp' Capital Spacing lookup 0 subtable" dx=10 dy=0 dh=20 dv=0
EndChar

StartChar: C
Encoding: 67 67 15
Width: 1081
Flags: MW
HStem: -25 299<555 612 555 733> 1114 328<518 589>
VStem: 76 266<512 842 507 938>
LayerCount: 2
Fore
SplineSet
956 274 m 2,0,1
 961 272 961 272 973 266.5 c 128,-1,2
 985 261 985 261 990 259 c 128,-1,3
 995 257 995 257 1002 252.5 c 128,-1,4
 1009 248 1009 248 1011.5 243.5 c 128,-1,5
 1014 239 1014 239 1014 233 c 0,6,7
 1014 223 1014 223 1008 211 c 0,8,9
 996 190 996 190 982.5 170.5 c 128,-1,10
 969 151 969 151 931.5 112 c 128,-1,11
 894 73 894 73 852 46 c 128,-1,12
 810 19 810 19 742.5 -3 c 128,-1,13
 675 -25 675 -25 600 -25 c 0,14,15
 500 -25 500 -25 405 33 c 128,-1,16
 310 91 310 91 237.5 189.5 c 128,-1,17
 165 288 165 288 120.5 429 c 128,-1,18
 76 570 76 570 76 725 c 0,19,20
 76 879 76 879 118.5 1015.5 c 128,-1,21
 161 1152 161 1152 229.5 1244 c 128,-1,22
 298 1336 298 1336 383.5 1389 c 128,-1,23
 469 1442 469 1442 555 1442 c 0,24,25
 619 1442 619 1442 677.5 1426.5 c 128,-1,26
 736 1411 736 1411 774 1390 c 128,-1,27
 812 1369 812 1369 845.5 1341.5 c 128,-1,28
 879 1314 879 1314 893.5 1297.5 c 128,-1,29
 908 1281 908 1281 918 1266 c 1,30,31
 940 1237 940 1237 940 1223 c 128,-1,32
 940 1209 940 1209 918 1190 c 1,33,34
 822 1113 822 1113 782 1061 c 0,35,36
 740 1008 740 1008 719 1008 c 0,37,38
 703 1008 703 1008 686 1028 c 0,39,40
 683 1031 683 1031 672 1043.5 c 128,-1,41
 661 1056 661 1056 657.5 1060 c 128,-1,42
 654 1064 654 1064 644 1074 c 128,-1,43
 634 1084 634 1084 629 1087.5 c 128,-1,44
 624 1091 624 1091 614.5 1098 c 128,-1,45
 605 1105 605 1105 598 1107 c 128,-1,46
 591 1109 591 1109 581.5 1111.5 c 128,-1,47
 572 1114 572 1114 563 1114 c 0,48,49
 534 1114 534 1114 505 1101 c 128,-1,50
 476 1088 476 1088 446.5 1055.5 c 128,-1,51
 417 1023 417 1023 394 974.5 c 128,-1,52
 371 926 371 926 356.5 848.5 c 128,-1,53
 342 771 342 771 342 674 c 0,54,55
 342 579 342 579 362 504.5 c 128,-1,56
 382 430 382 430 410.5 388.5 c 128,-1,57
 439 347 439 347 474.5 319.5 c 128,-1,58
 510 292 510 292 536.5 283 c 128,-1,59
 563 274 563 274 584 274 c 0,60,61
 647 274 647 274 727 354 c 0,62,63
 730 357 730 357 734.5 361.5 c 128,-1,64
 739 366 739 366 741.5 368.5 c 128,-1,65
 744 371 744 371 747 374 c 128,-1,66
 750 377 750 377 752.5 378 c 128,-1,67
 755 379 755 379 758 379 c 0,68,69
 769 379 769 379 782 371 c 2,70,-1
 956 274 l 2,0,1
EndSplineSet
Validated: 1
Substitution2: "Single Substitution lookup 20 subtable" c
Substitution2: "'aalt' Access All Alternates lookup 0 subtable" c
Position2: "'cpsp' Capital Spacing lookup 0 subtable" dx=10 dy=0 dh=20 dv=0
EndChar

StartChar: Cacute
Encoding: 262 262 16
Width: 1081
Flags: MW
HStem: -25 299<555 612 555 733> 1114 328<518 589>
VStem: 76 266<512 842 507 938>
LayerCount: 2
Fore
SplineSet
674 1700 m 1,0,1
 718 1714 718 1714 745 1714 c 1,2,3
 777 1718 777 1718 786 1718 c 0,4,5
 809 1718 809 1718 818 1705.5 c 128,-1,6
 827 1693 827 1693 821 1661 c 1,7,8
 814 1638 814 1638 780 1618 c 128,-1,9
 746 1598 746 1598 721 1591 c 1,10,11
 616 1556 616 1556 547 1524 c 1,12,13
 492 1505 492 1505 481 1505 c 0,14,15
 462 1505 462 1505 438 1520 c 1,16,17
 397 1534 397 1534 397 1565 c 0,18,19
 397 1569 397 1569 401 1585 c 0,20,21
 404 1594 404 1594 442.5 1611.5 c 128,-1,22
 481 1629 481 1629 504 1636 c 1,23,24
 516 1643 516 1643 549.5 1653 c 128,-1,25
 583 1663 583 1663 629 1683 c 1,26,-1
 674 1700 l 1,0,1
956 274 m 2,27,28
 961 272 961 272 973 266.5 c 128,-1,29
 985 261 985 261 990 259 c 128,-1,30
 995 257 995 257 1002 252.5 c 128,-1,31
 1009 248 1009 248 1011.5 243.5 c 128,-1,32
 1014 239 1014 239 1014 233 c 0,33,34
 1014 223 1014 223 1008 211 c 0,35,36
 996 190 996 190 982.5 170.5 c 128,-1,37
 969 151 969 151 931.5 112 c 128,-1,38
 894 73 894 73 852 46 c 128,-1,39
 810 19 810 19 742.5 -3 c 128,-1,40
 675 -25 675 -25 600 -25 c 0,41,42
 500 -25 500 -25 405 33 c 128,-1,43
 310 91 310 91 237.5 189.5 c 128,-1,44
 165 288 165 288 120.5 429 c 128,-1,45
 76 570 76 570 76 725 c 0,46,47
 76 879 76 879 118.5 1015.5 c 128,-1,48
 161 1152 161 1152 229.5 1244 c 128,-1,49
 298 1336 298 1336 383.5 1389 c 128,-1,50
 469 1442 469 1442 555 1442 c 0,51,52
 619 1442 619 1442 677.5 1426.5 c 128,-1,53
 736 1411 736 1411 774 1390 c 128,-1,54
 812 1369 812 1369 845.5 1341.5 c 128,-1,55
 879 1314 879 1314 893.5 1297.5 c 128,-1,56
 908 1281 908 1281 918 1266 c 1,57,58
 940 1237 940 1237 940 1223 c 128,-1,59
 940 1209 940 1209 918 1190 c 1,60,61
 822 1113 822 1113 782 1061 c 0,62,63
 740 1008 740 1008 719 1008 c 0,64,65
 703 1008 703 1008 686 1028 c 0,66,67
 683 1031 683 1031 672 1043.5 c 128,-1,68
 661 1056 661 1056 657.5 1060 c 128,-1,69
 654 1064 654 1064 644 1074 c 128,-1,70
 634 1084 634 1084 629 1087.5 c 128,-1,71
 624 1091 624 1091 614.5 1098 c 128,-1,72
 605 1105 605 1105 598 1107 c 128,-1,73
 591 1109 591 1109 581.5 1111.5 c 128,-1,74
 572 1114 572 1114 563 1114 c 0,75,76
 534 1114 534 1114 505 1101 c 128,-1,77
 476 1088 476 1088 446.5 1055.5 c 128,-1,78
 417 1023 417 1023 394 974.5 c 128,-1,79
 371 926 371 926 356.5 848.5 c 128,-1,80
 342 771 342 771 342 674 c 0,81,82
 342 579 342 579 362 504.5 c 128,-1,83
 382 430 382 430 410.5 388.5 c 128,-1,84
 439 347 439 347 474.5 319.5 c 128,-1,85
 510 292 510 292 536.5 283 c 128,-1,86
 563 274 563 274 584 274 c 0,87,88
 647 274 647 274 727 354 c 0,89,90
 730 357 730 357 734.5 361.5 c 128,-1,91
 739 366 739 366 741.5 368.5 c 128,-1,92
 744 371 744 371 747 374 c 128,-1,93
 750 377 750 377 752.5 378 c 128,-1,94
 755 379 755 379 758 379 c 0,95,96
 769 379 769 379 782 371 c 2,97,-1
 956 274 l 2,27,28
EndSplineSet
Validated: 1
Substitution2: "Single Substitution lookup 20 subtable" cacute
Substitution2: "'locl' Localized Forms in Latin lookup 11 subtable" Cacute.loclPLK
AlternateSubs2: "'aalt' Access All Alternates lookup 1 subtable" Cacute.loclPLK cacute
Position2: "'cpsp' Capital Spacing lookup 0 subtable" dx=10 dy=0 dh=20 dv=0
EndChar

StartChar: Ccaron
Encoding: 268 268 17
Width: 1081
Flags: MW
HStem: -25 299<555 612 555 733> 1114 328<518 589>
VStem: 76 266<512 842 507 938>
LayerCount: 2
Fore
SplineSet
850 1620 m 2,0,1
 846 1618 846 1618 835 1613 c 128,-1,2
 824 1608 824 1608 816 1604 c 128,-1,3
 808 1600 808 1600 790.5 1588.5 c 128,-1,4
 773 1577 773 1577 752 1561 c 1,5,6
 669 1513 669 1513 645 1507 c 1,7,8
 626 1499 626 1499 608 1499 c 1,9,10
 600 1497 600 1497 586 1497 c 0,11,12
 575 1497 575 1497 565 1499.5 c 128,-1,13
 555 1502 555 1502 549 1505 c 128,-1,14
 543 1508 543 1508 530 1515.5 c 128,-1,15
 517 1523 517 1523 508 1528 c 1,16,17
 497 1536 497 1536 371 1616 c 1,18,-1
 362 1621.5 l 2,19,20
 353 1627 353 1627 348.5 1630 c 128,-1,21
 344 1633 344 1633 335 1639 c 128,-1,22
 326 1645 326 1645 320.5 1650.5 c 128,-1,23
 315 1656 315 1656 309.5 1662 c 128,-1,24
 304 1668 304 1668 302 1674 c 128,-1,25
 300 1680 300 1680 301 1686 c 0,26,27
 309 1716 309 1716 334 1716 c 0,28,29
 349 1716 349 1716 389 1702 c 1,30,-1
 444 1688 l 1,31,32
 473 1677 473 1677 516 1651 c 1,33,-1
 582 1620 l 1,34,35
 648 1648 648 1648 674 1663 c 1,36,37
 721 1686 721 1686 793 1706 c 1,38,39
 834 1712 834 1712 870 1712 c 0,40,41
 893 1712 893 1712 906.5 1702 c 128,-1,42
 920 1692 920 1692 920 1679 c 0,43,44
 920 1665 920 1665 903 1655 c 1,45,-1
 850 1620 l 2,0,1
956 274 m 2,46,47
 961 272 961 272 973 266.5 c 128,-1,48
 985 261 985 261 990 259 c 128,-1,49
 995 257 995 257 1002 252.5 c 128,-1,50
 1009 248 1009 248 1011.5 243.5 c 128,-1,51
 1014 239 1014 239 1014 233 c 0,52,53
 1014 223 1014 223 1008 211 c 0,54,55
 996 190 996 190 982.5 170.5 c 128,-1,56
 969 151 969 151 931.5 112 c 128,-1,57
 894 73 894 73 852 46 c 128,-1,58
 810 19 810 19 742.5 -3 c 128,-1,59
 675 -25 675 -25 600 -25 c 0,60,61
 500 -25 500 -25 405 33 c 128,-1,62
 310 91 310 91 237.5 189.5 c 128,-1,63
 165 288 165 288 120.5 429 c 128,-1,64
 76 570 76 570 76 725 c 0,65,66
 76 879 76 879 118.5 1015.5 c 128,-1,67
 161 1152 161 1152 229.5 1244 c 128,-1,68
 298 1336 298 1336 383.5 1389 c 128,-1,69
 469 1442 469 1442 555 1442 c 0,70,71
 619 1442 619 1442 677.5 1426.5 c 128,-1,72
 736 1411 736 1411 774 1390 c 128,-1,73
 812 1369 812 1369 845.5 1341.5 c 128,-1,74
 879 1314 879 1314 893.5 1297.5 c 128,-1,75
 908 1281 908 1281 918 1266 c 1,76,77
 940 1237 940 1237 940 1223 c 128,-1,78
 940 1209 940 1209 918 1190 c 1,79,80
 822 1113 822 1113 782 1061 c 0,81,82
 740 1008 740 1008 719 1008 c 0,83,84
 703 1008 703 1008 686 1028 c 0,85,86
 683 1031 683 1031 672 1043.5 c 128,-1,87
 661 1056 661 1056 657.5 1060 c 128,-1,88
 654 1064 654 1064 644 1074 c 128,-1,89
 634 1084 634 1084 629 1087.5 c 128,-1,90
 624 1091 624 1091 614.5 1098 c 128,-1,91
 605 1105 605 1105 598 1107 c 128,-1,92
 591 1109 591 1109 581.5 1111.5 c 128,-1,93
 572 1114 572 1114 563 1114 c 0,94,95
 534 1114 534 1114 505 1101 c 128,-1,96
 476 1088 476 1088 446.5 1055.5 c 128,-1,97
 417 1023 417 1023 394 974.5 c 128,-1,98
 371 926 371 926 356.5 848.5 c 128,-1,99
 342 771 342 771 342 674 c 0,100,101
 342 579 342 579 362 504.5 c 128,-1,102
 382 430 382 430 410.5 388.5 c 128,-1,103
 439 347 439 347 474.5 319.5 c 128,-1,104
 510 292 510 292 536.5 283 c 128,-1,105
 563 274 563 274 584 274 c 0,106,107
 647 274 647 274 727 354 c 0,108,109
 730 357 730 357 734.5 361.5 c 128,-1,110
 739 366 739 366 741.5 368.5 c 128,-1,111
 744 371 744 371 747 374 c 128,-1,112
 750 377 750 377 752.5 378 c 128,-1,113
 755 379 755 379 758 379 c 0,114,115
 769 379 769 379 782 371 c 2,116,-1
 956 274 l 2,46,47
EndSplineSet
Validated: 524289
Substitution2: "Single Substitution lookup 20 subtable" ccaron
Substitution2: "'aalt' Access All Alternates lookup 0 subtable" ccaron
Position2: "'cpsp' Capital Spacing lookup 0 subtable" dx=10 dy=0 dh=20 dv=0
EndChar

StartChar: Ccedilla
Encoding: 199 199 18
Width: 1042
Flags: MW
HStem: -324 109<509 526 509 560> -94 68<579 581> 37 299<593 612 584 733> 1114 328<540 589>
VStem: 76 266<673 771 569 845> 430 82 610 127<-162 -142>
LayerCount: 2
Fore
SplineSet
956 336 m 2,0,1
 961 334 961 334 973 328.5 c 128,-1,2
 985 323 985 323 990 321 c 128,-1,3
 995 319 995 319 1002 314.5 c 128,-1,4
 1009 310 1009 310 1011.5 305.5 c 128,-1,5
 1014 301 1014 301 1014 295 c 0,6,7
 1014 284 1014 284 1008 272 c 0,8,9
 996 251 996 251 982.5 231.5 c 128,-1,10
 969 212 969 212 931.5 173.5 c 128,-1,11
 894 135 894 135 852 107.5 c 128,-1,12
 810 80 810 80 742.5 58.5 c 128,-1,13
 675 37 675 37 600 37 c 0,14,15
 571 37 571 37 559 39 c 1,16,17
 522 -10 522 -10 512 -45 c 1,18,19
 534 -34 534 -34 550 -30.5 c 128,-1,20
 566 -27 566 -27 610 -27 c 0,21,22
 737 -27 737 -27 737 -170 c 1,23,24
 736 -200 736 -200 723.5 -225 c 128,-1,25
 711 -250 711 -250 701.5 -258.5 c 128,-1,26
 692 -267 692 -267 674 -281 c 0,27,28
 665 -289 665 -289 643 -303 c 0,29,30
 641 -304 641 -304 636 -306.5 c 128,-1,31
 631 -309 631 -309 628 -310 c 128,-1,32
 625 -311 625 -311 619.5 -313 c 128,-1,33
 614 -315 614 -315 609.5 -316 c 128,-1,34
 605 -317 605 -317 598 -318.5 c 128,-1,35
 591 -320 591 -320 583 -321 c 128,-1,36
 575 -322 575 -322 565 -322.5 c 128,-1,37
 555 -323 555 -323 542 -323.5 c 128,-1,38
 529 -324 529 -324 514 -324 c 0,39,40
 464 -324 464 -324 420.5 -312.5 c 128,-1,41
 377 -301 377 -301 377 -285 c 0,42,43
 377 -259 377 -259 393 -184 c 1,44,45
 393 -176 393 -176 399 -176 c 0,46,47
 403 -176 403 -176 409 -179.5 c 128,-1,48
 415 -183 415 -183 426.5 -190.5 c 128,-1,49
 438 -198 438 -198 449 -203 c 1,50,51
 490 -215 490 -215 526 -215 c 1,52,53
 576.463788472 -211.191412191 576.463788472 -211.191412191 587.761008868 -203.585983898 c 0,54,55
 602.636990972 -192.226800507 602.636990972 -192.226800507 610 -162 c 1,56,57
 610 -94 610 -94 561 -94 c 0,58,59
 543 -94 543 -94 521 -108.5 c 128,-1,60
 499 -123 499 -123 494 -123 c 0,61,62
 457 -123 457 -123 444 -119.5 c 128,-1,63
 431 -116 431 -116 430 -106 c 1,64,65
 430 -90 430 -90 431.5 -80.5 c 128,-1,66
 433 -71 433 -71 437.5 -57 c 128,-1,67
 442 -43 442 -43 444 -33 c 0,68,69
 448 -9 448 -9 473 61 c 1,70,71
 342 110 342 110 238 252 c 0,72,73
 164 353 164 353 120 490.5 c 128,-1,74
 76 628 76 628 76 766 c 0,75,76
 76 884 76 884 118.5 1016.5 c 128,-1,77
 161 1149 161 1149 229 1243 c 128,-1,78
 297 1337 297 1337 383 1389.5 c 128,-1,79
 469 1442 469 1442 555 1442 c 0,80,81
 619 1442 619 1442 677.5 1426.5 c 128,-1,82
 736 1411 736 1411 774 1390 c 128,-1,83
 812 1369 812 1369 845.5 1341.5 c 128,-1,84
 879 1314 879 1314 893.5 1297.5 c 128,-1,85
 908 1281 908 1281 918 1266 c 1,86,87
 940 1237 940 1237 940 1223 c 128,-1,88
 940 1209 940 1209 918 1190 c 1,89,90
 822 1113 822 1113 782 1061 c 0,91,92
 740 1008 740 1008 719 1008 c 0,93,94
 703 1008 703 1008 686 1028 c 0,95,96
 683 1031 683 1031 672 1043.5 c 128,-1,97
 661 1056 661 1056 657.5 1060 c 128,-1,98
 654 1064 654 1064 644 1074 c 128,-1,99
 634 1084 634 1084 629 1087.5 c 128,-1,100
 624 1091 624 1091 614.5 1098 c 128,-1,101
 605 1105 605 1105 598 1107 c 128,-1,102
 591 1109 591 1109 581.5 1111.5 c 128,-1,103
 572 1114 572 1114 563 1114 c 0,104,105
 483 1114 483 1114 418 1020 c 1,106,107
 385 968 385 968 363.5 883 c 128,-1,108
 342 798 342 798 342 715 c 128,-1,109
 342 632 342 632 361.5 563 c 128,-1,110
 381 494 381 494 410 452 c 128,-1,111
 439 410 439 410 473 381.5 c 128,-1,112
 507 353 507 353 536 343 c 128,-1,113
 565 333 565 333 584 336 c 1,114,115
 647 336 647 336 727 416 c 0,116,117
 730 419 730 419 734.5 424 c 128,-1,118
 739 429 739 429 741 431 c 128,-1,119
 743 433 743 433 746.5 435.5 c 128,-1,120
 750 438 750 438 752.5 439 c 128,-1,121
 755 440 755 440 758 440 c 0,122,123
 769 440 769 440 782 432 c 2,124,-1
 956 336 l 2,0,1
EndSplineSet
Validated: 524289
Substitution2: "Single Substitution lookup 20 subtable" ccedilla
Substitution2: "'aalt' Access All Alternates lookup 0 subtable" ccedilla
Position2: "'cpsp' Capital Spacing lookup 0 subtable" dx=10 dy=0 dh=20 dv=0
EndChar

StartChar: Ccircumflex
Encoding: 264 264 19
Width: 1081
Flags: MW
HStem: -25 299<555 612 555 733> 1114 328<518 589>
VStem: 76 266<512 842 507 938>
LayerCount: 2
Fore
SplineSet
348 1593 m 2,0,1
 351 1594 351 1594 363 1599.5 c 128,-1,2
 375 1605 375 1605 382.5 1609 c 128,-1,3
 390 1613 390 1613 407.5 1625 c 128,-1,4
 425 1637 425 1637 446 1653 c 1,5,6
 526 1699 526 1699 553 1706 c 1,7,8
 572 1714 572 1714 590 1714 c 1,9,10
 598 1716 598 1716 612 1716 c 0,11,12
 623 1716 623 1716 633 1713.5 c 128,-1,13
 643 1711 643 1711 648.5 1708.5 c 128,-1,14
 654 1706 654 1706 668 1698 c 128,-1,15
 682 1690 682 1690 690 1686 c 1,16,17
 715 1668 715 1668 827 1597 c 0,18,19
 828 1596 828 1596 836 1591.5 c 128,-1,20
 844 1587 844 1587 849 1583.5 c 128,-1,21
 854 1580 854 1580 862.5 1574 c 128,-1,22
 871 1568 871 1568 877 1563 c 128,-1,23
 883 1558 883 1558 888.5 1552 c 128,-1,24
 894 1546 894 1546 896 1540 c 128,-1,25
 898 1534 898 1534 897 1528 c 0,26,27
 889 1497 889 1497 864 1497 c 0,28,29
 849 1497 849 1497 809 1511 c 1,30,-1
 754 1526 l 1,31,32
 725 1537 725 1537 682 1563 c 1,33,-1
 616 1593 l 1,34,-1
 522 1550 l 1,35,36
 478 1527 478 1527 406 1507 c 1,37,38
 365 1501 365 1501 328 1501 c 0,39,40
 305 1501 305 1501 292 1511 c 128,-1,41
 279 1521 279 1521 279 1534 c 0,42,43
 279 1551 279 1551 293 1559 c 2,44,-1
 348 1593 l 2,0,1
956 274 m 2,45,46
 961 272 961 272 973 266.5 c 128,-1,47
 985 261 985 261 990 259 c 128,-1,48
 995 257 995 257 1002 252.5 c 128,-1,49
 1009 248 1009 248 1011.5 243.5 c 128,-1,50
 1014 239 1014 239 1014 233 c 0,51,52
 1014 223 1014 223 1008 211 c 0,53,54
 996 190 996 190 982.5 170.5 c 128,-1,55
 969 151 969 151 931.5 112 c 128,-1,56
 894 73 894 73 852 46 c 128,-1,57
 810 19 810 19 742.5 -3 c 128,-1,58
 675 -25 675 -25 600 -25 c 0,59,60
 500 -25 500 -25 405 33 c 128,-1,61
 310 91 310 91 237.5 189.5 c 128,-1,62
 165 288 165 288 120.5 429 c 128,-1,63
 76 570 76 570 76 725 c 0,64,65
 76 879 76 879 118.5 1015.5 c 128,-1,66
 161 1152 161 1152 229.5 1244 c 128,-1,67
 298 1336 298 1336 383.5 1389 c 128,-1,68
 469 1442 469 1442 555 1442 c 0,69,70
 619 1442 619 1442 677.5 1426.5 c 128,-1,71
 736 1411 736 1411 774 1390 c 128,-1,72
 812 1369 812 1369 845.5 1341.5 c 128,-1,73
 879 1314 879 1314 893.5 1297.5 c 128,-1,74
 908 1281 908 1281 918 1266 c 1,75,76
 940 1237 940 1237 940 1223 c 128,-1,77
 940 1209 940 1209 918 1190 c 1,78,79
 822 1113 822 1113 782 1061 c 0,80,81
 740 1008 740 1008 719 1008 c 0,82,83
 703 1008 703 1008 686 1028 c 0,84,85
 683 1031 683 1031 672 1043.5 c 128,-1,86
 661 1056 661 1056 657.5 1060 c 128,-1,87
 654 1064 654 1064 644 1074 c 128,-1,88
 634 1084 634 1084 629 1087.5 c 128,-1,89
 624 1091 624 1091 614.5 1098 c 128,-1,90
 605 1105 605 1105 598 1107 c 128,-1,91
 591 1109 591 1109 581.5 1111.5 c 128,-1,92
 572 1114 572 1114 563 1114 c 0,93,94
 534 1114 534 1114 505 1101 c 128,-1,95
 476 1088 476 1088 446.5 1055.5 c 128,-1,96
 417 1023 417 1023 394 974.5 c 128,-1,97
 371 926 371 926 356.5 848.5 c 128,-1,98
 342 771 342 771 342 674 c 0,99,100
 342 579 342 579 362 504.5 c 128,-1,101
 382 430 382 430 410.5 388.5 c 128,-1,102
 439 347 439 347 474.5 319.5 c 128,-1,103
 510 292 510 292 536.5 283 c 128,-1,104
 563 274 563 274 584 274 c 0,105,106
 647 274 647 274 727 354 c 0,107,108
 730 357 730 357 734.5 361.5 c 128,-1,109
 739 366 739 366 741.5 368.5 c 128,-1,110
 744 371 744 371 747 374 c 128,-1,111
 750 377 750 377 752.5 378 c 128,-1,112
 755 379 755 379 758 379 c 0,113,114
 769 379 769 379 782 371 c 2,115,-1
 956 274 l 2,45,46
EndSplineSet
Validated: 1
Substitution2: "Single Substitution lookup 20 subtable" ccircumflex
Substitution2: "'aalt' Access All Alternates lookup 0 subtable" ccircumflex
Position2: "'cpsp' Capital Spacing lookup 0 subtable" dx=10 dy=0 dh=20 dv=0
EndChar

StartChar: Cdotaccent
Encoding: 266 266 20
Width: 1081
Flags: MW
HStem: -25 299<555 612 555 733> 1114 328<518 589> 1475 246<567 622 555 623>
VStem: 76 266<512 842 507 938> 471 260<1565 1629>
LayerCount: 2
Fore
SplineSet
731 1610 m 0,0,1
 731 1548 731 1548 687 1511.5 c 128,-1,2
 643 1475 643 1475 596 1475 c 0,3,4
 550 1475 550 1475 510.5 1510 c 128,-1,5
 471 1545 471 1545 471 1599 c 0,6,7
 471 1645 471 1645 505.5 1682.5 c 128,-1,8
 540 1720 540 1720 588 1720 c 0,9,10
 644 1720 644 1720 687.5 1690.5 c 128,-1,11
 731 1661 731 1661 731 1610 c 0,0,1
956 274 m 2,12,13
 961 272 961 272 973 266.5 c 128,-1,14
 985 261 985 261 990 259 c 128,-1,15
 995 257 995 257 1002 252.5 c 128,-1,16
 1009 248 1009 248 1011.5 243.5 c 128,-1,17
 1014 239 1014 239 1014 233 c 0,18,19
 1014 223 1014 223 1008 211 c 0,20,21
 996 190 996 190 982.5 170.5 c 128,-1,22
 969 151 969 151 931.5 112 c 128,-1,23
 894 73 894 73 852 46 c 128,-1,24
 810 19 810 19 742.5 -3 c 128,-1,25
 675 -25 675 -25 600 -25 c 0,26,27
 500 -25 500 -25 405 33 c 128,-1,28
 310 91 310 91 237.5 189.5 c 128,-1,29
 165 288 165 288 120.5 429 c 128,-1,30
 76 570 76 570 76 725 c 0,31,32
 76 879 76 879 118.5 1015.5 c 128,-1,33
 161 1152 161 1152 229.5 1244 c 128,-1,34
 298 1336 298 1336 383.5 1389 c 128,-1,35
 469 1442 469 1442 555 1442 c 0,36,37
 619 1442 619 1442 677.5 1426.5 c 128,-1,38
 736 1411 736 1411 774 1390 c 128,-1,39
 812 1369 812 1369 845.5 1341.5 c 128,-1,40
 879 1314 879 1314 893.5 1297.5 c 128,-1,41
 908 1281 908 1281 918 1266 c 1,42,43
 940 1237 940 1237 940 1223 c 128,-1,44
 940 1209 940 1209 918 1190 c 1,45,46
 822 1113 822 1113 782 1061 c 0,47,48
 740 1008 740 1008 719 1008 c 0,49,50
 703 1008 703 1008 686 1028 c 0,51,52
 683 1031 683 1031 672 1043.5 c 128,-1,53
 661 1056 661 1056 657.5 1060 c 128,-1,54
 654 1064 654 1064 644 1074 c 128,-1,55
 634 1084 634 1084 629 1087.5 c 128,-1,56
 624 1091 624 1091 614.5 1098 c 128,-1,57
 605 1105 605 1105 598 1107 c 128,-1,58
 591 1109 591 1109 581.5 1111.5 c 128,-1,59
 572 1114 572 1114 563 1114 c 0,60,61
 534 1114 534 1114 505 1101 c 128,-1,62
 476 1088 476 1088 446.5 1055.5 c 128,-1,63
 417 1023 417 1023 394 974.5 c 128,-1,64
 371 926 371 926 356.5 848.5 c 128,-1,65
 342 771 342 771 342 674 c 0,66,67
 342 579 342 579 362 504.5 c 128,-1,68
 382 430 382 430 410.5 388.5 c 128,-1,69
 439 347 439 347 474.5 319.5 c 128,-1,70
 510 292 510 292 536.5 283 c 128,-1,71
 563 274 563 274 584 274 c 0,72,73
 647 274 647 274 727 354 c 0,74,75
 730 357 730 357 734.5 361.5 c 128,-1,76
 739 366 739 366 741.5 368.5 c 128,-1,77
 744 371 744 371 747 374 c 128,-1,78
 750 377 750 377 752.5 378 c 128,-1,79
 755 379 755 379 758 379 c 0,80,81
 769 379 769 379 782 371 c 2,82,-1
 956 274 l 2,12,13
EndSplineSet
Validated: 1
Substitution2: "Single Substitution lookup 20 subtable" cdotaccent
Substitution2: "'aalt' Access All Alternates lookup 0 subtable" cdotaccent
Position2: "'cpsp' Capital Spacing lookup 0 subtable" dx=10 dy=0 dh=20 dv=0
EndChar

StartChar: D
Encoding: 68 68 21
Width: 1181
Flags: MW
HStem: 0 43G<164 206> 1384 41G<252 276> 1393 41G<466 585>
VStem: 143 365<896 1129> 698 412<692 798>
LayerCount: 2
Fore
SplineSet
350 1430 m 1,0,1
 436 1434 436 1434 489 1434 c 0,2,3
 534 1434 534 1434 583.5 1425.5 c 128,-1,4
 633 1417 633 1417 695 1393.5 c 128,-1,5
 757 1370 757 1370 813.5 1333 c 128,-1,6
 870 1296 870 1296 925 1234 c 128,-1,7
 980 1172 980 1172 1020.5 1092.5 c 128,-1,8
 1061 1013 1061 1013 1085.5 897.5 c 128,-1,9
 1110 782 1110 782 1110 645 c 0,10,11
 1110 546 1110 546 1090 461 c 128,-1,12
 1070 376 1070 376 1037.5 315.5 c 128,-1,13
 1005 255 1005 255 958.5 205.5 c 128,-1,14
 912 156 912 156 864.5 124 c 128,-1,15
 817 92 817 92 762 68.5 c 128,-1,16
 707 45 707 45 662.5 33 c 128,-1,17
 618 21 618 21 572 14 c 128,-1,18
 526 7 526 7 502 5.5 c 128,-1,19
 478 4 478 4 459 4 c 0,20,21
 415 4 415 4 308.5 2 c 128,-1,22
 202 0 202 0 180 0 c 0,23,24
 141 0 141 0 141 70 c 0,25,26
 141 79 141 79 142 97 c 128,-1,27
 143 115 143 115 143 123 c 0,28,29
 143 148 143 148 140 222 c 128,-1,30
 137 296 137 296 137 317 c 0,31,32
 137 322 137 322 132 423.5 c 128,-1,33
 127 525 127 525 127 621 c 0,34,35
 127 700 127 700 135 832 c 128,-1,36
 143 964 143 964 143 1047 c 0,37,38
 143 1145 143 1145 141 1267 c 128,-1,39
 139 1389 139 1389 139 1395 c 0,40,41
 139 1407 139 1407 147.5 1414 c 128,-1,42
 156 1421 156 1421 174 1423.5 c 128,-1,43
 192 1426 192 1426 205.5 1426.5 c 128,-1,44
 219 1427 219 1427 244 1426 c 128,-1,45
 269 1425 269 1425 276 1425 c 2,46,-1
 350 1430 l 1,0,1
494 438 m 1,47,48
 546 462 546 462 596 512 c 1,49,50
 698 610 698 610 698 745 c 0,51,52
 698 874 698 874 600 952 c 0,53,54
 557 986 557 986 504 1001 c 1,55,56
 508 955 508 955 508 932 c 0,57,58
 508 895 508 895 504 822 c 128,-1,59
 500 749 500 749 500 717 c 0,60,61
 500 663 500 663 496 545 c 0,62,63
 494 510 494 510 494 438 c 1,47,48
EndSplineSet
Validated: 1
Substitution2: "Single Substitution lookup 20 subtable" d
Substitution2: "'aalt' Access All Alternates lookup 0 subtable" d
Position2: "'cpsp' Capital Spacing lookup 0 subtable" dx=10 dy=0 dh=20 dv=0
EndChar

StartChar: DZ
Encoding: 497 497 22
Width: 2494
Flags: MW
HStem: -2 254<1768 1827> 0 43G<164 206> 1278 141 1284 135<1320 1368 1320 1389 1303 1368> 1284 143 1393 41G<466 585>
VStem: 143 365<896 1129> 698 412<692 798>
LayerCount: 2
Fore
SplineSet
350 1430 m 1,0,1
 436 1434 436 1434 489 1434 c 0,2,3
 534 1434 534 1434 583.5 1425.5 c 128,-1,4
 633 1417 633 1417 695 1393.5 c 128,-1,5
 757 1370 757 1370 813.5 1333 c 128,-1,6
 870 1296 870 1296 925 1234 c 128,-1,7
 980 1172 980 1172 1020.5 1092.5 c 128,-1,8
 1061 1013 1061 1013 1085.5 897.5 c 128,-1,9
 1110 782 1110 782 1110 645 c 0,10,11
 1110 546 1110 546 1090 461 c 128,-1,12
 1070 376 1070 376 1037.5 315.5 c 128,-1,13
 1005 255 1005 255 958.5 205.5 c 128,-1,14
 912 156 912 156 864.5 124 c 128,-1,15
 817 92 817 92 762 68.5 c 128,-1,16
 707 45 707 45 662.5 33 c 128,-1,17
 618 21 618 21 572 14 c 128,-1,18
 526 7 526 7 502 5.5 c 128,-1,19
 478 4 478 4 459 4 c 0,20,21
 415 4 415 4 308.5 2 c 128,-1,22
 202 0 202 0 180 0 c 0,23,24
 141 0 141 0 141 70 c 0,25,26
 141 79 141 79 142 97 c 128,-1,27
 143 115 143 115 143 123 c 0,28,29
 143 148 143 148 140 222 c 128,-1,30
 137 296 137 296 137 317 c 0,31,32
 137 322 137 322 132 423.5 c 128,-1,33
 127 525 127 525 127 621 c 0,34,35
 127 700 127 700 135 832 c 128,-1,36
 143 964 143 964 143 1047 c 0,37,38
 143 1145 143 1145 141 1267 c 128,-1,39
 139 1389 139 1389 139 1395 c 0,40,41
 139 1407 139 1407 147.5 1414 c 128,-1,42
 156 1421 156 1421 174 1423.5 c 128,-1,43
 192 1426 192 1426 205.5 1426.5 c 128,-1,44
 219 1427 219 1427 244 1426 c 128,-1,45
 269 1425 269 1425 276 1425 c 2,46,-1
 350 1430 l 1,0,1
1913 1280 m 1,47,-1
 1696 1282 l 2,48,49
 1680 1282 1680 1282 1635.5 1280 c 128,-1,50
 1591 1278 1591 1278 1571 1278 c 0,51,52
 1542 1278 1542 1278 1534 1280 c 0,53,54
 1516 1284 1516 1284 1389 1284 c 2,55,-1
 1303 1284 l 1,56,57
 1292 1285 1292 1285 1286.5 1288 c 128,-1,58
 1281 1291 1281 1291 1280 1292.5 c 128,-1,59
 1279 1294 1279 1294 1279.5 1302 c 128,-1,60
 1280 1310 1280 1310 1280 1311 c 0,61,62
 1280 1332 1280 1332 1274 1391 c 0,63,64
 1273 1402 1273 1402 1276 1409 c 128,-1,65
 1279 1416 1279 1416 1286 1418 c 128,-1,66
 1293 1420 1293 1420 1299 1420.5 c 128,-1,67
 1305 1421 1305 1421 1317 1420 c 128,-1,68
 1329 1419 1329 1419 1335 1419 c 0,69,70
 1366 1419 1366 1419 1457.5 1423 c 128,-1,71
 1549 1427 1549 1427 1593 1427 c 0,72,73
 1639 1427 1639 1427 1779 1423 c 128,-1,74
 1919 1419 1919 1419 1937 1419 c 2,75,-1
 2058 1419 l 2,76,77
 2234 1419 2234 1419 2263 1423 c 0,78,79
 2266 1423 2266 1423 2270.5 1424 c 128,-1,80
 2275 1425 2275 1425 2277 1425 c 0,81,82
 2283 1425 2283 1425 2288 1424 c 128,-1,83
 2293 1423 2293 1423 2296 1420.5 c 128,-1,84
 2299 1418 2299 1418 2300.5 1417 c 128,-1,85
 2302 1416 2302 1416 2303 1411.5 c 128,-1,86
 2304 1407 2304 1407 2304 1405.5 c 128,-1,87
 2304 1404 2304 1404 2304 1399 c 128,-1,88
 2304 1394 2304 1394 2304 1393 c 128,-1,89
 2304 1392 2304 1392 2304 1382 c 128,-1,90
 2304 1372 2304 1372 2304 1365 c 128,-1,91
 2304 1358 2304 1358 2303.5 1346 c 128,-1,92
 2303 1334 2303 1334 2301 1324.5 c 128,-1,93
 2299 1315 2299 1315 2295 1304.5 c 128,-1,94
 2291 1294 2291 1294 2286 1286 c 0,95,96
 2282 1281 2282 1281 2243 1224 c 128,-1,97
 2204 1167 2204 1167 2164 1109 c 128,-1,98
 2124 1051 2124 1051 2076.5 983.5 c 128,-1,99
 2029 916 2029 916 2003 881 c 0,100,101
 1845 658 1845 658 1753 537 c 1,102,-1
 1559 270 l 1,103,104
 1619 262 1619 262 1642 260 c 0,105,106
 1705 252 1705 252 1790 252 c 0,107,108
 1835 252 1835 252 1904.5 254 c 128,-1,109
 1974 256 1974 256 2013 256 c 0,110,111
 2057 256 2057 256 2196 262 c 128,-1,112
 2335 268 2335 268 2353 268 c 0,113,114
 2363 268 2363 268 2370.5 265 c 128,-1,115
 2378 262 2378 262 2382 259 c 128,-1,116
 2386 256 2386 256 2388 248 c 128,-1,117
 2390 240 2390 240 2390.5 235.5 c 128,-1,118
 2391 231 2391 231 2391.5 220 c 128,-1,119
 2392 209 2392 209 2392 205 c 0,120,121
 2392 190 2392 190 2390 131.5 c 128,-1,122
 2388 73 2388 73 2388 55 c 2,123,-1
 2388 43 l 2,124,125
 2388 23 2388 23 2383.5 18.5 c 128,-1,126
 2379 14 2379 14 2359 12 c 0,127,128
 2349 10 2349 10 2302.5 8 c 128,-1,129
 2256 6 2256 6 2206 -2 c 0,130,131
 2177 -6 2177 -6 2087 -6 c 0,132,133
 2036 -6 2036 -6 1943 -4 c 128,-1,134
 1850 -2 1850 -2 1827 -2 c 2,135,-1
 1325 -2 l 2,136,137
 1306 -2 1306 -2 1293 1 c 128,-1,138
 1280 4 1280 4 1273.5 8 c 128,-1,139
 1267 12 1267 12 1264 20.5 c 128,-1,140
 1261 29 1261 29 1261 33.5 c 128,-1,141
 1261 38 1261 38 1261.5 50 c 128,-1,142
 1262 62 1262 62 1262 66 c 0,143,144
 1262 79 1262 79 1267 153.5 c 128,-1,145
 1272 228 1272 228 1272 246 c 0,146,147
 1272 258 1272 258 1280.5 273 c 128,-1,148
 1289 288 1289 288 1299 299.5 c 128,-1,149
 1309 311 1309 311 1329 334 c 128,-1,150
 1349 357 1349 357 1360 369 c 1,151,152
 1589 669 1589 669 1642 758 c 0,153,154
 1655 780 1655 780 1686.5 824.5 c 128,-1,155
 1718 869 1718 869 1746.5 907 c 128,-1,156
 1775 945 1775 945 1813.5 996.5 c 128,-1,157
 1852 1048 1852 1048 1862 1061 c 0,158,159
 1887 1096 1887 1096 1935 1194 c 1,160,-1
 1972 1274 l 1,161,162
 1960 1274 1960 1274 1954 1276 c 1,163,-1
 1913 1280 l 1,47,-1
494 438 m 1,164,165
 546 462 546 462 596 512 c 1,166,167
 698 610 698 610 698 745 c 0,168,169
 698 874 698 874 600 952 c 0,170,171
 557 986 557 986 504 1001 c 1,172,173
 508 955 508 955 508 932 c 0,174,175
 508 895 508 895 504 822 c 128,-1,176
 500 749 500 749 500 717 c 0,177,178
 500 663 500 663 496 545 c 0,179,180
 494 510 494 510 494 438 c 1,164,165
EndSplineSet
Validated: 1
Substitution2: "Single Substitution lookup 20 subtable" dz
Substitution2: "'aalt' Access All Alternates lookup 0 subtable" dz
Position2: "'cpsp' Capital Spacing lookup 0 subtable" dx=10 dy=0 dh=20 dv=0
EndChar

StartChar: DZcaron
Encoding: 452 452 23
Width: 2494
Flags: MW
HStem: -2 254<1768 1827> 0 43G<164 206> 1278 141 1284 135<1320 1368 1320 1389 1303 1368> 1284 143 1393 41G<466 585>
VStem: 143 365<896 1129> 698 412<692 798>
LayerCount: 2
Fore
SplineSet
2046 1620 m 2,0,1
 2042 1618 2042 1618 2031 1613 c 128,-1,2
 2020 1608 2020 1608 2012 1604 c 128,-1,3
 2004 1600 2004 1600 1986.5 1588.5 c 128,-1,4
 1969 1577 1969 1577 1948 1561 c 1,5,6
 1865 1513 1865 1513 1841 1507 c 1,7,8
 1822 1499 1822 1499 1804 1499 c 1,9,10
 1796 1497 1796 1497 1782 1497 c 0,11,12
 1771 1497 1771 1497 1761 1499.5 c 128,-1,13
 1751 1502 1751 1502 1745 1505 c 128,-1,14
 1739 1508 1739 1508 1726 1515.5 c 128,-1,15
 1713 1523 1713 1523 1704 1528 c 1,16,17
 1693 1536 1693 1536 1567 1616 c 1,18,-1
 1558 1621.5 l 2,19,20
 1549 1627 1549 1627 1544.5 1630 c 128,-1,21
 1540 1633 1540 1633 1531 1639 c 128,-1,22
 1522 1645 1522 1645 1516.5 1650.5 c 128,-1,23
 1511 1656 1511 1656 1505.5 1662 c 128,-1,24
 1500 1668 1500 1668 1498 1674 c 128,-1,25
 1496 1680 1496 1680 1497 1686 c 0,26,27
 1505 1716 1505 1716 1530 1716 c 0,28,29
 1545 1716 1545 1716 1585 1702 c 1,30,-1
 1640 1688 l 1,31,32
 1669 1677 1669 1677 1712 1651 c 1,33,-1
 1778 1620 l 1,34,35
 1844 1648 1844 1648 1870 1663 c 1,36,37
 1917 1686 1917 1686 1989 1706 c 1,38,39
 2029 1712 2029 1712 2066 1712 c 0,40,41
 2089 1712 2089 1712 2102.5 1702 c 128,-1,42
 2116 1692 2116 1692 2116 1679 c 0,43,44
 2116 1665 2116 1665 2099 1655 c 1,45,-1
 2046 1620 l 2,0,1
350 1430 m 1,46,47
 436 1434 436 1434 489 1434 c 0,48,49
 534 1434 534 1434 583.5 1425.5 c 128,-1,50
 633 1417 633 1417 695 1393.5 c 128,-1,51
 757 1370 757 1370 813.5 1333 c 128,-1,52
 870 1296 870 1296 925 1234 c 128,-1,53
 980 1172 980 1172 1020.5 1092.5 c 128,-1,54
 1061 1013 1061 1013 1085.5 897.5 c 128,-1,55
 1110 782 1110 782 1110 645 c 0,56,57
 1110 546 1110 546 1090 461 c 128,-1,58
 1070 376 1070 376 1037.5 315.5 c 128,-1,59
 1005 255 1005 255 958.5 205.5 c 128,-1,60
 912 156 912 156 864.5 124 c 128,-1,61
 817 92 817 92 762 68.5 c 128,-1,62
 707 45 707 45 662.5 33 c 128,-1,63
 618 21 618 21 572 14 c 128,-1,64
 526 7 526 7 502 5.5 c 128,-1,65
 478 4 478 4 459 4 c 0,66,67
 415 4 415 4 308.5 2 c 128,-1,68
 202 0 202 0 180 0 c 0,69,70
 141 0 141 0 141 70 c 0,71,72
 141 79 141 79 142 97 c 128,-1,73
 143 115 143 115 143 123 c 0,74,75
 143 148 143 148 140 222 c 128,-1,76
 137 296 137 296 137 317 c 0,77,78
 137 322 137 322 132 423.5 c 128,-1,79
 127 525 127 525 127 621 c 0,80,81
 127 700 127 700 135 832 c 128,-1,82
 143 964 143 964 143 1047 c 0,83,84
 143 1145 143 1145 141 1267 c 128,-1,85
 139 1389 139 1389 139 1395 c 0,86,87
 139 1407 139 1407 147.5 1414 c 128,-1,88
 156 1421 156 1421 174 1423.5 c 128,-1,89
 192 1426 192 1426 205.5 1426.5 c 128,-1,90
 219 1427 219 1427 244 1426 c 128,-1,91
 269 1425 269 1425 276 1425 c 2,92,-1
 350 1430 l 1,46,47
1913 1280 m 1,93,-1
 1696 1282 l 2,94,95
 1680 1282 1680 1282 1635.5 1280 c 128,-1,96
 1591 1278 1591 1278 1571 1278 c 0,97,98
 1542 1278 1542 1278 1534 1280 c 0,99,100
 1516 1284 1516 1284 1389 1284 c 2,101,-1
 1303 1284 l 1,102,103
 1292 1285 1292 1285 1286.5 1288 c 128,-1,104
 1281 1291 1281 1291 1280 1292.5 c 128,-1,105
 1279 1294 1279 1294 1279.5 1302 c 128,-1,106
 1280 1310 1280 1310 1280 1311 c 0,107,108
 1280 1332 1280 1332 1274 1391 c 0,109,110
 1273 1402 1273 1402 1276 1409 c 128,-1,111
 1279 1416 1279 1416 1286 1418 c 128,-1,112
 1293 1420 1293 1420 1299 1420.5 c 128,-1,113
 1305 1421 1305 1421 1317 1420 c 128,-1,114
 1329 1419 1329 1419 1335 1419 c 0,115,116
 1366 1419 1366 1419 1457.5 1423 c 128,-1,117
 1549 1427 1549 1427 1593 1427 c 0,118,119
 1639 1427 1639 1427 1779 1423 c 128,-1,120
 1919 1419 1919 1419 1937 1419 c 2,121,-1
 2058 1419 l 2,122,123
 2234 1419 2234 1419 2263 1423 c 0,124,125
 2266 1423 2266 1423 2270.5 1424 c 128,-1,126
 2275 1425 2275 1425 2277 1425 c 0,127,128
 2283 1425 2283 1425 2288 1424 c 128,-1,129
 2293 1423 2293 1423 2296 1420.5 c 128,-1,130
 2299 1418 2299 1418 2300.5 1417 c 128,-1,131
 2302 1416 2302 1416 2303 1411.5 c 128,-1,132
 2304 1407 2304 1407 2304 1405.5 c 128,-1,133
 2304 1404 2304 1404 2304 1399 c 128,-1,134
 2304 1394 2304 1394 2304 1393 c 128,-1,135
 2304 1392 2304 1392 2304 1382 c 128,-1,136
 2304 1372 2304 1372 2304 1365 c 128,-1,137
 2304 1358 2304 1358 2303.5 1346 c 128,-1,138
 2303 1334 2303 1334 2301 1324.5 c 128,-1,139
 2299 1315 2299 1315 2295 1304.5 c 128,-1,140
 2291 1294 2291 1294 2286 1286 c 0,141,142
 2282 1281 2282 1281 2243 1224 c 128,-1,143
 2204 1167 2204 1167 2164 1109 c 128,-1,144
 2124 1051 2124 1051 2076.5 983.5 c 128,-1,145
 2029 916 2029 916 2003 881 c 0,146,147
 1845 658 1845 658 1753 537 c 1,148,-1
 1559 270 l 1,149,150
 1619 262 1619 262 1642 260 c 0,151,152
 1705 252 1705 252 1790 252 c 0,153,154
 1835 252 1835 252 1904.5 254 c 128,-1,155
 1974 256 1974 256 2013 256 c 0,156,157
 2057 256 2057 256 2196 262 c 128,-1,158
 2335 268 2335 268 2353 268 c 0,159,160
 2363 268 2363 268 2370.5 265 c 128,-1,161
 2378 262 2378 262 2382 259 c 128,-1,162
 2386 256 2386 256 2388 248 c 128,-1,163
 2390 240 2390 240 2390.5 235.5 c 128,-1,164
 2391 231 2391 231 2391.5 220 c 128,-1,165
 2392 209 2392 209 2392 205 c 0,166,167
 2392 190 2392 190 2390 131.5 c 128,-1,168
 2388 73 2388 73 2388 55 c 2,169,-1
 2388 43 l 2,170,171
 2388 23 2388 23 2383.5 18.5 c 128,-1,172
 2379 14 2379 14 2359 12 c 0,173,174
 2349 10 2349 10 2302.5 8 c 128,-1,175
 2256 6 2256 6 2206 -2 c 0,176,177
 2177 -6 2177 -6 2087 -6 c 0,178,179
 2036 -6 2036 -6 1943 -4 c 128,-1,180
 1850 -2 1850 -2 1827 -2 c 2,181,-1
 1325 -2 l 2,182,183
 1306 -2 1306 -2 1293 1 c 128,-1,184
 1280 4 1280 4 1273.5 8 c 128,-1,185
 1267 12 1267 12 1264 20.5 c 128,-1,186
 1261 29 1261 29 1261 33.5 c 128,-1,187
 1261 38 1261 38 1261.5 50 c 128,-1,188
 1262 62 1262 62 1262 66 c 0,189,190
 1262 79 1262 79 1267 153.5 c 128,-1,191
 1272 228 1272 228 1272 246 c 0,192,193
 1272 258 1272 258 1280.5 273 c 128,-1,194
 1289 288 1289 288 1299 299.5 c 128,-1,195
 1309 311 1309 311 1329 334 c 128,-1,196
 1349 357 1349 357 1360 369 c 1,197,198
 1589 669 1589 669 1642 758 c 0,199,200
 1655 780 1655 780 1686.5 824.5 c 128,-1,201
 1718 869 1718 869 1746.5 907 c 128,-1,202
 1775 945 1775 945 1813.5 996.5 c 128,-1,203
 1852 1048 1852 1048 1862 1061 c 0,204,205
 1887 1096 1887 1096 1935 1194 c 1,206,-1
 1972 1274 l 1,207,208
 1960 1274 1960 1274 1954 1276 c 1,209,-1
 1913 1280 l 1,93,-1
494 438 m 1,210,211
 546 462 546 462 596 512 c 1,212,213
 698 610 698 610 698 745 c 0,214,215
 698 874 698 874 600 952 c 0,216,217
 557 986 557 986 504 1001 c 1,218,219
 508 955 508 955 508 932 c 0,220,221
 508 895 508 895 504 822 c 128,-1,222
 500 749 500 749 500 717 c 0,223,224
 500 663 500 663 496 545 c 0,225,226
 494 510 494 510 494 438 c 1,210,211
EndSplineSet
Validated: 524289
Substitution2: "Single Substitution lookup 20 subtable" dzcaron
Substitution2: "'aalt' Access All Alternates lookup 0 subtable" dzcaron
Position2: "'cpsp' Capital Spacing lookup 0 subtable" dx=10 dy=0 dh=20 dv=0
EndChar

StartChar: Eth
Encoding: 208 208 24
Width: 1261
Flags: MW
HStem: 0 43G<233 275> 0 127 639 160<125 126> 645 160<571 608 567 768> 1276 158 1384 41G<322 346>
VStem: 213 350<127 147> 213 365<998 1019 954 1129> 1044 135<712 745>
LayerCount: 2
Fore
SplineSet
420 1430 m 1,0,1
 506 1434 506 1434 559 1434 c 0,2,3
 604 1434 604 1434 653.5 1425.5 c 128,-1,4
 703 1417 703 1417 765 1393.5 c 128,-1,5
 827 1370 827 1370 883.5 1333 c 128,-1,6
 940 1296 940 1296 995 1234 c 128,-1,7
 1050 1172 1050 1172 1090.5 1092.5 c 128,-1,8
 1131 1013 1131 1013 1155.5 897.5 c 128,-1,9
 1180 782 1180 782 1180 645 c 0,10,11
 1180 519 1180 519 1147 416 c 128,-1,12
 1114 313 1114 313 1065 248 c 128,-1,13
 1016 183 1016 183 947.5 134.5 c 128,-1,14
 879 86 879 86 818 62 c 128,-1,15
 757 38 757 38 690.5 24 c 128,-1,16
 624 10 624 10 589.5 7 c 128,-1,17
 555 4 555 4 528 4 c 0,18,19
 484 4 484 4 378 2 c 128,-1,20
 272 0 272 0 250 0 c 0,21,22
 211 0 211 0 211 70 c 0,23,24
 211 79 211 79 212 97 c 128,-1,25
 213 115 213 115 213 123 c 0,26,27
 213 148 213 148 210 222 c 128,-1,28
 207 296 207 296 207 317 c 0,29,30
 207 322 207 322 202 423.5 c 128,-1,31
 197 525 197 525 197 621 c 2,32,-1
 197 635 l 1,33,34
 131 639 131 639 119 639 c 128,-1,35
 107 639 107 639 100 639.5 c 128,-1,36
 93 640 93 640 90 644.5 c 128,-1,37
 87 649 87 649 86 650 c 128,-1,38
 85 651 85 651 85.5 660.5 c 128,-1,39
 86 670 86 670 86 672 c 0,40,41
 86 679 86 679 82.5 709 c 128,-1,42
 79 739 79 739 77.5 759 c 128,-1,43
 76 779 76 779 78 791 c 1,44,45
 78 803 78 803 98 803 c 0,46,47
 105 803 105 803 125 799 c 1,48,-1
 203 799 l 1,49,50
 213 994 213 994 213 1047 c 0,51,52
 213 1145 213 1145 211 1267 c 128,-1,53
 209 1389 209 1389 209 1395 c 0,54,55
 209 1407 209 1407 217.5 1414 c 128,-1,56
 226 1421 226 1421 244 1423.5 c 128,-1,57
 262 1426 262 1426 275.5 1426.5 c 128,-1,58
 289 1427 289 1427 314 1426 c 128,-1,59
 339 1425 339 1425 346 1425 c 2,60,-1
 420 1430 l 1,0,1
784 666 m 2,61,62
 784 649 784 649 766 649 c 0,63,64
 762 649 762 649 752 650 c 128,-1,65
 742 651 742 651 737 651 c 0,66,67
 733 651 733 651 685 648 c 128,-1,68
 637 645 637 645 608 645 c 2,69,-1
 567 645 l 1,70,71
 567 578 567 578 565 545 c 0,72,73
 563 510 563 510 563 127 c 1,74,75
 758 192 758 192 909 322 c 1,76,77
 1009 443 1009 443 1026 541 c 0,78,79
 1044 643 1044 643 1044 745 c 1,80,81
 1037 855 1037 855 992.5 953 c 128,-1,82
 948 1051 948 1051 838 1161 c 1,83,84
 703 1267 703 1267 573 1276 c 1,85,86
 578 1122 578 1122 578 983 c 0,87,88
 578 897.5 578 897.5 575 860 c 2,89,-1
 571 805 l 1,90,-1
 768 805 l 2,91,92
 786 805 786 805 786 788 c 0,93,94
 786 785 786 785 785 779 c 128,-1,95
 784 773 784 773 784 770 c 2,96,-1
 784 666 l 2,61,62
EndSplineSet
Validated: 524289
Substitution2: "Single Substitution lookup 20 subtable" eth
Substitution2: "'aalt' Access All Alternates lookup 0 subtable" eth
Position2: "'cpsp' Capital Spacing lookup 0 subtable" dx=10 dy=0 dh=20 dv=0
EndChar

StartChar: Dcaron
Encoding: 270 270 25
Width: 1181
Flags: MW
HStem: 0 43G<164 206> 1384 41G<252 276> 1393 41G<466 585>
VStem: 143 365<896 1129> 698 412<692 798>
LayerCount: 2
Fore
SplineSet
760 1620 m 2,0,1
 756 1618 756 1618 745 1613 c 128,-1,2
 734 1608 734 1608 726 1604 c 128,-1,3
 718 1600 718 1600 700.5 1588.5 c 128,-1,4
 683 1577 683 1577 662 1561 c 1,5,6
 579 1513 579 1513 555 1507 c 1,7,8
 536 1499 536 1499 518 1499 c 1,9,10
 510 1497 510 1497 496 1497 c 0,11,12
 485 1497 485 1497 475 1499.5 c 128,-1,13
 465 1502 465 1502 459 1505 c 128,-1,14
 453 1508 453 1508 440 1515.5 c 128,-1,15
 427 1523 427 1523 418 1528 c 1,16,17
 407 1536 407 1536 281 1616 c 1,18,-1
 272 1621.5 l 2,19,20
 263 1627 263 1627 258.5 1630 c 128,-1,21
 254 1633 254 1633 245 1639 c 128,-1,22
 236 1645 236 1645 230.5 1650.5 c 128,-1,23
 225 1656 225 1656 219.5 1662 c 128,-1,24
 214 1668 214 1668 212 1674 c 128,-1,25
 210 1680 210 1680 211 1686 c 0,26,27
 219 1716 219 1716 244 1716 c 0,28,29
 259 1716 259 1716 299 1702 c 1,30,-1
 354 1688 l 1,31,32
 383 1677 383 1677 426 1651 c 1,33,-1
 492 1620 l 1,34,35
 558 1648 558 1648 584 1663 c 1,36,37
 632 1686 632 1686 702 1706 c 1,38,39
 742 1712 742 1712 780 1712 c 0,40,41
 803 1712 803 1712 816 1702 c 128,-1,42
 829 1692 829 1692 829 1679 c 0,43,44
 829 1665 829 1665 813 1655 c 2,45,-1
 760 1620 l 2,0,1
350 1430 m 1,46,47
 436 1434 436 1434 489 1434 c 0,48,49
 534 1434 534 1434 583.5 1425.5 c 128,-1,50
 633 1417 633 1417 695 1393.5 c 128,-1,51
 757 1370 757 1370 813.5 1333 c 128,-1,52
 870 1296 870 1296 925 1234 c 128,-1,53
 980 1172 980 1172 1020.5 1092.5 c 128,-1,54
 1061 1013 1061 1013 1085.5 897.5 c 128,-1,55
 1110 782 1110 782 1110 645 c 0,56,57
 1110 546 1110 546 1090 461 c 128,-1,58
 1070 376 1070 376 1037.5 315.5 c 128,-1,59
 1005 255 1005 255 958.5 205.5 c 128,-1,60
 912 156 912 156 864.5 124 c 128,-1,61
 817 92 817 92 762 68.5 c 128,-1,62
 707 45 707 45 662.5 33 c 128,-1,63
 618 21 618 21 572 14 c 128,-1,64
 526 7 526 7 502 5.5 c 128,-1,65
 478 4 478 4 459 4 c 0,66,67
 415 4 415 4 308.5 2 c 128,-1,68
 202 0 202 0 180 0 c 0,69,70
 141 0 141 0 141 70 c 0,71,72
 141 79 141 79 142 97 c 128,-1,73
 143 115 143 115 143 123 c 0,74,75
 143 148 143 148 140 222 c 128,-1,76
 137 296 137 296 137 317 c 0,77,78
 137 322 137 322 132 423.5 c 128,-1,79
 127 525 127 525 127 621 c 0,80,81
 127 700 127 700 135 832 c 128,-1,82
 143 964 143 964 143 1047 c 0,83,84
 143 1145 143 1145 141 1267 c 128,-1,85
 139 1389 139 1389 139 1395 c 0,86,87
 139 1407 139 1407 147.5 1414 c 128,-1,88
 156 1421 156 1421 174 1423.5 c 128,-1,89
 192 1426 192 1426 205.5 1426.5 c 128,-1,90
 219 1427 219 1427 244 1426 c 128,-1,91
 269 1425 269 1425 276 1425 c 2,92,-1
 350 1430 l 1,46,47
494 438 m 1,93,94
 546 462 546 462 596 512 c 1,95,96
 698 610 698 610 698 745 c 0,97,98
 698 874 698 874 600 952 c 0,99,100
 557 986 557 986 504 1001 c 1,101,102
 508 955 508 955 508 932 c 0,103,104
 508 895 508 895 504 822 c 128,-1,105
 500 749 500 749 500 717 c 0,106,107
 500 663 500 663 496 545 c 0,108,109
 494 510 494 510 494 438 c 1,93,94
EndSplineSet
Validated: 524289
Substitution2: "Single Substitution lookup 20 subtable" dcaron
Substitution2: "'aalt' Access All Alternates lookup 0 subtable" dcaron
Position2: "'cpsp' Capital Spacing lookup 0 subtable" dx=10 dy=0 dh=20 dv=0
EndChar

StartChar: Dcroat
Encoding: 272 272 26
Width: 1181
Flags: MW
HStem: 0 43G<164 206> 666 121<12 133 552 575 575 579> 1384 41G<252 276> 1393 41G<466 585>
VStem: 127 292 143 291<903 1129> 750 360<743 796>
LayerCount: 2
Fore
SplineSet
350 1430 m 1,0,1
 436 1434 436 1434 489 1434 c 0,2,3
 534 1434 534 1434 583.5 1425.5 c 128,-1,4
 633 1417 633 1417 695 1393.5 c 128,-1,5
 757 1370 757 1370 813.5 1333 c 128,-1,6
 870 1296 870 1296 925 1234 c 128,-1,7
 980 1172 980 1172 1020.5 1092.5 c 128,-1,8
 1061 1013 1061 1013 1085.5 897.5 c 128,-1,9
 1110 782 1110 782 1110 645 c 0,10,11
 1110 546 1110 546 1090 461 c 128,-1,12
 1070 376 1070 376 1037.5 315.5 c 128,-1,13
 1005 255 1005 255 958.5 205.5 c 128,-1,14
 912 156 912 156 864.5 124 c 128,-1,15
 817 92 817 92 762 68.5 c 128,-1,16
 707 45 707 45 662.5 33 c 128,-1,17
 618 21 618 21 572 14 c 128,-1,18
 526 7 526 7 502 5.5 c 128,-1,19
 478 4 478 4 459 4 c 0,20,21
 415 4 415 4 308.5 2 c 128,-1,22
 202 0 202 0 180 0 c 0,23,24
 141 0 141 0 141 70 c 0,25,26
 141 79 141 79 142 97 c 128,-1,27
 143 115 143 115 143 123 c 0,28,29
 143 148 143 148 140 222 c 128,-1,30
 137 296 137 296 137 317 c 0,31,32
 137 322 137 322 132 423.5 c 128,-1,33
 127 525 127 525 127 621 c 2,34,-1
 127 672 l 1,35,-1
 125 672 l 2,36,37
 30 672 30 672 20 666 c 1,38,39
 12 666 12 666 8.5 670 c 128,-1,40
 5 674 5 674 4.5 678.5 c 128,-1,41
 4 683 4 683 4 692 c 2,42,-1
 4 748 l 2,43,44
 4 769 4 769 9 777.5 c 128,-1,45
 14 786 14 786 27 786 c 2,46,-1
 133 786 l 1,47,48
 143 991 143 991 143 1047 c 0,49,50
 143 1145 143 1145 141 1267 c 128,-1,51
 139 1389 139 1389 139 1395 c 0,52,53
 139 1407 139 1407 147.5 1414 c 128,-1,54
 156 1421 156 1421 174 1423.5 c 128,-1,55
 192 1426 192 1426 205.5 1426.5 c 128,-1,56
 219 1427 219 1427 244 1426 c 128,-1,57
 269 1425 269 1425 276 1425 c 2,58,-1
 350 1430 l 1,0,1
612 692 m 2,59,60
 612 678 612 678 603.5 672 c 128,-1,61
 595 666 595 666 567 666 c 0,62,63
 553 666 553 666 529 667 c 128,-1,64
 505 668 505 668 472 669.5 c 128,-1,65
 439 671 439 671 422 672 c 1,66,-1
 416 545 l 2,67,68
 412 475 412 475 412 438 c 1,69,70
 528 453 528 453 598 479 c 0,71,72
 676 508 676 508 712 571 c 128,-1,73
 748 634 748 634 750 743 c 1,74,75
 750 915 750 915 600 971 c 1,76,77
 520 996 520 996 428 999 c 1,78,79
 434 965 434 965 434 926 c 0,80,81
 434 876 434 876 426 786 c 1,82,-1
 575 786 l 2,83,84
 578 786 578 786 583 787 c 128,-1,85
 588 788 588 788 590 788 c 0,86,87
 601 788 601 788 606 782.5 c 128,-1,88
 611 777 611 777 611.5 772 c 128,-1,89
 612 767 612 767 612 754 c 2,90,-1
 612 692 l 2,59,60
EndSplineSet
Validated: 1
Substitution2: "Single Substitution lookup 20 subtable" dcroat
Substitution2: "'aalt' Access All Alternates lookup 0 subtable" dcroat
Position2: "'cpsp' Capital Spacing lookup 0 subtable" dx=10 dy=0 dh=20 dv=0
EndChar

StartChar: Ddotbelow
Encoding: 7692 7692 27
Width: 1181
Flags: MW
HStem: -291 246<506 560 494 561> 0 43G<164 206> 1384 41G<252 276> 1393 41G<466 585>
VStem: 143 365<896 1129> 410 260<-201 -136> 698 412<692 798>
LayerCount: 2
Fore
SplineSet
350 1430 m 1,0,1
 436 1434 436 1434 489 1434 c 0,2,3
 534 1434 534 1434 583.5 1425.5 c 128,-1,4
 633 1417 633 1417 695 1393.5 c 128,-1,5
 757 1370 757 1370 813.5 1333 c 128,-1,6
 870 1296 870 1296 925 1234 c 128,-1,7
 980 1172 980 1172 1020.5 1092.5 c 128,-1,8
 1061 1013 1061 1013 1085.5 897.5 c 128,-1,9
 1110 782 1110 782 1110 645 c 0,10,11
 1110 546 1110 546 1090 461 c 128,-1,12
 1070 376 1070 376 1037.5 315.5 c 128,-1,13
 1005 255 1005 255 958.5 205.5 c 128,-1,14
 912 156 912 156 864.5 124 c 128,-1,15
 817 92 817 92 762 68.5 c 128,-1,16
 707 45 707 45 662.5 33 c 128,-1,17
 618 21 618 21 572 14 c 128,-1,18
 526 7 526 7 502 5.5 c 128,-1,19
 478 4 478 4 459 4 c 0,20,21
 415 4 415 4 308.5 2 c 128,-1,22
 202 0 202 0 180 0 c 0,23,24
 141 0 141 0 141 70 c 0,25,26
 141 79 141 79 142 97 c 128,-1,27
 143 115 143 115 143 123 c 0,28,29
 143 148 143 148 140 222 c 128,-1,30
 137 296 137 296 137 317 c 0,31,32
 137 322 137 322 132 423.5 c 128,-1,33
 127 525 127 525 127 621 c 0,34,35
 127 700 127 700 135 832 c 128,-1,36
 143 964 143 964 143 1047 c 0,37,38
 143 1145 143 1145 141 1267 c 128,-1,39
 139 1389 139 1389 139 1395 c 0,40,41
 139 1407 139 1407 147.5 1414 c 128,-1,42
 156 1421 156 1421 174 1423.5 c 128,-1,43
 192 1426 192 1426 205.5 1426.5 c 128,-1,44
 219 1427 219 1427 244 1426 c 128,-1,45
 269 1425 269 1425 276 1425 c 2,46,-1
 350 1430 l 1,0,1
494 438 m 1,47,48
 546 462 546 462 596 512 c 1,49,50
 698 610 698 610 698 745 c 0,51,52
 698 874 698 874 600 952 c 0,53,54
 557 986 557 986 504 1001 c 1,55,56
 508 955 508 955 508 932 c 0,57,58
 508 895 508 895 504 822 c 128,-1,59
 500 749 500 749 500 717 c 0,60,61
 500 663 500 663 496 545 c 0,62,63
 494 510 494 510 494 438 c 1,47,48
670 -156 m 0,64,65
 670 -218 670 -218 626 -254.5 c 128,-1,66
 582 -291 582 -291 535 -291 c 0,67,68
 489 -291 489 -291 449.5 -255.5 c 128,-1,69
 410 -220 410 -220 410 -166 c 0,70,71
 410 -120 410 -120 444 -82.5 c 128,-1,72
 478 -45 478 -45 526 -45 c 0,73,74
 582 -45 582 -45 626 -75 c 128,-1,75
 670 -105 670 -105 670 -156 c 0,64,65
EndSplineSet
Validated: 1
Substitution2: "Single Substitution lookup 20 subtable" ddotbelow
Substitution2: "'aalt' Access All Alternates lookup 0 subtable" ddotbelow
Position2: "'cpsp' Capital Spacing lookup 0 subtable" dx=10 dy=0 dh=20 dv=0
EndChar

StartChar: E
Encoding: 69 69 28
Width: 1075
Flags: MW
HStem: -2 279 6 266<266 536> 487 217<459 480 414 589> 1130 301<204 396> 1133 311<671 718 636 739> 1384 41G<323 413>
VStem: 129 115<270 475 270 475 270 537> 143 98<763 774 774 871>
LayerCount: 2
Fore
SplineSet
129 475 m 2,0,1
 129 532 129 532 136 621 c 128,-1,2
 143 710 143 710 143 793 c 128,-1,3
 143 876 143 876 138 953 c 128,-1,4
 133 1030 133 1030 133 1087 c 0,5,6
 133 1218 133 1218 139 1389 c 0,7,8
 139 1416 139 1416 148.5 1425 c 128,-1,9
 158 1434 158 1434 178 1434 c 0,10,11
 183 1434 183 1434 193.5 1433 c 128,-1,12
 204 1432 204 1432 209 1432 c 0,13,14
 217 1432 217 1432 266 1428.5 c 128,-1,15
 315 1425 315 1425 369 1425 c 0,16,17
 414 1425 414 1425 525.5 1434.5 c 128,-1,18
 637 1444 637 1444 676 1444 c 0,19,20
 724 1444 724 1444 806.5 1440 c 128,-1,21
 889 1436 889 1436 903 1436 c 0,22,23
 930 1436 930 1436 938 1423 c 128,-1,24
 946 1410 946 1410 946 1378 c 0,25,26
 946 1359 946 1359 950 1308 c 128,-1,27
 954 1257 954 1257 954 1223 c 0,28,29
 954 1182 954 1182 948 1147 c 1,30,31
 946 1116 946 1116 920 1116 c 0,32,33
 912 1116 912 1116 894.5 1121 c 128,-1,34
 877 1126 877 1126 874 1126 c 0,35,36
 838 1133 838 1133 696 1133 c 0,37,38
 670 1133 670 1133 618 1135 c 128,-1,39
 566 1137 566 1137 541 1137 c 0,40,41
 503 1137 503 1137 485 1135 c 0,42,43
 407 1130 407 1130 377 1130 c 0,44,45
 348 1130 348 1130 308.5 1131.5 c 128,-1,46
 269 1133 269 1133 268 1133 c 0,47,48
 264 1133 264 1133 261 1132.5 c 128,-1,49
 258 1132 258 1132 256 1131 c 128,-1,50
 254 1130 254 1130 252.5 1129.5 c 128,-1,51
 251 1129 251 1129 250 1126 c 128,-1,52
 249 1123 249 1123 248.5 1122 c 128,-1,53
 248 1121 248 1121 248 1116.5 c 128,-1,54
 248 1112 248 1112 248 1109.5 c 128,-1,55
 248 1107 248 1107 248 1101 c 128,-1,56
 248 1095 248 1095 248 1092 c 0,57,58
 248 1080 248 1080 245 1008 c 128,-1,59
 242 936 242 936 242 895 c 2,60,-1
 242 774 l 2,61,62
 242 732 242 732 244 709 c 1,63,64
 260 707 260 707 299 707 c 1,65,66
 334 705 334 705 442 705 c 0,67,68
 483 705 483 705 560.5 709 c 128,-1,69
 638 713 638 713 659 713 c 0,70,71
 687 713 687 713 719.5 710 c 128,-1,72
 752 707 752 707 760 707 c 0,73,74
 776 707 776 707 781 700.5 c 128,-1,75
 786 694 786 694 786 682 c 0,76,77
 786 678 786 678 784 659.5 c 128,-1,78
 782 641 782 641 782 618 c 0,79,80
 782 600 782 600 783 568.5 c 128,-1,81
 784 537 784 537 784 510 c 0,82,83
 784 477 784 477 766 477 c 0,84,85
 763 477 763 477 750 480 c 128,-1,86
 737 483 737 483 729 483 c 0,87,88
 724 483 724 483 662 485 c 128,-1,89
 600 487 600 487 524 487 c 0,90,91
 466 487 466 487 411.5 483 c 128,-1,92
 357 479 357 479 323.5 475 c 128,-1,93
 290 471 290 471 283 471 c 0,94,95
 260 471 260 471 256 473 c 1,96,97
 246 473 246 473 244 475 c 1,98,-1
 244 270 l 1,99,100
 258 270 258 270 266 272 c 1,101,102
 272 272 272 272 291.5 273 c 128,-1,103
 311 274 311 274 324 274 c 0,104,105
 342 274 342 274 427.5 275 c 128,-1,106
 513 276 513 276 565 276 c 0,107,108
 597 276 597 276 688.5 274 c 128,-1,109
 780 272 780 272 823 272 c 0,110,111
 844 272 844 272 873 273 c 128,-1,112
 902 274 902 274 909 274 c 0,113,114
 933 274 933 274 941.5 263 c 128,-1,115
 950 252 950 252 950 231 c 0,116,117
 950 225 950 225 949 210.5 c 128,-1,118
 948 196 948 196 948 190 c 0,119,120
 948 172 948 172 947 125.5 c 128,-1,121
 946 79 946 79 946 47 c 0,122,123
 946 33 946 33 942.5 24 c 128,-1,124
 939 15 939 15 935.5 10 c 128,-1,125
 932 5 932 5 921 3 c 128,-1,126
 910 1 910 1 903.5 1 c 128,-1,127
 897 1 897 1 878 1.5 c 128,-1,128
 859 2 859 2 848 2 c 0,129,130
 818 2 818 2 678 4 c 128,-1,131
 538 6 538 6 487 6 c 0,132,133
 429 6 429 6 299 2 c 128,-1,134
 169 -2 169 -2 164 -2 c 0,135,136
 162 -2 162 -2 158 -3 c 128,-1,137
 154 -4 154 -4 152 -4 c 0,138,139
 144 -4 144 -4 140 2 c 128,-1,140
 136 8 136 8 135.5 13 c 128,-1,141
 135 18 135 18 135 31 c 1,142,143
 133 54 133 54 133 106 c 0,144,145
 133 116 133 116 131 143.5 c 128,-1,146
 129 171 129 171 129 195 c 2,147,-1
 129 475 l 2,0,1
EndSplineSet
Validated: 1
Substitution2: "Single Substitution lookup 21 subtable" e
Substitution2: "'aalt' Access All Alternates lookup 0 subtable" e
Position2: "'cpsp' Capital Spacing lookup 0 subtable" dx=10 dy=0 dh=20 dv=0
EndChar

StartChar: Eacute
Encoding: 201 201 29
Width: 1032
Flags: MW
HStem: -2 279 6 266<266 536> 487 217<459 480 414 589> 1130 301<204 396> 1133 311<671 718 636 739> 1384 41G<323 413>
VStem: 129 115<270 475 270 475 270 537> 143 98<763 774 774 871>
LayerCount: 2
Fore
SplineSet
600 1692 m 1,0,1
 644 1706 644 1706 672 1706 c 1,2,3
 704 1710 704 1710 713 1710 c 0,4,5
 736 1710 736 1710 745 1697.5 c 128,-1,6
 754 1685 754 1685 748 1653 c 1,7,8
 741 1630 741 1630 707 1610 c 128,-1,9
 673 1590 673 1590 647 1583 c 1,10,11
 542 1548 542 1548 473 1516 c 1,12,13
 418 1497 418 1497 408 1497 c 0,14,15
 387 1497 387 1497 365 1511 c 1,16,17
 324 1525 324 1525 324 1556 c 0,18,19
 324 1561 324 1561 328 1577 c 0,20,21
 331 1586 331 1586 369.5 1603.5 c 128,-1,22
 408 1621 408 1621 430 1628 c 1,23,24
 442 1635 442 1635 475.5 1645 c 128,-1,25
 509 1655 509 1655 555 1675 c 1,26,-1
 600 1692 l 1,0,1
129 475 m 2,27,28
 129 532 129 532 136 621 c 128,-1,29
 143 710 143 710 143 793 c 128,-1,30
 143 876 143 876 138 953 c 128,-1,31
 133 1030 133 1030 133 1087 c 0,32,33
 133 1218 133 1218 139 1389 c 0,34,35
 139 1416 139 1416 148.5 1425 c 128,-1,36
 158 1434 158 1434 178 1434 c 0,37,38
 183 1434 183 1434 193.5 1433 c 128,-1,39
 204 1432 204 1432 209 1432 c 0,40,41
 217 1432 217 1432 266 1428.5 c 128,-1,42
 315 1425 315 1425 369 1425 c 0,43,44
 414 1425 414 1425 525.5 1434.5 c 128,-1,45
 637 1444 637 1444 676 1444 c 0,46,47
 724 1444 724 1444 806.5 1440 c 128,-1,48
 889 1436 889 1436 903 1436 c 0,49,50
 930 1436 930 1436 938 1423 c 128,-1,51
 946 1410 946 1410 946 1378 c 0,52,53
 946 1359 946 1359 950 1308 c 128,-1,54
 954 1257 954 1257 954 1223 c 0,55,56
 954 1182 954 1182 948 1147 c 1,57,58
 946 1116 946 1116 920 1116 c 0,59,60
 912 1116 912 1116 894.5 1121 c 128,-1,61
 877 1126 877 1126 874 1126 c 0,62,63
 838 1133 838 1133 696 1133 c 0,64,65
 670 1133 670 1133 618 1135 c 128,-1,66
 566 1137 566 1137 541 1137 c 0,67,68
 503 1137 503 1137 485 1135 c 0,69,70
 407 1130 407 1130 377 1130 c 0,71,72
 348 1130 348 1130 308.5 1131.5 c 128,-1,73
 269 1133 269 1133 268 1133 c 0,74,75
 264 1133 264 1133 261 1132.5 c 128,-1,76
 258 1132 258 1132 256 1131 c 128,-1,77
 254 1130 254 1130 252.5 1129.5 c 128,-1,78
 251 1129 251 1129 250 1126 c 128,-1,79
 249 1123 249 1123 248.5 1122 c 128,-1,80
 248 1121 248 1121 248 1116.5 c 128,-1,81
 248 1112 248 1112 248 1109.5 c 128,-1,82
 248 1107 248 1107 248 1101 c 128,-1,83
 248 1095 248 1095 248 1092 c 0,84,85
 248 1080 248 1080 245 1008 c 128,-1,86
 242 936 242 936 242 895 c 2,87,-1
 242 774 l 2,88,89
 242 732 242 732 244 709 c 1,90,91
 260 707 260 707 299 707 c 1,92,93
 334 705 334 705 442 705 c 0,94,95
 483 705 483 705 560.5 709 c 128,-1,96
 638 713 638 713 659 713 c 0,97,98
 687 713 687 713 719.5 710 c 128,-1,99
 752 707 752 707 760 707 c 0,100,101
 776 707 776 707 781 700.5 c 128,-1,102
 786 694 786 694 786 682 c 0,103,104
 786 678 786 678 784 659.5 c 128,-1,105
 782 641 782 641 782 618 c 0,106,107
 782 600 782 600 783 568.5 c 128,-1,108
 784 537 784 537 784 510 c 0,109,110
 784 477 784 477 766 477 c 0,111,112
 763 477 763 477 750 480 c 128,-1,113
 737 483 737 483 729 483 c 0,114,115
 724 483 724 483 662 485 c 128,-1,116
 600 487 600 487 524 487 c 0,117,118
 466 487 466 487 411.5 483 c 128,-1,119
 357 479 357 479 323.5 475 c 128,-1,120
 290 471 290 471 283 471 c 0,121,122
 260 471 260 471 256 473 c 1,123,124
 246 473 246 473 244 475 c 1,125,-1
 244 270 l 1,126,127
 258 270 258 270 266 272 c 1,128,129
 272 272 272 272 291.5 273 c 128,-1,130
 311 274 311 274 324 274 c 0,131,132
 342 274 342 274 427.5 275 c 128,-1,133
 513 276 513 276 565 276 c 0,134,135
 597 276 597 276 688.5 274 c 128,-1,136
 780 272 780 272 823 272 c 0,137,138
 844 272 844 272 873 273 c 128,-1,139
 902 274 902 274 909 274 c 0,140,141
 933 274 933 274 941.5 263 c 128,-1,142
 950 252 950 252 950 231 c 0,143,144
 950 225 950 225 949 210.5 c 128,-1,145
 948 196 948 196 948 190 c 0,146,147
 948 172 948 172 947 125.5 c 128,-1,148
 946 79 946 79 946 47 c 0,149,150
 946 33 946 33 942.5 24 c 128,-1,151
 939 15 939 15 935.5 10 c 128,-1,152
 932 5 932 5 921 3 c 128,-1,153
 910 1 910 1 903.5 1 c 128,-1,154
 897 1 897 1 878 1.5 c 128,-1,155
 859 2 859 2 848 2 c 0,156,157
 818 2 818 2 678 4 c 128,-1,158
 538 6 538 6 487 6 c 0,159,160
 429 6 429 6 299 2 c 128,-1,161
 169 -2 169 -2 164 -2 c 0,162,163
 162 -2 162 -2 158 -3 c 128,-1,164
 154 -4 154 -4 152 -4 c 0,165,166
 144 -4 144 -4 140 2 c 128,-1,167
 136 8 136 8 135.5 13 c 128,-1,168
 135 18 135 18 135 31 c 1,169,170
 133 54 133 54 133 106 c 0,171,172
 133 116 133 116 131 143.5 c 128,-1,173
 129 171 129 171 129 195 c 2,174,-1
 129 475 l 2,27,28
EndSplineSet
Validated: 1
Substitution2: "Single Substitution lookup 21 subtable" eacute
Substitution2: "'aalt' Access All Alternates lookup 0 subtable" eacute
Position2: "'cpsp' Capital Spacing lookup 0 subtable" dx=10 dy=0 dh=20 dv=0
EndChar

StartChar: Ebreve
Encoding: 276 276 30
Width: 1075
Flags: MW
HStem: -2 279 6 266<266 536> 487 217<459 480 414 589> 1130 301<204 396> 1133 311<671 718 636 739> 1384 41G<323 413> 1511 111<520 534 516 568>
VStem: 129 115<270 475 270 475 270 537> 143 98<763 774 774 871> 229 119<1698 1715>
LayerCount: 2
Fore
SplineSet
840 1704 m 0,0,1
 840 1620 840 1620 797 1587 c 0,2,3
 767 1564 767 1564 717 1538 c 0,4,5
 665 1511 665 1511 520 1511 c 1,6,7
 358 1520 358 1520 315 1542 c 0,8,9
 275 1563 275 1563 260 1597 c 0,10,11
 232 1665 232 1665 229 1712 c 0,12,13
 229 1716 229 1716 237.5 1717 c 128,-1,14
 246 1718 246 1718 289 1718 c 128,-1,15
 332 1718 332 1718 340 1715 c 128,-1,16
 348 1712 348 1712 348 1698 c 1,17,18
 357 1659 357 1659 381 1642 c 1,19,20
 403 1628 403 1628 516 1622 c 1,21,22
 570 1622 570 1622 641 1640 c 1,23,24
 714 1661 714 1661 717 1702 c 1,25,26
 724 1713 724 1713 772 1716 c 1,27,28
 840 1713 840 1713 840 1704 c 0,0,1
129 475 m 2,29,30
 129 532 129 532 136 621 c 128,-1,31
 143 710 143 710 143 793 c 128,-1,32
 143 876 143 876 138 953 c 128,-1,33
 133 1030 133 1030 133 1087 c 0,34,35
 133 1218 133 1218 139 1389 c 0,36,37
 139 1416 139 1416 148.5 1425 c 128,-1,38
 158 1434 158 1434 178 1434 c 0,39,40
 183 1434 183 1434 193.5 1433 c 128,-1,41
 204 1432 204 1432 209 1432 c 0,42,43
 217 1432 217 1432 266 1428.5 c 128,-1,44
 315 1425 315 1425 369 1425 c 0,45,46
 414 1425 414 1425 525.5 1434.5 c 128,-1,47
 637 1444 637 1444 676 1444 c 0,48,49
 724 1444 724 1444 806.5 1440 c 128,-1,50
 889 1436 889 1436 903 1436 c 0,51,52
 930 1436 930 1436 938 1423 c 128,-1,53
 946 1410 946 1410 946 1378 c 0,54,55
 946 1359 946 1359 950 1308 c 128,-1,56
 954 1257 954 1257 954 1223 c 0,57,58
 954 1182 954 1182 948 1147 c 1,59,60
 946 1116 946 1116 920 1116 c 0,61,62
 912 1116 912 1116 894.5 1121 c 128,-1,63
 877 1126 877 1126 874 1126 c 0,64,65
 838 1133 838 1133 696 1133 c 0,66,67
 670 1133 670 1133 618 1135 c 128,-1,68
 566 1137 566 1137 541 1137 c 0,69,70
 503 1137 503 1137 485 1135 c 0,71,72
 407 1130 407 1130 377 1130 c 0,73,74
 348 1130 348 1130 308.5 1131.5 c 128,-1,75
 269 1133 269 1133 268 1133 c 0,76,77
 264 1133 264 1133 261 1132.5 c 128,-1,78
 258 1132 258 1132 256 1131 c 128,-1,79
 254 1130 254 1130 252.5 1129.5 c 128,-1,80
 251 1129 251 1129 250 1126 c 128,-1,81
 249 1123 249 1123 248.5 1122 c 128,-1,82
 248 1121 248 1121 248 1116.5 c 128,-1,83
 248 1112 248 1112 248 1109.5 c 128,-1,84
 248 1107 248 1107 248 1101 c 128,-1,85
 248 1095 248 1095 248 1092 c 0,86,87
 248 1080 248 1080 245 1008 c 128,-1,88
 242 936 242 936 242 895 c 2,89,-1
 242 774 l 2,90,91
 242 732 242 732 244 709 c 1,92,93
 260 707 260 707 299 707 c 1,94,95
 334 705 334 705 442 705 c 0,96,97
 483 705 483 705 560.5 709 c 128,-1,98
 638 713 638 713 659 713 c 0,99,100
 687 713 687 713 719.5 710 c 128,-1,101
 752 707 752 707 760 707 c 0,102,103
 776 707 776 707 781 700.5 c 128,-1,104
 786 694 786 694 786 682 c 0,105,106
 786 678 786 678 784 659.5 c 128,-1,107
 782 641 782 641 782 618 c 0,108,109
 782 600 782 600 783 568.5 c 128,-1,110
 784 537 784 537 784 510 c 0,111,112
 784 477 784 477 766 477 c 0,113,114
 763 477 763 477 750 480 c 128,-1,115
 737 483 737 483 729 483 c 0,116,117
 724 483 724 483 662 485 c 128,-1,118
 600 487 600 487 524 487 c 0,119,120
 466 487 466 487 411.5 483 c 128,-1,121
 357 479 357 479 323.5 475 c 128,-1,122
 290 471 290 471 283 471 c 0,123,124
 260 471 260 471 256 473 c 1,125,126
 246 473 246 473 244 475 c 1,127,-1
 244 270 l 1,128,129
 258 270 258 270 266 272 c 1,130,131
 272 272 272 272 291.5 273 c 128,-1,132
 311 274 311 274 324 274 c 0,133,134
 342 274 342 274 427.5 275 c 128,-1,135
 513 276 513 276 565 276 c 0,136,137
 597 276 597 276 688.5 274 c 128,-1,138
 780 272 780 272 823 272 c 0,139,140
 844 272 844 272 873 273 c 128,-1,141
 902 274 902 274 909 274 c 0,142,143
 933 274 933 274 941.5 263 c 128,-1,144
 950 252 950 252 950 231 c 0,145,146
 950 225 950 225 949 210.5 c 128,-1,147
 948 196 948 196 948 190 c 0,148,149
 948 172 948 172 947 125.5 c 128,-1,150
 946 79 946 79 946 47 c 0,151,152
 946 33 946 33 942.5 24 c 128,-1,153
 939 15 939 15 935.5 10 c 128,-1,154
 932 5 932 5 921 3 c 128,-1,155
 910 1 910 1 903.5 1 c 128,-1,156
 897 1 897 1 878 1.5 c 128,-1,157
 859 2 859 2 848 2 c 0,158,159
 818 2 818 2 678 4 c 128,-1,160
 538 6 538 6 487 6 c 0,161,162
 429 6 429 6 299 2 c 128,-1,163
 169 -2 169 -2 164 -2 c 0,164,165
 162 -2 162 -2 158 -3 c 128,-1,166
 154 -4 154 -4 152 -4 c 0,167,168
 144 -4 144 -4 140 2 c 128,-1,169
 136 8 136 8 135.5 13 c 128,-1,170
 135 18 135 18 135 31 c 1,171,172
 133 54 133 54 133 106 c 0,173,174
 133 116 133 116 131 143.5 c 128,-1,175
 129 171 129 171 129 195 c 2,176,-1
 129 475 l 2,29,30
EndSplineSet
Validated: 1
Substitution2: "Single Substitution lookup 21 subtable" ebreve
Substitution2: "'aalt' Access All Alternates lookup 0 subtable" ebreve
Position2: "'cpsp' Capital Spacing lookup 0 subtable" dx=10 dy=0 dh=20 dv=0
EndChar

StartChar: Ecaron
Encoding: 282 282 31
Width: 1075
Flags: MW
HStem: -2 279 6 266<266 536> 487 217<459 480 414 589> 1130 301<204 396> 1133 311<671 718 636 739> 1384 41G<323 413>
VStem: 129 115<270 475 270 475 270 537> 143 98<763 774 774 871>
LayerCount: 2
Fore
SplineSet
807 1620 m 2,0,1
 803 1618 803 1618 792 1613 c 128,-1,2
 781 1608 781 1608 773 1604 c 128,-1,3
 765 1600 765 1600 747.5 1588.5 c 128,-1,4
 730 1577 730 1577 709 1561 c 1,5,6
 626 1513 626 1513 602 1507 c 1,7,8
 583 1499 583 1499 565 1499 c 1,9,10
 557 1497 557 1497 543 1497 c 0,11,12
 532 1497 532 1497 522 1499.5 c 128,-1,13
 512 1502 512 1502 506 1505 c 128,-1,14
 500 1508 500 1508 487 1515.5 c 128,-1,15
 474 1523 474 1523 465 1528 c 1,16,17
 454 1536 454 1536 328 1616 c 1,18,-1
 319 1621.5 l 2,19,20
 310 1627 310 1627 305.5 1630 c 128,-1,21
 301 1633 301 1633 292 1639 c 128,-1,22
 283 1645 283 1645 277.5 1650.5 c 128,-1,23
 272 1656 272 1656 266.5 1662 c 128,-1,24
 261 1668 261 1668 259 1674 c 128,-1,25
 257 1680 257 1680 258 1686 c 0,26,27
 266 1716 266 1716 291 1716 c 0,28,29
 306 1716 306 1716 346 1702 c 1,30,-1
 401 1688 l 1,31,32
 430 1677 430 1677 473 1651 c 1,33,-1
 539 1620 l 1,34,35
 605 1648 605 1648 631 1663 c 1,36,37
 678 1686 678 1686 750 1706 c 1,38,39
 790 1712 790 1712 827 1712 c 0,40,41
 850 1712 850 1712 863.5 1702 c 128,-1,42
 877 1692 877 1692 877 1679 c 0,43,44
 877 1665 877 1665 860 1655 c 1,45,-1
 807 1620 l 2,0,1
129 475 m 2,46,47
 129 532 129 532 136 621 c 128,-1,48
 143 710 143 710 143 793 c 128,-1,49
 143 876 143 876 138 953 c 128,-1,50
 133 1030 133 1030 133 1087 c 0,51,52
 133 1218 133 1218 139 1389 c 0,53,54
 139 1416 139 1416 148.5 1425 c 128,-1,55
 158 1434 158 1434 178 1434 c 0,56,57
 183 1434 183 1434 193.5 1433 c 128,-1,58
 204 1432 204 1432 209 1432 c 0,59,60
 217 1432 217 1432 266 1428.5 c 128,-1,61
 315 1425 315 1425 369 1425 c 0,62,63
 414 1425 414 1425 525.5 1434.5 c 128,-1,64
 637 1444 637 1444 676 1444 c 0,65,66
 724 1444 724 1444 806.5 1440 c 128,-1,67
 889 1436 889 1436 903 1436 c 0,68,69
 930 1436 930 1436 938 1423 c 128,-1,70
 946 1410 946 1410 946 1378 c 0,71,72
 946 1359 946 1359 950 1308 c 128,-1,73
 954 1257 954 1257 954 1223 c 0,74,75
 954 1182 954 1182 948 1147 c 1,76,77
 946 1116 946 1116 920 1116 c 0,78,79
 912 1116 912 1116 894.5 1121 c 128,-1,80
 877 1126 877 1126 874 1126 c 0,81,82
 838 1133 838 1133 696 1133 c 0,83,84
 670 1133 670 1133 618 1135 c 128,-1,85
 566 1137 566 1137 541 1137 c 0,86,87
 503 1137 503 1137 485 1135 c 0,88,89
 407 1130 407 1130 377 1130 c 0,90,91
 348 1130 348 1130 308.5 1131.5 c 128,-1,92
 269 1133 269 1133 268 1133 c 0,93,94
 264 1133 264 1133 261 1132.5 c 128,-1,95
 258 1132 258 1132 256 1131 c 128,-1,96
 254 1130 254 1130 252.5 1129.5 c 128,-1,97
 251 1129 251 1129 250 1126 c 128,-1,98
 249 1123 249 1123 248.5 1122 c 128,-1,99
 248 1121 248 1121 248 1116.5 c 128,-1,100
 248 1112 248 1112 248 1109.5 c 128,-1,101
 248 1107 248 1107 248 1101 c 128,-1,102
 248 1095 248 1095 248 1092 c 0,103,104
 248 1080 248 1080 245 1008 c 128,-1,105
 242 936 242 936 242 895 c 2,106,-1
 242 774 l 2,107,108
 242 732 242 732 244 709 c 1,109,110
 260 707 260 707 299 707 c 1,111,112
 334 705 334 705 442 705 c 0,113,114
 483 705 483 705 560.5 709 c 128,-1,115
 638 713 638 713 659 713 c 0,116,117
 687 713 687 713 719.5 710 c 128,-1,118
 752 707 752 707 760 707 c 0,119,120
 776 707 776 707 781 700.5 c 128,-1,121
 786 694 786 694 786 682 c 0,122,123
 786 678 786 678 784 659.5 c 128,-1,124
 782 641 782 641 782 618 c 0,125,126
 782 600 782 600 783 568.5 c 128,-1,127
 784 537 784 537 784 510 c 0,128,129
 784 477 784 477 766 477 c 0,130,131
 763 477 763 477 750 480 c 128,-1,132
 737 483 737 483 729 483 c 0,133,134
 724 483 724 483 662 485 c 128,-1,135
 600 487 600 487 524 487 c 0,136,137
 466 487 466 487 411.5 483 c 128,-1,138
 357 479 357 479 323.5 475 c 128,-1,139
 290 471 290 471 283 471 c 0,140,141
 260 471 260 471 256 473 c 1,142,143
 246 473 246 473 244 475 c 1,144,-1
 244 270 l 1,145,146
 258 270 258 270 266 272 c 1,147,148
 272 272 272 272 291.5 273 c 128,-1,149
 311 274 311 274 324 274 c 0,150,151
 342 274 342 274 427.5 275 c 128,-1,152
 513 276 513 276 565 276 c 0,153,154
 597 276 597 276 688.5 274 c 128,-1,155
 780 272 780 272 823 272 c 0,156,157
 844 272 844 272 873 273 c 128,-1,158
 902 274 902 274 909 274 c 0,159,160
 933 274 933 274 941.5 263 c 128,-1,161
 950 252 950 252 950 231 c 0,162,163
 950 225 950 225 949 210.5 c 128,-1,164
 948 196 948 196 948 190 c 0,165,166
 948 172 948 172 947 125.5 c 128,-1,167
 946 79 946 79 946 47 c 0,168,169
 946 33 946 33 942.5 24 c 128,-1,170
 939 15 939 15 935.5 10 c 128,-1,171
 932 5 932 5 921 3 c 128,-1,172
 910 1 910 1 903.5 1 c 128,-1,173
 897 1 897 1 878 1.5 c 128,-1,174
 859 2 859 2 848 2 c 0,175,176
 818 2 818 2 678 4 c 128,-1,177
 538 6 538 6 487 6 c 0,178,179
 429 6 429 6 299 2 c 128,-1,180
 169 -2 169 -2 164 -2 c 0,181,182
 162 -2 162 -2 158 -3 c 128,-1,183
 154 -4 154 -4 152 -4 c 0,184,185
 144 -4 144 -4 140 2 c 128,-1,186
 136 8 136 8 135.5 13 c 128,-1,187
 135 18 135 18 135 31 c 1,188,189
 133 54 133 54 133 106 c 0,190,191
 133 116 133 116 131 143.5 c 128,-1,192
 129 171 129 171 129 195 c 2,193,-1
 129 475 l 2,46,47
EndSplineSet
Validated: 524289
Substitution2: "Single Substitution lookup 21 subtable" ecaron
Substitution2: "'aalt' Access All Alternates lookup 0 subtable" ecaron
Position2: "'cpsp' Capital Spacing lookup 0 subtable" dx=10 dy=0 dh=20 dv=0
EndChar

StartChar: Ecircumflex
Encoding: 202 202 32
Width: 1032
Flags: MW
HStem: -2 279 6 266<266 536> 487 217<459 480 414 589> 1130 301<204 396> 1133 311<671 718 636 739> 1384 41G<323 413>
VStem: 129 115<270 475 270 475 270 537> 143 98<763 774 774 871>
LayerCount: 2
Fore
SplineSet
307 1593 m 2,0,1
 310 1595 310 1595 322 1600 c 128,-1,2
 334 1605 334 1605 342 1609 c 128,-1,3
 350 1613 350 1613 367.5 1625 c 128,-1,4
 385 1637 385 1637 406 1653 c 1,5,6
 487 1699 487 1699 512 1706 c 1,7,8
 531 1714 531 1714 549 1714 c 1,9,10
 557 1716 557 1716 571 1716 c 0,11,12
 582 1716 582 1716 592 1713.5 c 128,-1,13
 602 1711 602 1711 607.5 1708.5 c 128,-1,14
 613 1706 613 1706 627 1698 c 128,-1,15
 641 1690 641 1690 649 1686 c 1,16,17
 674 1668 674 1668 786 1597 c 0,18,19
 787 1596 787 1596 795 1591.5 c 128,-1,20
 803 1587 803 1587 808 1583.5 c 128,-1,21
 813 1580 813 1580 821.5 1574 c 128,-1,22
 830 1568 830 1568 836 1563 c 128,-1,23
 842 1558 842 1558 847.5 1552 c 128,-1,24
 853 1546 853 1546 855 1540 c 128,-1,25
 857 1534 857 1534 856 1528 c 0,26,27
 848 1497 848 1497 823 1497 c 0,28,29
 808 1497 808 1497 768 1511 c 1,30,-1
 713 1526 l 1,31,32
 684 1537 684 1537 641 1563 c 1,33,-1
 575 1593 l 1,34,-1
 481 1550 l 1,35,36
 437 1527 437 1527 365 1507 c 1,37,38
 325 1501 325 1501 287 1501 c 0,39,40
 264 1501 264 1501 251 1511 c 128,-1,41
 238 1521 238 1521 238 1534 c 0,42,43
 238 1551 238 1551 252 1559 c 2,44,-1
 307 1593 l 2,0,1
129 475 m 2,45,46
 129 532 129 532 136 621 c 128,-1,47
 143 710 143 710 143 793 c 128,-1,48
 143 876 143 876 138 953 c 128,-1,49
 133 1030 133 1030 133 1087 c 0,50,51
 133 1218 133 1218 139 1389 c 0,52,53
 139 1416 139 1416 148.5 1425 c 128,-1,54
 158 1434 158 1434 178 1434 c 0,55,56
 183 1434 183 1434 193.5 1433 c 128,-1,57
 204 1432 204 1432 209 1432 c 0,58,59
 217 1432 217 1432 266 1428.5 c 128,-1,60
 315 1425 315 1425 369 1425 c 0,61,62
 414 1425 414 1425 525.5 1434.5 c 128,-1,63
 637 1444 637 1444 676 1444 c 0,64,65
 724 1444 724 1444 806.5 1440 c 128,-1,66
 889 1436 889 1436 903 1436 c 0,67,68
 930 1436 930 1436 938 1423 c 128,-1,69
 946 1410 946 1410 946 1378 c 0,70,71
 946 1359 946 1359 950 1308 c 128,-1,72
 954 1257 954 1257 954 1223 c 0,73,74
 954 1182 954 1182 948 1147 c 1,75,76
 946 1116 946 1116 920 1116 c 0,77,78
 912 1116 912 1116 894.5 1121 c 128,-1,79
 877 1126 877 1126 874 1126 c 0,80,81
 838 1133 838 1133 696 1133 c 0,82,83
 670 1133 670 1133 618 1135 c 128,-1,84
 566 1137 566 1137 541 1137 c 0,85,86
 503 1137 503 1137 485 1135 c 0,87,88
 407 1130 407 1130 377 1130 c 0,89,90
 348 1130 348 1130 308.5 1131.5 c 128,-1,91
 269 1133 269 1133 268 1133 c 0,92,93
 264 1133 264 1133 261 1132.5 c 128,-1,94
 258 1132 258 1132 256 1131 c 128,-1,95
 254 1130 254 1130 252.5 1129.5 c 128,-1,96
 251 1129 251 1129 250 1126 c 128,-1,97
 249 1123 249 1123 248.5 1122 c 128,-1,98
 248 1121 248 1121 248 1116.5 c 128,-1,99
 248 1112 248 1112 248 1109.5 c 128,-1,100
 248 1107 248 1107 248 1101 c 128,-1,101
 248 1095 248 1095 248 1092 c 0,102,103
 248 1080 248 1080 245 1008 c 128,-1,104
 242 936 242 936 242 895 c 2,105,-1
 242 774 l 2,106,107
 242 732 242 732 244 709 c 1,108,109
 260 707 260 707 299 707 c 1,110,111
 334 705 334 705 442 705 c 0,112,113
 483 705 483 705 560.5 709 c 128,-1,114
 638 713 638 713 659 713 c 0,115,116
 687 713 687 713 719.5 710 c 128,-1,117
 752 707 752 707 760 707 c 0,118,119
 776 707 776 707 781 700.5 c 128,-1,120
 786 694 786 694 786 682 c 0,121,122
 786 678 786 678 784 659.5 c 128,-1,123
 782 641 782 641 782 618 c 0,124,125
 782 600 782 600 783 568.5 c 128,-1,126
 784 537 784 537 784 510 c 0,127,128
 784 477 784 477 766 477 c 0,129,130
 763 477 763 477 750 480 c 128,-1,131
 737 483 737 483 729 483 c 0,132,133
 724 483 724 483 662 485 c 128,-1,134
 600 487 600 487 524 487 c 0,135,136
 466 487 466 487 411.5 483 c 128,-1,137
 357 479 357 479 323.5 475 c 128,-1,138
 290 471 290 471 283 471 c 0,139,140
 260 471 260 471 256 473 c 1,141,142
 246 473 246 473 244 475 c 1,143,-1
 244 270 l 1,144,145
 258 270 258 270 266 272 c 1,146,147
 272 272 272 272 291.5 273 c 128,-1,148
 311 274 311 274 324 274 c 0,149,150
 342 274 342 274 427.5 275 c 128,-1,151
 513 276 513 276 565 276 c 0,152,153
 597 276 597 276 688.5 274 c 128,-1,154
 780 272 780 272 823 272 c 0,155,156
 844 272 844 272 873 273 c 128,-1,157
 902 274 902 274 909 274 c 0,158,159
 933 274 933 274 941.5 263 c 128,-1,160
 950 252 950 252 950 231 c 0,161,162
 950 225 950 225 949 210.5 c 128,-1,163
 948 196 948 196 948 190 c 0,164,165
 948 172 948 172 947 125.5 c 128,-1,166
 946 79 946 79 946 47 c 0,167,168
 946 33 946 33 942.5 24 c 128,-1,169
 939 15 939 15 935.5 10 c 128,-1,170
 932 5 932 5 921 3 c 128,-1,171
 910 1 910 1 903.5 1 c 128,-1,172
 897 1 897 1 878 1.5 c 128,-1,173
 859 2 859 2 848 2 c 0,174,175
 818 2 818 2 678 4 c 128,-1,176
 538 6 538 6 487 6 c 0,177,178
 429 6 429 6 299 2 c 128,-1,179
 169 -2 169 -2 164 -2 c 0,180,181
 162 -2 162 -2 158 -3 c 128,-1,182
 154 -4 154 -4 152 -4 c 0,183,184
 144 -4 144 -4 140 2 c 128,-1,185
 136 8 136 8 135.5 13 c 128,-1,186
 135 18 135 18 135 31 c 1,187,188
 133 54 133 54 133 106 c 0,189,190
 133 116 133 116 131 143.5 c 128,-1,191
 129 171 129 171 129 195 c 2,192,-1
 129 475 l 2,45,46
EndSplineSet
Validated: 1
Substitution2: "Single Substitution lookup 21 subtable" ecircumflex
Substitution2: "'aalt' Access All Alternates lookup 0 subtable" ecircumflex
Position2: "'cpsp' Capital Spacing lookup 0 subtable" dx=10 dy=0 dh=20 dv=0
EndChar

StartChar: Edieresis
Encoding: 203 203 33
Width: 1032
Flags: MW
HStem: -2 279 6 266<266 536> 487 217<459 480 414 589> 1130 301<204 396> 1133 311<671 718 636 739> 1384 41G<323 413> 1475 231<286 337 273 338> 1483 238<787 818>
VStem: 129 115<270 475 270 475 270 537> 143 98<763 774 774 871> 195 246<1561 1621> 664 240<1569 1625 1566 1650>
LayerCount: 2
Fore
SplineSet
664 1593 m 0,0,1
 664 1720 664 1720 815 1720 c 0,2,3
 854 1720 854 1720 878.5 1681.5 c 128,-1,4
 903 1643 903 1643 903 1593 c 0,5,6
 903 1548 903 1548 869.5 1515.5 c 128,-1,7
 836 1483 836 1483 774 1483 c 0,8,9
 714 1483 714 1483 689 1515.5 c 128,-1,10
 664 1548 664 1548 664 1593 c 0,0,1
440 1602 m 0,11,12
 440 1546 440 1546 398 1510.5 c 128,-1,13
 356 1475 356 1475 313 1475 c 0,14,15
 268 1475 268 1475 231.5 1508 c 128,-1,16
 195 1541 195 1541 195 1593 c 0,17,18
 195 1636 195 1636 227 1671 c 128,-1,19
 259 1706 259 1706 305 1706 c 0,20,21
 358 1706 358 1706 399 1679 c 128,-1,22
 440 1652 440 1652 440 1602 c 0,11,12
129 475 m 2,23,24
 129 532 129 532 136 621 c 128,-1,25
 143 710 143 710 143 793 c 128,-1,26
 143 876 143 876 138 953 c 128,-1,27
 133 1030 133 1030 133 1087 c 0,28,29
 133 1218 133 1218 139 1389 c 0,30,31
 139 1416 139 1416 148.5 1425 c 128,-1,32
 158 1434 158 1434 178 1434 c 0,33,34
 183 1434 183 1434 193.5 1433 c 128,-1,35
 204 1432 204 1432 209 1432 c 0,36,37
 217 1432 217 1432 266 1428.5 c 128,-1,38
 315 1425 315 1425 369 1425 c 0,39,40
 414 1425 414 1425 525.5 1434.5 c 128,-1,41
 637 1444 637 1444 676 1444 c 0,42,43
 724 1444 724 1444 806.5 1440 c 128,-1,44
 889 1436 889 1436 903 1436 c 0,45,46
 930 1436 930 1436 938 1423 c 128,-1,47
 946 1410 946 1410 946 1378 c 0,48,49
 946 1359 946 1359 950 1308 c 128,-1,50
 954 1257 954 1257 954 1223 c 0,51,52
 954 1182 954 1182 948 1147 c 1,53,54
 946 1116 946 1116 920 1116 c 0,55,56
 912 1116 912 1116 894.5 1121 c 128,-1,57
 877 1126 877 1126 874 1126 c 0,58,59
 838 1133 838 1133 696 1133 c 0,60,61
 670 1133 670 1133 618 1135 c 128,-1,62
 566 1137 566 1137 541 1137 c 0,63,64
 503 1137 503 1137 485 1135 c 0,65,66
 407 1130 407 1130 377 1130 c 0,67,68
 348 1130 348 1130 308.5 1131.5 c 128,-1,69
 269 1133 269 1133 268 1133 c 0,70,71
 264 1133 264 1133 261 1132.5 c 128,-1,72
 258 1132 258 1132 256 1131 c 128,-1,73
 254 1130 254 1130 252.5 1129.5 c 128,-1,74
 251 1129 251 1129 250 1126 c 128,-1,75
 249 1123 249 1123 248.5 1122 c 128,-1,76
 248 1121 248 1121 248 1116.5 c 128,-1,77
 248 1112 248 1112 248 1109.5 c 128,-1,78
 248 1107 248 1107 248 1101 c 128,-1,79
 248 1095 248 1095 248 1092 c 0,80,81
 248 1080 248 1080 245 1008 c 128,-1,82
 242 936 242 936 242 895 c 2,83,-1
 242 774 l 2,84,85
 242 732 242 732 244 709 c 1,86,87
 260 707 260 707 299 707 c 1,88,89
 334 705 334 705 442 705 c 0,90,91
 483 705 483 705 560.5 709 c 128,-1,92
 638 713 638 713 659 713 c 0,93,94
 687 713 687 713 719.5 710 c 128,-1,95
 752 707 752 707 760 707 c 0,96,97
 776 707 776 707 781 700.5 c 128,-1,98
 786 694 786 694 786 682 c 0,99,100
 786 678 786 678 784 659.5 c 128,-1,101
 782 641 782 641 782 618 c 0,102,103
 782 600 782 600 783 568.5 c 128,-1,104
 784 537 784 537 784 510 c 0,105,106
 784 477 784 477 766 477 c 0,107,108
 763 477 763 477 750 480 c 128,-1,109
 737 483 737 483 729 483 c 0,110,111
 724 483 724 483 662 485 c 128,-1,112
 600 487 600 487 524 487 c 0,113,114
 466 487 466 487 411.5 483 c 128,-1,115
 357 479 357 479 323.5 475 c 128,-1,116
 290 471 290 471 283 471 c 0,117,118
 260 471 260 471 256 473 c 1,119,120
 246 473 246 473 244 475 c 1,121,-1
 244 270 l 1,122,123
 258 270 258 270 266 272 c 1,124,125
 272 272 272 272 291.5 273 c 128,-1,126
 311 274 311 274 324 274 c 0,127,128
 342 274 342 274 427.5 275 c 128,-1,129
 513 276 513 276 565 276 c 0,130,131
 597 276 597 276 688.5 274 c 128,-1,132
 780 272 780 272 823 272 c 0,133,134
 844 272 844 272 873 273 c 128,-1,135
 902 274 902 274 909 274 c 0,136,137
 933 274 933 274 941.5 263 c 128,-1,138
 950 252 950 252 950 231 c 0,139,140
 950 225 950 225 949 210.5 c 128,-1,141
 948 196 948 196 948 190 c 0,142,143
 948 172 948 172 947 125.5 c 128,-1,144
 946 79 946 79 946 47 c 0,145,146
 946 33 946 33 942.5 24 c 128,-1,147
 939 15 939 15 935.5 10 c 128,-1,148
 932 5 932 5 921 3 c 128,-1,149
 910 1 910 1 903.5 1 c 128,-1,150
 897 1 897 1 878 1.5 c 128,-1,151
 859 2 859 2 848 2 c 0,152,153
 818 2 818 2 678 4 c 128,-1,154
 538 6 538 6 487 6 c 0,155,156
 429 6 429 6 299 2 c 128,-1,157
 169 -2 169 -2 164 -2 c 0,158,159
 162 -2 162 -2 158 -3 c 128,-1,160
 154 -4 154 -4 152 -4 c 0,161,162
 144 -4 144 -4 140 2 c 128,-1,163
 136 8 136 8 135.5 13 c 128,-1,164
 135 18 135 18 135 31 c 1,165,166
 133 54 133 54 133 106 c 0,167,168
 133 116 133 116 131 143.5 c 128,-1,169
 129 171 129 171 129 195 c 2,170,-1
 129 475 l 2,23,24
EndSplineSet
Validated: 1
Substitution2: "Single Substitution lookup 21 subtable" edieresis
Substitution2: "'aalt' Access All Alternates lookup 0 subtable" edieresis
Position2: "'cpsp' Capital Spacing lookup 0 subtable" dx=10 dy=0 dh=20 dv=0
EndChar

StartChar: Edotaccent
Encoding: 278 278 34
Width: 1075
Flags: MW
HStem: -2 279 6 266<266 536> 487 217<459 480 414 589> 1130 301<204 396> 1133 311<671 718 636 739> 1384 41G<323 413> 1475 246<516 570 504 571>
VStem: 129 115<270 475 270 475 270 537> 143 98<763 774 774 871> 420 260<1565 1629>
LayerCount: 2
Fore
SplineSet
680 1610 m 0,0,1
 680 1548 680 1548 636 1511.5 c 128,-1,2
 592 1475 592 1475 545 1475 c 0,3,4
 499 1475 499 1475 459.5 1510 c 128,-1,5
 420 1545 420 1545 420 1599 c 0,6,7
 420 1645 420 1645 454.5 1682.5 c 128,-1,8
 489 1720 489 1720 537 1720 c 0,9,10
 593 1720 593 1720 636.5 1690.5 c 128,-1,11
 680 1661 680 1661 680 1610 c 0,0,1
129 475 m 2,12,13
 129 532 129 532 136 621 c 128,-1,14
 143 710 143 710 143 793 c 128,-1,15
 143 876 143 876 138 953 c 128,-1,16
 133 1030 133 1030 133 1087 c 0,17,18
 133 1218 133 1218 139 1389 c 0,19,20
 139 1416 139 1416 148.5 1425 c 128,-1,21
 158 1434 158 1434 178 1434 c 0,22,23
 183 1434 183 1434 193.5 1433 c 128,-1,24
 204 1432 204 1432 209 1432 c 0,25,26
 217 1432 217 1432 266 1428.5 c 128,-1,27
 315 1425 315 1425 369 1425 c 0,28,29
 414 1425 414 1425 525.5 1434.5 c 128,-1,30
 637 1444 637 1444 676 1444 c 0,31,32
 724 1444 724 1444 806.5 1440 c 128,-1,33
 889 1436 889 1436 903 1436 c 0,34,35
 930 1436 930 1436 938 1423 c 128,-1,36
 946 1410 946 1410 946 1378 c 0,37,38
 946 1359 946 1359 950 1308 c 128,-1,39
 954 1257 954 1257 954 1223 c 0,40,41
 954 1182 954 1182 948 1147 c 1,42,43
 946 1116 946 1116 920 1116 c 0,44,45
 912 1116 912 1116 894.5 1121 c 128,-1,46
 877 1126 877 1126 874 1126 c 0,47,48
 838 1133 838 1133 696 1133 c 0,49,50
 670 1133 670 1133 618 1135 c 128,-1,51
 566 1137 566 1137 541 1137 c 0,52,53
 503 1137 503 1137 485 1135 c 0,54,55
 407 1130 407 1130 377 1130 c 0,56,57
 348 1130 348 1130 308.5 1131.5 c 128,-1,58
 269 1133 269 1133 268 1133 c 0,59,60
 264 1133 264 1133 261 1132.5 c 128,-1,61
 258 1132 258 1132 256 1131 c 128,-1,62
 254 1130 254 1130 252.5 1129.5 c 128,-1,63
 251 1129 251 1129 250 1126 c 128,-1,64
 249 1123 249 1123 248.5 1122 c 128,-1,65
 248 1121 248 1121 248 1116.5 c 128,-1,66
 248 1112 248 1112 248 1109.5 c 128,-1,67
 248 1107 248 1107 248 1101 c 128,-1,68
 248 1095 248 1095 248 1092 c 0,69,70
 248 1080 248 1080 245 1008 c 128,-1,71
 242 936 242 936 242 895 c 2,72,-1
 242 774 l 2,73,74
 242 732 242 732 244 709 c 1,75,76
 260 707 260 707 299 707 c 1,77,78
 334 705 334 705 442 705 c 0,79,80
 483 705 483 705 560.5 709 c 128,-1,81
 638 713 638 713 659 713 c 0,82,83
 687 713 687 713 719.5 710 c 128,-1,84
 752 707 752 707 760 707 c 0,85,86
 776 707 776 707 781 700.5 c 128,-1,87
 786 694 786 694 786 682 c 0,88,89
 786 678 786 678 784 659.5 c 128,-1,90
 782 641 782 641 782 618 c 0,91,92
 782 600 782 600 783 568.5 c 128,-1,93
 784 537 784 537 784 510 c 0,94,95
 784 477 784 477 766 477 c 0,96,97
 763 477 763 477 750 480 c 128,-1,98
 737 483 737 483 729 483 c 0,99,100
 724 483 724 483 662 485 c 128,-1,101
 600 487 600 487 524 487 c 0,102,103
 466 487 466 487 411.5 483 c 128,-1,104
 357 479 357 479 323.5 475 c 128,-1,105
 290 471 290 471 283 471 c 0,106,107
 260 471 260 471 256 473 c 1,108,109
 246 473 246 473 244 475 c 1,110,-1
 244 270 l 1,111,112
 258 270 258 270 266 272 c 1,113,114
 272 272 272 272 291.5 273 c 128,-1,115
 311 274 311 274 324 274 c 0,116,117
 342 274 342 274 427.5 275 c 128,-1,118
 513 276 513 276 565 276 c 0,119,120
 597 276 597 276 688.5 274 c 128,-1,121
 780 272 780 272 823 272 c 0,122,123
 844 272 844 272 873 273 c 128,-1,124
 902 274 902 274 909 274 c 0,125,126
 933 274 933 274 941.5 263 c 128,-1,127
 950 252 950 252 950 231 c 0,128,129
 950 225 950 225 949 210.5 c 128,-1,130
 948 196 948 196 948 190 c 0,131,132
 948 172 948 172 947 125.5 c 128,-1,133
 946 79 946 79 946 47 c 0,134,135
 946 33 946 33 942.5 24 c 128,-1,136
 939 15 939 15 935.5 10 c 128,-1,137
 932 5 932 5 921 3 c 128,-1,138
 910 1 910 1 903.5 1 c 128,-1,139
 897 1 897 1 878 1.5 c 128,-1,140
 859 2 859 2 848 2 c 0,141,142
 818 2 818 2 678 4 c 128,-1,143
 538 6 538 6 487 6 c 0,144,145
 429 6 429 6 299 2 c 128,-1,146
 169 -2 169 -2 164 -2 c 0,147,148
 162 -2 162 -2 158 -3 c 128,-1,149
 154 -4 154 -4 152 -4 c 0,150,151
 144 -4 144 -4 140 2 c 128,-1,152
 136 8 136 8 135.5 13 c 128,-1,153
 135 18 135 18 135 31 c 1,154,155
 133 54 133 54 133 106 c 0,156,157
 133 116 133 116 131 143.5 c 128,-1,158
 129 171 129 171 129 195 c 2,159,-1
 129 475 l 2,12,13
EndSplineSet
Validated: 1
Substitution2: "Single Substitution lookup 21 subtable" edotaccent
Substitution2: "'aalt' Access All Alternates lookup 0 subtable" edotaccent
Position2: "'cpsp' Capital Spacing lookup 0 subtable" dx=10 dy=0 dh=20 dv=0
EndChar

StartChar: Edotbelow
Encoding: 7864 7864 35
Width: 1075
Flags: MW
HStem: -291 246<496 550 483 551> -2 279 6 266<266 536> 487 217<459 480 414 589> 1130 301<204 396> 1133 311<671 718 636 739> 1384 41G<323 413>
VStem: 129 115<270 475 270 475 270 537> 143 98<763 774 774 871> 399 260<-201 -136>
LayerCount: 2
Fore
SplineSet
129 475 m 2,0,1
 129 532 129 532 136 621 c 128,-1,2
 143 710 143 710 143 793 c 128,-1,3
 143 876 143 876 138 953 c 128,-1,4
 133 1030 133 1030 133 1087 c 0,5,6
 133 1218 133 1218 139 1389 c 0,7,8
 139 1416 139 1416 148.5 1425 c 128,-1,9
 158 1434 158 1434 178 1434 c 0,10,11
 183 1434 183 1434 193.5 1433 c 128,-1,12
 204 1432 204 1432 209 1432 c 0,13,14
 217 1432 217 1432 266 1428.5 c 128,-1,15
 315 1425 315 1425 369 1425 c 0,16,17
 414 1425 414 1425 525.5 1434.5 c 128,-1,18
 637 1444 637 1444 676 1444 c 0,19,20
 724 1444 724 1444 806.5 1440 c 128,-1,21
 889 1436 889 1436 903 1436 c 0,22,23
 930 1436 930 1436 938 1423 c 128,-1,24
 946 1410 946 1410 946 1378 c 0,25,26
 946 1359 946 1359 950 1308 c 128,-1,27
 954 1257 954 1257 954 1223 c 0,28,29
 954 1182 954 1182 948 1147 c 1,30,31
 946 1116 946 1116 920 1116 c 0,32,33
 912 1116 912 1116 894.5 1121 c 128,-1,34
 877 1126 877 1126 874 1126 c 0,35,36
 838 1133 838 1133 696 1133 c 0,37,38
 670 1133 670 1133 618 1135 c 128,-1,39
 566 1137 566 1137 541 1137 c 0,40,41
 503 1137 503 1137 485 1135 c 0,42,43
 407 1130 407 1130 377 1130 c 0,44,45
 348 1130 348 1130 308.5 1131.5 c 128,-1,46
 269 1133 269 1133 268 1133 c 0,47,48
 264 1133 264 1133 261 1132.5 c 128,-1,49
 258 1132 258 1132 256 1131 c 128,-1,50
 254 1130 254 1130 252.5 1129.5 c 128,-1,51
 251 1129 251 1129 250 1126 c 128,-1,52
 249 1123 249 1123 248.5 1122 c 128,-1,53
 248 1121 248 1121 248 1116.5 c 128,-1,54
 248 1112 248 1112 248 1109.5 c 128,-1,55
 248 1107 248 1107 248 1101 c 128,-1,56
 248 1095 248 1095 248 1092 c 0,57,58
 248 1080 248 1080 245 1008 c 128,-1,59
 242 936 242 936 242 895 c 2,60,-1
 242 774 l 2,61,62
 242 732 242 732 244 709 c 1,63,64
 260 707 260 707 299 707 c 1,65,66
 334 705 334 705 442 705 c 0,67,68
 483 705 483 705 560.5 709 c 128,-1,69
 638 713 638 713 659 713 c 0,70,71
 687 713 687 713 719.5 710 c 128,-1,72
 752 707 752 707 760 707 c 0,73,74
 776 707 776 707 781 700.5 c 128,-1,75
 786 694 786 694 786 682 c 0,76,77
 786 678 786 678 784 659.5 c 128,-1,78
 782 641 782 641 782 618 c 0,79,80
 782 600 782 600 783 568.5 c 128,-1,81
 784 537 784 537 784 510 c 0,82,83
 784 477 784 477 766 477 c 0,84,85
 763 477 763 477 750 480 c 128,-1,86
 737 483 737 483 729 483 c 0,87,88
 724 483 724 483 662 485 c 128,-1,89
 600 487 600 487 524 487 c 0,90,91
 466 487 466 487 411.5 483 c 128,-1,92
 357 479 357 479 323.5 475 c 128,-1,93
 290 471 290 471 283 471 c 0,94,95
 260 471 260 471 256 473 c 1,96,97
 246 473 246 473 244 475 c 1,98,-1
 244 270 l 1,99,100
 258 270 258 270 266 272 c 1,101,102
 272 272 272 272 291.5 273 c 128,-1,103
 311 274 311 274 324 274 c 0,104,105
 342 274 342 274 427.5 275 c 128,-1,106
 513 276 513 276 565 276 c 0,107,108
 597 276 597 276 688.5 274 c 128,-1,109
 780 272 780 272 823 272 c 0,110,111
 844 272 844 272 873 273 c 128,-1,112
 902 274 902 274 909 274 c 0,113,114
 933 274 933 274 941.5 263 c 128,-1,115
 950 252 950 252 950 231 c 0,116,117
 950 225 950 225 949 210.5 c 128,-1,118
 948 196 948 196 948 190 c 0,119,120
 948 172 948 172 947 125.5 c 128,-1,121
 946 79 946 79 946 47 c 0,122,123
 946 33 946 33 942.5 24 c 128,-1,124
 939 15 939 15 935.5 10 c 128,-1,125
 932 5 932 5 921 3 c 128,-1,126
 910 1 910 1 903.5 1 c 128,-1,127
 897 1 897 1 878 1.5 c 128,-1,128
 859 2 859 2 848 2 c 0,129,130
 818 2 818 2 678 4 c 128,-1,131
 538 6 538 6 487 6 c 0,132,133
 429 6 429 6 299 2 c 128,-1,134
 169 -2 169 -2 164 -2 c 0,135,136
 162 -2 162 -2 158 -3 c 128,-1,137
 154 -4 154 -4 152 -4 c 0,138,139
 144 -4 144 -4 140 2 c 128,-1,140
 136 8 136 8 135.5 13 c 128,-1,141
 135 18 135 18 135 31 c 1,142,143
 133 54 133 54 133 106 c 0,144,145
 133 116 133 116 131 143.5 c 128,-1,146
 129 171 129 171 129 195 c 2,147,-1
 129 475 l 2,0,1
659 -156 m 0,148,149
 659 -218 659 -218 615 -254.5 c 128,-1,150
 571 -291 571 -291 524 -291 c 0,151,152
 478 -291 478 -291 438.5 -255.5 c 128,-1,153
 399 -220 399 -220 399 -166 c 0,154,155
 399 -120 399 -120 433.5 -82.5 c 128,-1,156
 468 -45 468 -45 516 -45 c 0,157,158
 572 -45 572 -45 615.5 -75 c 128,-1,159
 659 -105 659 -105 659 -156 c 0,148,149
EndSplineSet
Validated: 1
Substitution2: "Single Substitution lookup 21 subtable" edotbelow
Substitution2: "'aalt' Access All Alternates lookup 0 subtable" edotbelow
Position2: "'cpsp' Capital Spacing lookup 0 subtable" dx=10 dy=0 dh=20 dv=0
EndChar

StartChar: Egrave
Encoding: 200 200 36
Width: 1032
Flags: MW
HStem: -2 279 6 266<266 536> 487 217<459 480 414 589> 1130 301<204 396> 1133 311<671 718 636 739> 1384 41G<323 413> 1538 174
VStem: 129 115<270 475 270 475 270 537> 143 98<763 774 774 871>
LayerCount: 2
Fore
SplineSet
547 1554 m 1,0,1
 501 1575 501 1575 466 1583 c 128,-1,2
 431 1591 431 1591 420 1597 c 1,3,4
 395 1604 395 1604 358 1619 c 128,-1,5
 321 1634 321 1634 317 1645 c 1,6,7
 311 1657 311 1657 311 1667 c 0,8,9
 311 1695 311 1695 350 1712 c 1,10,11
 381 1729 381 1729 395 1729 c 0,12,13
 402 1729 402 1729 459 1712 c 1,14,15
 554 1671 554 1671 635 1653 c 0,16,17
 636 1653 636 1653 658 1644 c 128,-1,18
 680 1635 680 1635 692 1629.5 c 128,-1,19
 704 1624 704 1624 719 1611.5 c 128,-1,20
 734 1599 734 1599 737 1585 c 0,21,22
 741 1565 741 1565 741 1559 c 0,23,24
 741 1534 741 1534 720 1528.5 c 128,-1,25
 699 1523 699 1523 664 1530 c 1,26,27
 641 1527 641 1527 592 1538 c 1,28,-1
 547 1554 l 1,0,1
129 475 m 2,29,30
 129 532 129 532 136 621 c 128,-1,31
 143 710 143 710 143 793 c 128,-1,32
 143 876 143 876 138 953 c 128,-1,33
 133 1030 133 1030 133 1087 c 0,34,35
 133 1218 133 1218 139 1389 c 0,36,37
 139 1416 139 1416 148.5 1425 c 128,-1,38
 158 1434 158 1434 178 1434 c 0,39,40
 183 1434 183 1434 193.5 1433 c 128,-1,41
 204 1432 204 1432 209 1432 c 0,42,43
 217 1432 217 1432 266 1428.5 c 128,-1,44
 315 1425 315 1425 369 1425 c 0,45,46
 414 1425 414 1425 525.5 1434.5 c 128,-1,47
 637 1444 637 1444 676 1444 c 0,48,49
 724 1444 724 1444 806.5 1440 c 128,-1,50
 889 1436 889 1436 903 1436 c 0,51,52
 930 1436 930 1436 938 1423 c 128,-1,53
 946 1410 946 1410 946 1378 c 0,54,55
 946 1359 946 1359 950 1308 c 128,-1,56
 954 1257 954 1257 954 1223 c 0,57,58
 954 1182 954 1182 948 1147 c 1,59,60
 946 1116 946 1116 920 1116 c 0,61,62
 912 1116 912 1116 894.5 1121 c 128,-1,63
 877 1126 877 1126 874 1126 c 0,64,65
 838 1133 838 1133 696 1133 c 0,66,67
 670 1133 670 1133 618 1135 c 128,-1,68
 566 1137 566 1137 541 1137 c 0,69,70
 503 1137 503 1137 485 1135 c 0,71,72
 407 1130 407 1130 377 1130 c 0,73,74
 348 1130 348 1130 308.5 1131.5 c 128,-1,75
 269 1133 269 1133 268 1133 c 0,76,77
 264 1133 264 1133 261 1132.5 c 128,-1,78
 258 1132 258 1132 256 1131 c 128,-1,79
 254 1130 254 1130 252.5 1129.5 c 128,-1,80
 251 1129 251 1129 250 1126 c 128,-1,81
 249 1123 249 1123 248.5 1122 c 128,-1,82
 248 1121 248 1121 248 1116.5 c 128,-1,83
 248 1112 248 1112 248 1109.5 c 128,-1,84
 248 1107 248 1107 248 1101 c 128,-1,85
 248 1095 248 1095 248 1092 c 0,86,87
 248 1080 248 1080 245 1008 c 128,-1,88
 242 936 242 936 242 895 c 2,89,-1
 242 774 l 2,90,91
 242 732 242 732 244 709 c 1,92,93
 260 707 260 707 299 707 c 1,94,95
 334 705 334 705 442 705 c 0,96,97
 483 705 483 705 560.5 709 c 128,-1,98
 638 713 638 713 659 713 c 0,99,100
 687 713 687 713 719.5 710 c 128,-1,101
 752 707 752 707 760 707 c 0,102,103
 776 707 776 707 781 700.5 c 128,-1,104
 786 694 786 694 786 682 c 0,105,106
 786 678 786 678 784 659.5 c 128,-1,107
 782 641 782 641 782 618 c 0,108,109
 782 600 782 600 783 568.5 c 128,-1,110
 784 537 784 537 784 510 c 0,111,112
 784 477 784 477 766 477 c 0,113,114
 763 477 763 477 750 480 c 128,-1,115
 737 483 737 483 729 483 c 0,116,117
 724 483 724 483 662 485 c 128,-1,118
 600 487 600 487 524 487 c 0,119,120
 466 487 466 487 411.5 483 c 128,-1,121
 357 479 357 479 323.5 475 c 128,-1,122
 290 471 290 471 283 471 c 0,123,124
 260 471 260 471 256 473 c 1,125,126
 246 473 246 473 244 475 c 1,127,-1
 244 270 l 1,128,129
 258 270 258 270 266 272 c 1,130,131
 272 272 272 272 291.5 273 c 128,-1,132
 311 274 311 274 324 274 c 0,133,134
 342 274 342 274 427.5 275 c 128,-1,135
 513 276 513 276 565 276 c 0,136,137
 597 276 597 276 688.5 274 c 128,-1,138
 780 272 780 272 823 272 c 0,139,140
 844 272 844 272 873 273 c 128,-1,141
 902 274 902 274 909 274 c 0,142,143
 933 274 933 274 941.5 263 c 128,-1,144
 950 252 950 252 950 231 c 0,145,146
 950 225 950 225 949 210.5 c 128,-1,147
 948 196 948 196 948 190 c 0,148,149
 948 172 948 172 947 125.5 c 128,-1,150
 946 79 946 79 946 47 c 0,151,152
 946 33 946 33 942.5 24 c 128,-1,153
 939 15 939 15 935.5 10 c 128,-1,154
 932 5 932 5 921 3 c 128,-1,155
 910 1 910 1 903.5 1 c 128,-1,156
 897 1 897 1 878 1.5 c 128,-1,157
 859 2 859 2 848 2 c 0,158,159
 818 2 818 2 678 4 c 128,-1,160
 538 6 538 6 487 6 c 0,161,162
 429 6 429 6 299 2 c 128,-1,163
 169 -2 169 -2 164 -2 c 0,164,165
 162 -2 162 -2 158 -3 c 128,-1,166
 154 -4 154 -4 152 -4 c 0,167,168
 144 -4 144 -4 140 2 c 128,-1,169
 136 8 136 8 135.5 13 c 128,-1,170
 135 18 135 18 135 31 c 1,171,172
 133 54 133 54 133 106 c 0,173,174
 133 116 133 116 131 143.5 c 128,-1,175
 129 171 129 171 129 195 c 2,176,-1
 129 475 l 2,29,30
EndSplineSet
Validated: 33
Substitution2: "Single Substitution lookup 21 subtable" egrave
Substitution2: "'aalt' Access All Alternates lookup 0 subtable" egrave
Position2: "'cpsp' Capital Spacing lookup 0 subtable" dx=10 dy=0 dh=20 dv=0
EndChar

StartChar: Emacron
Encoding: 274 274 37
Width: 1075
Flags: MW
HStem: -2 279 6 266<266 536> 487 217<459 480 414 589> 1130 301<204 396> 1133 311<671 718 636 739> 1384 41G<323 413> 1587 115<358 367 367 637>
VStem: 129 115<270 475 270 475 270 537> 143 98<763 774 774 871>
LayerCount: 2
Fore
SplineSet
817 1702 m 2,0,1
 820 1702 820 1702 824.5 1703 c 128,-1,2
 829 1704 829 1704 831 1704 c 0,3,4
 842 1704 842 1704 847 1698.5 c 128,-1,5
 852 1693 852 1693 853 1687 c 128,-1,6
 854 1681 854 1681 854 1669 c 2,7,-1
 854 1608 l 2,8,9
 854 1593 854 1593 845.5 1587 c 128,-1,10
 837 1581 837 1581 809 1581 c 0,11,12
 792 1581 792 1581 727.5 1584 c 128,-1,13
 663 1587 663 1587 637 1587 c 2,14,-1
 367 1587 l 2,15,16
 272 1587 272 1587 262 1581 c 1,17,18
 246 1581 246 1581 246 1608 c 2,19,-1
 246 1663 l 2,20,21
 246 1684 246 1684 250.5 1693 c 128,-1,22
 255 1702 255 1702 268 1702 c 2,23,-1
 817 1702 l 2,0,1
129 475 m 2,24,25
 129 532 129 532 136 621 c 128,-1,26
 143 710 143 710 143 793 c 128,-1,27
 143 876 143 876 138 953 c 128,-1,28
 133 1030 133 1030 133 1087 c 0,29,30
 133 1218 133 1218 139 1389 c 0,31,32
 139 1416 139 1416 148.5 1425 c 128,-1,33
 158 1434 158 1434 178 1434 c 0,34,35
 183 1434 183 1434 193.5 1433 c 128,-1,36
 204 1432 204 1432 209 1432 c 0,37,38
 217 1432 217 1432 266 1428.5 c 128,-1,39
 315 1425 315 1425 369 1425 c 0,40,41
 414 1425 414 1425 525.5 1434.5 c 128,-1,42
 637 1444 637 1444 676 1444 c 0,43,44
 724 1444 724 1444 806.5 1440 c 128,-1,45
 889 1436 889 1436 903 1436 c 0,46,47
 930 1436 930 1436 938 1423 c 128,-1,48
 946 1410 946 1410 946 1378 c 0,49,50
 946 1359 946 1359 950 1308 c 128,-1,51
 954 1257 954 1257 954 1223 c 0,52,53
 954 1182 954 1182 948 1147 c 1,54,55
 946 1116 946 1116 920 1116 c 0,56,57
 912 1116 912 1116 894.5 1121 c 128,-1,58
 877 1126 877 1126 874 1126 c 0,59,60
 838 1133 838 1133 696 1133 c 0,61,62
 670 1133 670 1133 618 1135 c 128,-1,63
 566 1137 566 1137 541 1137 c 0,64,65
 503 1137 503 1137 485 1135 c 0,66,67
 407 1130 407 1130 377 1130 c 0,68,69
 348 1130 348 1130 308.5 1131.5 c 128,-1,70
 269 1133 269 1133 268 1133 c 0,71,72
 264 1133 264 1133 261 1132.5 c 128,-1,73
 258 1132 258 1132 256 1131 c 128,-1,74
 254 1130 254 1130 252.5 1129.5 c 128,-1,75
 251 1129 251 1129 250 1126 c 128,-1,76
 249 1123 249 1123 248.5 1122 c 128,-1,77
 248 1121 248 1121 248 1116.5 c 128,-1,78
 248 1112 248 1112 248 1109.5 c 128,-1,79
 248 1107 248 1107 248 1101 c 128,-1,80
 248 1095 248 1095 248 1092 c 0,81,82
 248 1080 248 1080 245 1008 c 128,-1,83
 242 936 242 936 242 895 c 2,84,-1
 242 774 l 2,85,86
 242 732 242 732 244 709 c 1,87,88
 260 707 260 707 299 707 c 1,89,90
 334 705 334 705 442 705 c 0,91,92
 483 705 483 705 560.5 709 c 128,-1,93
 638 713 638 713 659 713 c 0,94,95
 687 713 687 713 719.5 710 c 128,-1,96
 752 707 752 707 760 707 c 0,97,98
 776 707 776 707 781 700.5 c 128,-1,99
 786 694 786 694 786 682 c 0,100,101
 786 678 786 678 784 659.5 c 128,-1,102
 782 641 782 641 782 618 c 0,103,104
 782 600 782 600 783 568.5 c 128,-1,105
 784 537 784 537 784 510 c 0,106,107
 784 477 784 477 766 477 c 0,108,109
 763 477 763 477 750 480 c 128,-1,110
 737 483 737 483 729 483 c 0,111,112
 724 483 724 483 662 485 c 128,-1,113
 600 487 600 487 524 487 c 0,114,115
 466 487 466 487 411.5 483 c 128,-1,116
 357 479 357 479 323.5 475 c 128,-1,117
 290 471 290 471 283 471 c 0,118,119
 260 471 260 471 256 473 c 1,120,121
 246 473 246 473 244 475 c 1,122,-1
 244 270 l 1,123,124
 258 270 258 270 266 272 c 1,125,126
 272 272 272 272 291.5 273 c 128,-1,127
 311 274 311 274 324 274 c 0,128,129
 342 274 342 274 427.5 275 c 128,-1,130
 513 276 513 276 565 276 c 0,131,132
 597 276 597 276 688.5 274 c 128,-1,133
 780 272 780 272 823 272 c 0,134,135
 844 272 844 272 873 273 c 128,-1,136
 902 274 902 274 909 274 c 0,137,138
 933 274 933 274 941.5 263 c 128,-1,139
 950 252 950 252 950 231 c 0,140,141
 950 225 950 225 949 210.5 c 128,-1,142
 948 196 948 196 948 190 c 0,143,144
 948 172 948 172 947 125.5 c 128,-1,145
 946 79 946 79 946 47 c 0,146,147
 946 33 946 33 942.5 24 c 128,-1,148
 939 15 939 15 935.5 10 c 128,-1,149
 932 5 932 5 921 3 c 128,-1,150
 910 1 910 1 903.5 1 c 128,-1,151
 897 1 897 1 878 1.5 c 128,-1,152
 859 2 859 2 848 2 c 0,153,154
 818 2 818 2 678 4 c 128,-1,155
 538 6 538 6 487 6 c 0,156,157
 429 6 429 6 299 2 c 128,-1,158
 169 -2 169 -2 164 -2 c 0,159,160
 162 -2 162 -2 158 -3 c 128,-1,161
 154 -4 154 -4 152 -4 c 0,162,163
 144 -4 144 -4 140 2 c 128,-1,164
 136 8 136 8 135.5 13 c 128,-1,165
 135 18 135 18 135 31 c 1,166,167
 133 54 133 54 133 106 c 0,168,169
 133 116 133 116 131 143.5 c 128,-1,170
 129 171 129 171 129 195 c 2,171,-1
 129 475 l 2,24,25
EndSplineSet
Validated: 1
Substitution2: "Single Substitution lookup 21 subtable" emacron
Substitution2: "'aalt' Access All Alternates lookup 0 subtable" emacron
Position2: "'cpsp' Capital Spacing lookup 0 subtable" dx=10 dy=0 dh=20 dv=0
EndChar

StartChar: Eogonek
Encoding: 280 280 38
Width: 1075
Flags: MW
HStem: -350 152 -2 43G<162 174> 2 270<816 842> 487 217<459 480 414 589> 1130 301<204 396> 1133 311<671 718 636 739> 1384 41G<323 413>
VStem: 129 115<270 270 270 475> 143 98<763 774 774 871> 346 145<-186 -109>
LayerCount: 2
Fore
SplineSet
244 270 m 1,0,1
 258 270 258 270 266 272 c 1,2,3
 272 272 272 272 291.5 273 c 128,-1,4
 311 274 311 274 324 274 c 0,5,6
 342 274 342 274 427.5 275 c 128,-1,7
 513 276 513 276 565 276 c 0,8,9
 597 276 597 276 688.5 274 c 128,-1,10
 780 272 780 272 823 272 c 0,11,12
 844 272 844 272 873 273 c 128,-1,13
 902 274 902 274 909 274 c 0,14,15
 933 274 933 274 941.5 263 c 128,-1,16
 950 252 950 252 950 231 c 0,17,18
 950 225 950 225 949 210.5 c 128,-1,19
 948 196 948 196 948 190 c 0,20,21
 948 172 948 172 947 125.5 c 128,-1,22
 946 79 946 79 946 47 c 0,23,24
 946 33 946 33 942.5 24 c 128,-1,25
 939 15 939 15 935.5 10 c 128,-1,26
 932 5 932 5 921 3 c 128,-1,27
 910 1 910 1 903.5 1 c 128,-1,28
 897 1 897 1 878 1.5 c 128,-1,29
 859 2 859 2 848 2 c 0,30,31
 821 2 821 2 690 4 c 128,-1,32
 559 6 559 6 504 6 c 1,33,34
 504 -5 504 -5 500 -33.5 c 128,-1,35
 496 -62 496 -62 494 -78 c 0,36,37
 492 -90 492 -90 492 -115 c 0,38,39
 492 -196 492 -196 532 -199 c 0,40,41
 575 -202 575 -202 607.5 -195 c 128,-1,42
 640 -188 640 -188 653.5 -178.5 c 128,-1,43
 667 -169 667 -169 678 -160.5 c 128,-1,44
 689 -152 689 -152 694 -152 c 0,45,46
 706 -152 706 -152 720.5 -170 c 128,-1,47
 735 -188 735 -188 735 -203 c 0,48,49
 735 -243 735 -243 653.5 -295 c 128,-1,50
 572 -347 572 -347 514 -350 c 1,51,52
 432 -352 432 -352 391 -317.5 c 128,-1,53
 350 -283 350 -283 346 -186 c 1,54,55
 346 -151 346 -151 365 -92 c 0,56,57
 379 -48 379 -48 393 -16 c 1,58,-1
 403 4 l 1,59,60
 362 3 362 3 305 1.5 c 128,-1,61
 248 0 248 0 210 -1 c 128,-1,62
 172 -2 172 -2 164 -2 c 0,63,64
 162 -2 162 -2 158 -3 c 128,-1,65
 154 -4 154 -4 152 -4 c 0,66,67
 144 -4 144 -4 140 2 c 128,-1,68
 136 8 136 8 135.5 13 c 128,-1,69
 135 18 135 18 135 31 c 1,70,71
 133 54 133 54 133 106 c 0,72,73
 133 116 133 116 131 143.5 c 128,-1,74
 129 171 129 171 129 195 c 2,75,-1
 129 475 l 2,76,77
 129 532 129 532 136 621 c 128,-1,78
 143 710 143 710 143 793 c 128,-1,79
 143 876 143 876 138 953 c 128,-1,80
 133 1030 133 1030 133 1087 c 0,81,82
 133 1218 133 1218 139 1389 c 0,83,84
 139 1416 139 1416 148.5 1425 c 128,-1,85
 158 1434 158 1434 178 1434 c 0,86,87
 183 1434 183 1434 193.5 1433 c 128,-1,88
 204 1432 204 1432 209 1432 c 0,89,90
 217 1432 217 1432 266 1428.5 c 128,-1,91
 315 1425 315 1425 369 1425 c 0,92,93
 414 1425 414 1425 525.5 1434.5 c 128,-1,94
 637 1444 637 1444 676 1444 c 0,95,96
 724 1444 724 1444 806.5 1440 c 128,-1,97
 889 1436 889 1436 903 1436 c 0,98,99
 930 1436 930 1436 938 1423 c 128,-1,100
 946 1410 946 1410 946 1378 c 0,101,102
 946 1359 946 1359 950 1308 c 128,-1,103
 954 1257 954 1257 954 1223 c 0,104,105
 954 1182 954 1182 948 1147 c 1,106,107
 946 1116 946 1116 920 1116 c 0,108,109
 912 1116 912 1116 894.5 1121 c 128,-1,110
 877 1126 877 1126 874 1126 c 0,111,112
 838 1133 838 1133 696 1133 c 0,113,114
 670 1133 670 1133 618 1135 c 128,-1,115
 566 1137 566 1137 541 1137 c 0,116,117
 503 1137 503 1137 485 1135 c 0,118,119
 407 1130 407 1130 377 1130 c 0,120,121
 348 1130 348 1130 308.5 1131.5 c 128,-1,122
 269 1133 269 1133 268 1133 c 0,123,124
 264 1133 264 1133 261 1132.5 c 128,-1,125
 258 1132 258 1132 256 1131 c 128,-1,126
 254 1130 254 1130 252.5 1129.5 c 128,-1,127
 251 1129 251 1129 250 1126 c 128,-1,128
 249 1123 249 1123 248.5 1122 c 128,-1,129
 248 1121 248 1121 248 1116.5 c 128,-1,130
 248 1112 248 1112 248 1109.5 c 128,-1,131
 248 1107 248 1107 248 1101 c 128,-1,132
 248 1095 248 1095 248 1092 c 0,133,134
 248 1080 248 1080 245 1008 c 128,-1,135
 242 936 242 936 242 895 c 2,136,-1
 242 774 l 2,137,138
 242 732 242 732 244 709 c 1,139,140
 260 707 260 707 299 707 c 1,141,142
 334 705 334 705 442 705 c 0,143,144
 483 705 483 705 560.5 709 c 128,-1,145
 638 713 638 713 659 713 c 0,146,147
 687 713 687 713 719.5 710 c 128,-1,148
 752 707 752 707 760 707 c 0,149,150
 776 707 776 707 781 700.5 c 128,-1,151
 786 694 786 694 786 682 c 0,152,153
 786 678 786 678 784 659.5 c 128,-1,154
 782 641 782 641 782 618 c 0,155,156
 782 600 782 600 783 568.5 c 128,-1,157
 784 537 784 537 784 510 c 0,158,159
 784 477 784 477 766 477 c 0,160,161
 763 477 763 477 750 480 c 128,-1,162
 737 483 737 483 729 483 c 0,163,164
 724 483 724 483 662 485 c 128,-1,165
 600 487 600 487 524 487 c 0,166,167
 466 487 466 487 411.5 483 c 128,-1,168
 357 479 357 479 323.5 475 c 128,-1,169
 290 471 290 471 283 471 c 0,170,171
 260 471 260 471 256 473 c 1,172,173
 246 473 246 473 244 475 c 1,174,-1
 244 270 l 1,0,1
EndSplineSet
Validated: 33
Substitution2: "Single Substitution lookup 21 subtable" eogonek
Substitution2: "'aalt' Access All Alternates lookup 0 subtable" eogonek
Position2: "'cpsp' Capital Spacing lookup 0 subtable" dx=10 dy=0 dh=20 dv=0
EndChar

StartChar: Etilde
Encoding: 7868 7868 39
Width: 1075
Flags: MW
HStem: -2 279 6 266<266 536> 487 217<459 480 414 589> 1130 301<204 396> 1133 311<671 718 636 739> 1384 41G<323 413> 1565 102<330 358 330 370> 1604 98<729 745 668 754>
VStem: 129 115<270 475 270 475 270 537> 143 98<763 774 774 871>
LayerCount: 2
Fore
SplineSet
911 1612 m 2,0,1
 911 1579 911 1579 864 1579 c 0,2,3
 846 1579 846 1579 800.5 1591.5 c 128,-1,4
 755 1604 755 1604 729 1604 c 0,5,6
 673 1603 673 1603 604 1593 c 128,-1,7
 535 1583 535 1583 514 1581 c 0,8,9
 488 1579 488 1579 455 1574.5 c 128,-1,10
 422 1570 422 1570 393.5 1567.5 c 128,-1,11
 365 1565 365 1565 330 1565 c 0,12,13
 195 1565 195 1565 195 1612 c 2,14,-1
 195 1638 l 2,15,16
 195 1672 195 1672 199 1686 c 0,17,18
 202 1696 202 1696 213 1696 c 0,19,20
 220 1696 220 1696 235 1691.5 c 128,-1,21
 250 1687 250 1687 276.5 1679.5 c 128,-1,22
 303 1672 303 1672 330 1667 c 1,23,24
 369 1667 369 1667 477 1686 c 0,25,26
 568 1702 568 1702 721 1702 c 0,27,28
 800 1702 800 1702 852 1694 c 1,29,30
 879 1693 879 1693 893 1686 c 128,-1,31
 907 1679 907 1679 909 1673 c 128,-1,32
 911 1667 911 1667 910.5 1656 c 128,-1,33
 910 1645 910 1645 911 1642 c 1,34,-1
 911 1612 l 2,0,1
129 475 m 2,35,36
 129 532 129 532 136 621 c 128,-1,37
 143 710 143 710 143 793 c 128,-1,38
 143 876 143 876 138 953 c 128,-1,39
 133 1030 133 1030 133 1087 c 0,40,41
 133 1218 133 1218 139 1389 c 0,42,43
 139 1416 139 1416 148.5 1425 c 128,-1,44
 158 1434 158 1434 178 1434 c 0,45,46
 183 1434 183 1434 193.5 1433 c 128,-1,47
 204 1432 204 1432 209 1432 c 0,48,49
 217 1432 217 1432 266 1428.5 c 128,-1,50
 315 1425 315 1425 369 1425 c 0,51,52
 414 1425 414 1425 525.5 1434.5 c 128,-1,53
 637 1444 637 1444 676 1444 c 0,54,55
 724 1444 724 1444 806.5 1440 c 128,-1,56
 889 1436 889 1436 903 1436 c 0,57,58
 930 1436 930 1436 938 1423 c 128,-1,59
 946 1410 946 1410 946 1378 c 0,60,61
 946 1359 946 1359 950 1308 c 128,-1,62
 954 1257 954 1257 954 1223 c 0,63,64
 954 1182 954 1182 948 1147 c 1,65,66
 946 1116 946 1116 920 1116 c 0,67,68
 912 1116 912 1116 894.5 1121 c 128,-1,69
 877 1126 877 1126 874 1126 c 0,70,71
 838 1133 838 1133 696 1133 c 0,72,73
 670 1133 670 1133 618 1135 c 128,-1,74
 566 1137 566 1137 541 1137 c 0,75,76
 503 1137 503 1137 485 1135 c 0,77,78
 407 1130 407 1130 377 1130 c 0,79,80
 348 1130 348 1130 308.5 1131.5 c 128,-1,81
 269 1133 269 1133 268 1133 c 0,82,83
 264 1133 264 1133 261 1132.5 c 128,-1,84
 258 1132 258 1132 256 1131 c 128,-1,85
 254 1130 254 1130 252.5 1129.5 c 128,-1,86
 251 1129 251 1129 250 1126 c 128,-1,87
 249 1123 249 1123 248.5 1122 c 128,-1,88
 248 1121 248 1121 248 1116.5 c 128,-1,89
 248 1112 248 1112 248 1109.5 c 128,-1,90
 248 1107 248 1107 248 1101 c 128,-1,91
 248 1095 248 1095 248 1092 c 0,92,93
 248 1080 248 1080 245 1008 c 128,-1,94
 242 936 242 936 242 895 c 2,95,-1
 242 774 l 2,96,97
 242 732 242 732 244 709 c 1,98,99
 260 707 260 707 299 707 c 1,100,101
 334 705 334 705 442 705 c 0,102,103
 483 705 483 705 560.5 709 c 128,-1,104
 638 713 638 713 659 713 c 0,105,106
 687 713 687 713 719.5 710 c 128,-1,107
 752 707 752 707 760 707 c 0,108,109
 776 707 776 707 781 700.5 c 128,-1,110
 786 694 786 694 786 682 c 0,111,112
 786 678 786 678 784 659.5 c 128,-1,113
 782 641 782 641 782 618 c 0,114,115
 782 600 782 600 783 568.5 c 128,-1,116
 784 537 784 537 784 510 c 0,117,118
 784 477 784 477 766 477 c 0,119,120
 763 477 763 477 750 480 c 128,-1,121
 737 483 737 483 729 483 c 0,122,123
 724 483 724 483 662 485 c 128,-1,124
 600 487 600 487 524 487 c 0,125,126
 466 487 466 487 411.5 483 c 128,-1,127
 357 479 357 479 323.5 475 c 128,-1,128
 290 471 290 471 283 471 c 0,129,130
 260 471 260 471 256 473 c 1,131,132
 246 473 246 473 244 475 c 1,133,-1
 244 270 l 1,134,135
 258 270 258 270 266 272 c 1,136,137
 272 272 272 272 291.5 273 c 128,-1,138
 311 274 311 274 324 274 c 0,139,140
 342 274 342 274 427.5 275 c 128,-1,141
 513 276 513 276 565 276 c 0,142,143
 597 276 597 276 688.5 274 c 128,-1,144
 780 272 780 272 823 272 c 0,145,146
 844 272 844 272 873 273 c 128,-1,147
 902 274 902 274 909 274 c 0,148,149
 933 274 933 274 941.5 263 c 128,-1,150
 950 252 950 252 950 231 c 0,151,152
 950 225 950 225 949 210.5 c 128,-1,153
 948 196 948 196 948 190 c 0,154,155
 948 172 948 172 947 125.5 c 128,-1,156
 946 79 946 79 946 47 c 0,157,158
 946 33 946 33 942.5 24 c 128,-1,159
 939 15 939 15 935.5 10 c 128,-1,160
 932 5 932 5 921 3 c 128,-1,161
 910 1 910 1 903.5 1 c 128,-1,162
 897 1 897 1 878 1.5 c 128,-1,163
 859 2 859 2 848 2 c 0,164,165
 818 2 818 2 678 4 c 128,-1,166
 538 6 538 6 487 6 c 0,167,168
 429 6 429 6 299 2 c 128,-1,169
 169 -2 169 -2 164 -2 c 0,170,171
 162 -2 162 -2 158 -3 c 128,-1,172
 154 -4 154 -4 152 -4 c 0,173,174
 144 -4 144 -4 140 2 c 128,-1,175
 136 8 136 8 135.5 13 c 128,-1,176
 135 18 135 18 135 31 c 1,177,178
 133 54 133 54 133 106 c 0,179,180
 133 116 133 116 131 143.5 c 128,-1,181
 129 171 129 171 129 195 c 2,182,-1
 129 475 l 2,35,36
EndSplineSet
Validated: 1
Substitution2: "Single Substitution lookup 21 subtable" etilde
Substitution2: "'aalt' Access All Alternates lookup 0 subtable" etilde
Position2: "'cpsp' Capital Spacing lookup 0 subtable" dx=10 dy=0 dh=20 dv=0
EndChar

StartChar: F
Encoding: 70 70 40
Width: 974
Flags: MW
HStem: 700 127<485 837> 1278 143 1278 156<738 752 730 792> 1376 41G<165 184>
VStem: 127 356<302 329 293 390> 143 348<953 1121>
LayerCount: 2
Fore
SplineSet
485 700 m 1,0,1
 485 648 485 648 487 623 c 1,2,3
 487 600 487 600 488 555 c 128,-1,4
 489 510 489 510 489 494 c 0,5,6
 489 458 489 458 486 393.5 c 128,-1,7
 483 329 483 329 483 293 c 2,8,-1
 485 51 l 2,9,10
 485 24 485 24 473.5 14 c 128,-1,11
 462 4 462 4 438 4 c 0,12,13
 427 4 427 4 391 8 c 0,14,15
 373 10 373 10 315 10 c 0,16,17
 281 10 281 10 227 9 c 128,-1,18
 173 8 173 8 166 8 c 0,19,20
 156 8 156 8 150 10 c 128,-1,21
 144 12 144 12 140.5 13.5 c 128,-1,22
 137 15 137 15 135 20.5 c 128,-1,23
 133 26 133 26 133 27.5 c 128,-1,24
 133 29 133 29 133 38 c 128,-1,25
 133 47 133 47 133 49 c 2,26,-1
 131 158 l 2,27,28
 131 166 131 166 129 230.5 c 128,-1,29
 127 295 127 295 127 346 c 0,30,31
 127 390 127 390 133 453.5 c 128,-1,32
 139 517 139 517 139 561 c 128,-1,33
 139 605 139 605 138 677.5 c 128,-1,34
 137 750 137 750 137 795 c 0,35,36
 137 839 137 839 140 931.5 c 128,-1,37
 143 1024 143 1024 143 1073 c 0,38,39
 143 1188 143 1188 139 1356 c 0,40,41
 139 1392 139 1392 148 1404.5 c 128,-1,42
 157 1417 157 1417 176 1417 c 0,43,44
 183 1417 183 1417 202 1415 c 128,-1,45
 221 1413 221 1413 233 1413 c 0,46,47
 258 1413 258 1413 379 1417 c 128,-1,48
 500 1421 500 1421 520 1421 c 0,49,50
 542 1421 542 1421 636 1427.5 c 128,-1,51
 730 1434 730 1434 752 1434 c 2,52,-1
 924 1432 l 2,53,54
 971 1432 971 1432 971 1401 c 2,55,-1
 971 1298 l 2,56,57
 971 1294 971 1294 970.5 1291 c 128,-1,58
 970 1288 970 1288 969.5 1285.5 c 128,-1,59
 969 1283 969 1283 967.5 1281 c 128,-1,60
 966 1279 966 1279 965 1278 c 128,-1,61
 964 1277 964 1277 961.5 1276 c 128,-1,62
 959 1275 959 1275 958 1274.5 c 128,-1,63
 957 1274 957 1274 953 1274 c 128,-1,64
 949 1274 949 1274 947.5 1274 c 128,-1,65
 946 1274 946 1274 941 1274 c 128,-1,66
 936 1274 936 1274 934 1274 c 0,67,68
 927 1274 927 1274 862.5 1276 c 128,-1,69
 798 1278 798 1278 756 1278 c 0,70,71
 677 1278 677 1278 604 1270 c 1,72,-1
 504 1264 l 1,73,-1
 498 1227 l 1,74,75
 494 1181 494 1181 494 1155 c 0,76,77
 494 1135 494 1135 493 1074 c 128,-1,78
 492 1013 492 1013 492 973 c 0,79,80
 492 952 492 952 490.5 917 c 128,-1,81
 489 882 489 882 489 868 c 2,82,-1
 489 819 l 1,83,84
 533 819 533 819 553 821 c 1,85,86
 572 821 572 821 606 822 c 128,-1,87
 640 823 640 823 651 823 c 0,88,89
 674 823 674 823 732 825 c 128,-1,90
 790 827 790 827 813 827 c 0,91,92
 846 827 846 827 857 819.5 c 128,-1,93
 868 812 868 812 868 793 c 0,94,95
 868 782 868 782 867 759 c 128,-1,96
 866 736 866 736 866 725 c 0,97,98
 866 708 866 708 857 702 c 128,-1,99
 848 696 848 696 819 696 c 0,100,101
 803 696 803 696 752 698 c 128,-1,102
 701 700 701 700 676 700 c 2,103,-1
 485 700 l 1,0,1
EndSplineSet
Validated: 1
Substitution2: "Single Substitution lookup 20 subtable" f
Substitution2: "'aalt' Access All Alternates lookup 0 subtable" f
Position2: "'cpsp' Capital Spacing lookup 0 subtable" dx=10 dy=0 dh=20 dv=0
EndChar

StartChar: G
Encoding: 71 71 41
Width: 1212
Flags: MW
HStem: -29 43G<583 734> -29 418<583 645 544 734> 1432 41G<563 790>
VStem: 84 399<643 760 643 1048>
LayerCount: 2
Fore
SplineSet
700 602 m 1,0,1
 648 610 648 610 629 612 c 0,2,3
 590 616 590 616 590 641 c 0,4,5
 590 655 590 655 606 721 c 1,6,7
 613 744 613 744 620.5 754.5 c 128,-1,8
 628 765 628 765 636.5 765 c 128,-1,9
 645 765 645 765 657 764 c 0,10,11
 662 763 662 763 688 759.5 c 128,-1,12
 714 756 714 756 751.5 751.5 c 128,-1,13
 789 747 789 747 825 743 c 0,14,15
 852 740 852 740 954 725 c 128,-1,16
 1056 710 1056 710 1092 709 c 1,17,18
 1127 707 1127 707 1139 672 c 1,19,20
 1143 651 1143 651 1141 637 c 1,21,22
 1134 523 1134 523 1112 427 c 128,-1,23
 1090 331 1090 331 1059 263.5 c 128,-1,24
 1028 196 1028 196 987 143.5 c 128,-1,25
 946 91 946 91 904 59 c 128,-1,26
 862 27 862 27 815 6.5 c 128,-1,27
 768 -14 768 -14 727.5 -21.5 c 128,-1,28
 687 -29 687 -29 647 -29 c 0,29,30
 615 -29 615 -29 575 -22 c 128,-1,31
 535 -15 535 -15 479.5 6.5 c 128,-1,32
 424 28 424 28 371 60.5 c 128,-1,33
 318 93 318 93 265 150 c 128,-1,34
 212 207 212 207 172.5 279.5 c 128,-1,35
 133 352 133 352 108.5 458.5 c 128,-1,36
 84 565 84 565 84 692 c 0,37,38
 84 838 84 838 107.5 958.5 c 128,-1,39
 131 1079 131 1079 167.5 1158 c 128,-1,40
 204 1237 204 1237 255.5 1297.5 c 128,-1,41
 307 1358 307 1358 357 1390 c 128,-1,42
 407 1422 407 1422 463.5 1442 c 128,-1,43
 520 1462 520 1462 559.5 1467.5 c 128,-1,44
 599 1473 599 1473 637 1473 c 0,45,46
 720 1473 720 1473 793 1446.5 c 128,-1,47
 866 1420 866 1420 911 1386 c 128,-1,48
 956 1352 956 1352 992.5 1308 c 128,-1,49
 1029 1264 1029 1264 1043 1239.5 c 128,-1,50
 1057 1215 1057 1215 1065.70623031 1196.65532581 c 0,51,52
 1067 1195 1067 1195 1067 1194 c 0,53,54
 1072 1182 1072 1182 1083 1151.5 c 128,-1,55
 1094 1121 1094 1121 1098 1112 c 0,56,57
 1100 1108 1100 1108 1100 1102 c 0,58,59
 1100 1098 1100 1098 1099 1096 c 128,-1,60
 1098 1094 1098 1094 1094.5 1091.5 c 128,-1,61
 1091 1089 1091 1089 1088 1087.5 c 128,-1,62
 1085 1086 1085 1086 1077 1082 c 128,-1,63
 1069 1078 1069 1078 1063 1075 c 0,64,65
 1053 1070 1053 1070 996 1039.5 c 128,-1,66
 939 1009 939 1009 915 999 c 1,67,68
 906 994 906 994 803 926 c 1,69,70
 790 915 790 915 764 899 c 0,71,72
 755 893 755 893 748 893 c 1,73,74
 736 889 736 889 731 889 c 0,75,76
 724 889 724 889 719 895 c 128,-1,77
 714 901 714 901 709 911 c 128,-1,78
 704 921 704 921 700 926 c 0,79,80
 698 928 698 928 688 943.5 c 128,-1,81
 678 959 678 959 670.5 968 c 128,-1,82
 663 977 663 977 647.5 986 c 128,-1,83
 632 995 632 995 614 995 c 0,84,85
 572 995 572 995 541 945 c 128,-1,86
 510 895 510 895 496.5 830 c 128,-1,87
 483 765 483 765 483 700 c 0,88,89
 483 694 483 694 482.958128408 681.884977576 c 0,90,91
 483 641 483 641 483.5 618.5 c 128,-1,92
 484 596 484 596 487 555.5 c 128,-1,93
 490 515 490 515 498.5 490.5 c 128,-1,94
 507 466 507 466 520.5 440 c 128,-1,95
 534 414 534 414 557.5 401.5 c 128,-1,96
 581 389 581 389 612 389 c 0,97,98
 695 389 695 389 727 492 c 0,99,100
 741 535 741 535 741 594 c 1,101,-1
 700 602 l 1,0,1
EndSplineSet
Validated: 524289
Substitution2: "Single Substitution lookup 20 subtable" g
Substitution2: "'aalt' Access All Alternates lookup 0 subtable" g
Position2: "'cpsp' Capital Spacing lookup 0 subtable" dx=10 dy=0 dh=20 dv=0
EndChar

StartChar: Gbreve
Encoding: 286 286 42
Width: 1212
Flags: MW
HStem: -29 418<583 645 544 734> 1432 41G<563 790> 1511 111<625 638 621 673>
VStem: 84 399<643 760 643 1048> 334 119<1698 1715>
LayerCount: 2
Fore
SplineSet
944 1704 m 0,0,1
 944 1620 944 1620 901 1587 c 0,2,3
 871 1564 871 1564 821 1538 c 0,4,5
 768 1511 768 1511 625 1511 c 1,6,7
 463 1520 463 1520 420 1542 c 0,8,9
 380 1563 380 1563 365 1597 c 0,10,11
 337 1665 337 1665 334 1712 c 0,12,13
 334 1716 334 1716 342 1717 c 128,-1,14
 350 1718 350 1718 393 1718 c 128,-1,15
 436 1718 436 1718 444.5 1715 c 128,-1,16
 453 1712 453 1712 453 1698 c 1,17,18
 462 1659 462 1659 485 1642 c 1,19,20
 507 1628 507 1628 621 1622 c 1,21,22
 674 1622 674 1622 745 1640 c 1,23,24
 818 1661 818 1661 821 1702 c 1,25,26
 828 1713 828 1713 877 1716 c 1,27,28
 944 1713 944 1713 944 1704 c 0,0,1
700 602 m 1,29,30
 648 610 648 610 629 612 c 0,31,32
 590 616 590 616 590 641 c 0,33,34
 590 655 590 655 606 721 c 1,35,36
 613 744 613 744 620.5 754.5 c 128,-1,37
 628 765 628 765 636.5 765 c 128,-1,38
 645 765 645 765 657 764 c 0,39,40
 662 763 662 763 688 759.5 c 128,-1,41
 714 756 714 756 751.5 751.5 c 128,-1,42
 789 747 789 747 825 743 c 0,43,44
 852 740 852 740 954 725 c 128,-1,45
 1056 710 1056 710 1092 709 c 1,46,47
 1127 707 1127 707 1139 672 c 1,48,49
 1143 651 1143 651 1141 637 c 1,50,51
 1134 523 1134 523 1112 427 c 128,-1,52
 1090 331 1090 331 1059 263.5 c 128,-1,53
 1028 196 1028 196 987 143.5 c 128,-1,54
 946 91 946 91 904 59 c 128,-1,55
 862 27 862 27 815 6.5 c 128,-1,56
 768 -14 768 -14 727.5 -21.5 c 128,-1,57
 687 -29 687 -29 647 -29 c 0,58,59
 615 -29 615 -29 575 -22 c 128,-1,60
 535 -15 535 -15 479.5 6.5 c 128,-1,61
 424 28 424 28 371 60.5 c 128,-1,62
 318 93 318 93 265 150 c 128,-1,63
 212 207 212 207 172.5 279.5 c 128,-1,64
 133 352 133 352 108.5 458.5 c 128,-1,65
 84 565 84 565 84 692 c 0,66,67
 84 838 84 838 107.5 958.5 c 128,-1,68
 131 1079 131 1079 167.5 1158 c 128,-1,69
 204 1237 204 1237 255.5 1297.5 c 128,-1,70
 307 1358 307 1358 357 1390 c 128,-1,71
 407 1422 407 1422 463.5 1442 c 128,-1,72
 520 1462 520 1462 559.5 1467.5 c 128,-1,73
 599 1473 599 1473 637 1473 c 0,74,75
 720 1473 720 1473 793 1446.5 c 128,-1,76
 866 1420 866 1420 911 1386 c 128,-1,77
 956 1352 956 1352 992.5 1308 c 128,-1,78
 1029 1264 1029 1264 1043 1239.5 c 128,-1,79
 1057 1215 1057 1215 1065.70623031 1196.65532581 c 0,80,81
 1067 1195 1067 1195 1067 1194 c 0,82,83
 1072 1182 1072 1182 1083 1151.5 c 128,-1,84
 1094 1121 1094 1121 1098 1112 c 0,85,86
 1100 1108 1100 1108 1100 1102 c 0,87,88
 1100 1098 1100 1098 1099 1096 c 128,-1,89
 1098 1094 1098 1094 1094.5 1091.5 c 128,-1,90
 1091 1089 1091 1089 1088 1087.5 c 128,-1,91
 1085 1086 1085 1086 1077 1082 c 128,-1,92
 1069 1078 1069 1078 1063 1075 c 0,93,94
 1053 1070 1053 1070 996 1039.5 c 128,-1,95
 939 1009 939 1009 915 999 c 1,96,97
 906 994 906 994 803 926 c 1,98,99
 790 915 790 915 764 899 c 0,100,101
 755 893 755 893 748 893 c 1,102,103
 736 889 736 889 731 889 c 0,104,105
 724 889 724 889 719 895 c 128,-1,106
 714 901 714 901 709 911 c 128,-1,107
 704 921 704 921 700 926 c 0,108,109
 698 928 698 928 688 943.5 c 128,-1,110
 678 959 678 959 670.5 968 c 128,-1,111
 663 977 663 977 647.5 986 c 128,-1,112
 632 995 632 995 614 995 c 0,113,114
 572 995 572 995 541 945 c 128,-1,115
 510 895 510 895 496.5 830 c 128,-1,116
 483 765 483 765 483 700 c 0,117,118
 483 694 483 694 482.958128408 681.884977576 c 0,119,120
 483 641 483 641 483.5 618.5 c 128,-1,121
 484 596 484 596 487 555.5 c 128,-1,122
 490 515 490 515 498.5 490.5 c 128,-1,123
 507 466 507 466 520.5 440 c 128,-1,124
 534 414 534 414 557.5 401.5 c 128,-1,125
 581 389 581 389 612 389 c 0,126,127
 695 389 695 389 727 492 c 0,128,129
 741 535 741 535 741 594 c 1,130,-1
 700 602 l 1,29,30
EndSplineSet
Validated: 524289
Substitution2: "Single Substitution lookup 20 subtable" gbreve
Substitution2: "'aalt' Access All Alternates lookup 0 subtable" gbreve
Position2: "'cpsp' Capital Spacing lookup 0 subtable" dx=10 dy=0 dh=20 dv=0
EndChar

StartChar: Gcircumflex
Encoding: 284 284 43
Width: 1212
Flags: MW
HStem: -29 43G<583 734> -29 418<583 645 544 734> 1432 41G<563 790>
VStem: 84 399<643 760 643 1048>
LayerCount: 2
Fore
SplineSet
393 1593 m 2,0,1
 396 1595 396 1595 408 1600 c 128,-1,2
 420 1605 420 1605 428 1609 c 128,-1,3
 436 1613 436 1613 453.5 1625 c 128,-1,4
 471 1637 471 1637 492 1653 c 1,5,6
 573 1699 573 1699 598 1706 c 1,7,8
 617 1714 617 1714 635 1714 c 1,9,10
 643 1716 643 1716 657 1716 c 0,11,12
 668 1716 668 1716 678 1713.5 c 128,-1,13
 688 1711 688 1711 693.5 1708.5 c 128,-1,14
 699 1706 699 1706 713 1698 c 128,-1,15
 727 1690 727 1690 735 1686 c 1,16,17
 760 1668 760 1668 872 1597 c 0,18,19
 873 1596 873 1596 881 1591.5 c 128,-1,20
 889 1587 889 1587 894 1583.5 c 128,-1,21
 899 1580 899 1580 907.5 1574 c 128,-1,22
 916 1568 916 1568 922 1563 c 128,-1,23
 928 1558 928 1558 933.5 1552 c 128,-1,24
 939 1546 939 1546 941 1540 c 128,-1,25
 943 1534 943 1534 942 1528 c 0,26,27
 934 1497 934 1497 909 1497 c 0,28,29
 894 1497 894 1497 854 1511 c 1,30,-1
 799 1526 l 1,31,32
 770 1537 770 1537 727 1563 c 1,33,-1
 662 1593 l 1,34,-1
 567 1550 l 1,35,36
 523 1527 523 1527 451 1507 c 1,37,38
 410 1501 410 1501 373 1501 c 0,39,40
 350 1501 350 1501 337 1511 c 128,-1,41
 324 1521 324 1521 324 1534 c 0,42,43
 324 1551 324 1551 338 1559 c 2,44,-1
 393 1593 l 2,0,1
700 602 m 1,45,46
 648 610 648 610 629 612 c 0,47,48
 590 616 590 616 590 641 c 0,49,50
 590 655 590 655 606 721 c 1,51,52
 613 744 613 744 620.5 754.5 c 128,-1,53
 628 765 628 765 636.5 765 c 128,-1,54
 645 765 645 765 657 764 c 0,55,56
 662 763 662 763 688 759.5 c 128,-1,57
 714 756 714 756 751.5 751.5 c 128,-1,58
 789 747 789 747 825 743 c 0,59,60
 852 740 852 740 954 725 c 128,-1,61
 1056 710 1056 710 1092 709 c 1,62,63
 1127 707 1127 707 1139 672 c 1,64,65
 1143 651 1143 651 1141 637 c 1,66,67
 1134 523 1134 523 1112 427 c 128,-1,68
 1090 331 1090 331 1059 263.5 c 128,-1,69
 1028 196 1028 196 987 143.5 c 128,-1,70
 946 91 946 91 904 59 c 128,-1,71
 862 27 862 27 815 6.5 c 128,-1,72
 768 -14 768 -14 727.5 -21.5 c 128,-1,73
 687 -29 687 -29 647 -29 c 0,74,75
 615 -29 615 -29 575 -22 c 128,-1,76
 535 -15 535 -15 479.5 6.5 c 128,-1,77
 424 28 424 28 371 60.5 c 128,-1,78
 318 93 318 93 265 150 c 128,-1,79
 212 207 212 207 172.5 279.5 c 128,-1,80
 133 352 133 352 108.5 458.5 c 128,-1,81
 84 565 84 565 84 692 c 0,82,83
 84 838 84 838 107.5 958.5 c 128,-1,84
 131 1079 131 1079 167.5 1158 c 128,-1,85
 204 1237 204 1237 255.5 1297.5 c 128,-1,86
 307 1358 307 1358 357 1390 c 128,-1,87
 407 1422 407 1422 463.5 1442 c 128,-1,88
 520 1462 520 1462 559.5 1467.5 c 128,-1,89
 599 1473 599 1473 637 1473 c 0,90,91
 720 1473 720 1473 793 1446.5 c 128,-1,92
 866 1420 866 1420 911 1386 c 128,-1,93
 956 1352 956 1352 992.5 1308 c 128,-1,94
 1029 1264 1029 1264 1043 1239.5 c 128,-1,95
 1057 1215 1057 1215 1065.70623031 1196.65532581 c 0,96,97
 1067 1195 1067 1195 1067 1194 c 0,98,99
 1072 1182 1072 1182 1083 1151.5 c 128,-1,100
 1094 1121 1094 1121 1098 1112 c 0,101,102
 1100 1108 1100 1108 1100 1102 c 0,103,104
 1100 1098 1100 1098 1099 1096 c 128,-1,105
 1098 1094 1098 1094 1094.5 1091.5 c 128,-1,106
 1091 1089 1091 1089 1088 1087.5 c 128,-1,107
 1085 1086 1085 1086 1077 1082 c 128,-1,108
 1069 1078 1069 1078 1063 1075 c 0,109,110
 1053 1070 1053 1070 996 1039.5 c 128,-1,111
 939 1009 939 1009 915 999 c 1,112,113
 906 994 906 994 803 926 c 1,114,115
 790 915 790 915 764 899 c 0,116,117
 755 893 755 893 748 893 c 1,118,119
 736 889 736 889 731 889 c 0,120,121
 724 889 724 889 719 895 c 128,-1,122
 714 901 714 901 709 911 c 128,-1,123
 704 921 704 921 700 926 c 0,124,125
 698 928 698 928 688 943.5 c 128,-1,126
 678 959 678 959 670.5 968 c 128,-1,127
 663 977 663 977 647.5 986 c 128,-1,128
 632 995 632 995 614 995 c 0,129,130
 572 995 572 995 541 945 c 128,-1,131
 510 895 510 895 496.5 830 c 128,-1,132
 483 765 483 765 483 700 c 0,133,134
 483 694 483 694 482.958128408 681.884977576 c 0,135,136
 483 641 483 641 483.5 618.5 c 128,-1,137
 484 596 484 596 487 555.5 c 128,-1,138
 490 515 490 515 498.5 490.5 c 128,-1,139
 507 466 507 466 520.5 440 c 128,-1,140
 534 414 534 414 557.5 401.5 c 128,-1,141
 581 389 581 389 612 389 c 0,142,143
 695 389 695 389 727 492 c 0,144,145
 741 535 741 535 741 594 c 1,146,-1
 700 602 l 1,45,46
EndSplineSet
Validated: 524289
Substitution2: "Single Substitution lookup 20 subtable" gcircumflex
Substitution2: "'aalt' Access All Alternates lookup 0 subtable" gcircumflex
Position2: "'cpsp' Capital Spacing lookup 0 subtable" dx=10 dy=0 dh=20 dv=0
EndChar

StartChar: Gcommaaccent
Encoding: 290 290 44
Width: 1212
Flags: MW
HStem: -432 348<481 717> -29 43G<583 734> -29 418<583 645 544 734> 1432 41G<563 790>
VStem: 84 399<643 760 643 1048>
LayerCount: 2
Fore
SplineSet
700 602 m 1,0,1
 648 610 648 610 629 612 c 0,2,3
 590 616 590 616 590 641 c 0,4,5
 590 655 590 655 606 721 c 1,6,7
 613 744 613 744 620.5 754.5 c 128,-1,8
 628 765 628 765 636.5 765 c 128,-1,9
 645 765 645 765 657 764 c 0,10,11
 662 763 662 763 688 759.5 c 128,-1,12
 714 756 714 756 751.5 751.5 c 128,-1,13
 789 747 789 747 825 743 c 0,14,15
 852 740 852 740 954 725 c 128,-1,16
 1056 710 1056 710 1092 709 c 1,17,18
 1127 707 1127 707 1139 672 c 1,19,20
 1143 651 1143 651 1141 637 c 1,21,22
 1134 523 1134 523 1112 427 c 128,-1,23
 1090 331 1090 331 1059 263.5 c 128,-1,24
 1028 196 1028 196 987 143.5 c 128,-1,25
 946 91 946 91 904 59 c 128,-1,26
 862 27 862 27 815 6.5 c 128,-1,27
 768 -14 768 -14 727.5 -21.5 c 128,-1,28
 687 -29 687 -29 647 -29 c 0,29,30
 615 -29 615 -29 575 -22 c 128,-1,31
 535 -15 535 -15 479.5 6.5 c 128,-1,32
 424 28 424 28 371 60.5 c 128,-1,33
 318 93 318 93 265 150 c 128,-1,34
 212 207 212 207 172.5 279.5 c 128,-1,35
 133 352 133 352 108.5 458.5 c 128,-1,36
 84 565 84 565 84 692 c 0,37,38
 84 838 84 838 107.5 958.5 c 128,-1,39
 131 1079 131 1079 167.5 1158 c 128,-1,40
 204 1237 204 1237 255.5 1297.5 c 128,-1,41
 307 1358 307 1358 357 1390 c 128,-1,42
 407 1422 407 1422 463.5 1442 c 128,-1,43
 520 1462 520 1462 559.5 1467.5 c 128,-1,44
 599 1473 599 1473 637 1473 c 0,45,46
 720 1473 720 1473 793 1446.5 c 128,-1,47
 866 1420 866 1420 911 1386 c 128,-1,48
 956 1352 956 1352 992.5 1308 c 128,-1,49
 1029 1264 1029 1264 1043 1239.5 c 128,-1,50
 1057 1215 1057 1215 1065.70623031 1196.65532581 c 0,51,52
 1067 1195 1067 1195 1067 1194 c 0,53,54
 1072 1182 1072 1182 1083 1151.5 c 128,-1,55
 1094 1121 1094 1121 1098 1112 c 0,56,57
 1100 1108 1100 1108 1100 1102 c 0,58,59
 1100 1098 1100 1098 1099 1096 c 128,-1,60
 1098 1094 1098 1094 1094.5 1091.5 c 128,-1,61
 1091 1089 1091 1089 1088 1087.5 c 128,-1,62
 1085 1086 1085 1086 1077 1082 c 128,-1,63
 1069 1078 1069 1078 1063 1075 c 0,64,65
 1053 1070 1053 1070 996 1039.5 c 128,-1,66
 939 1009 939 1009 915 999 c 1,67,68
 906 994 906 994 803 926 c 1,69,70
 790 915 790 915 764 899 c 0,71,72
 755 893 755 893 748 893 c 1,73,74
 736 889 736 889 731 889 c 0,75,76
 724 889 724 889 719 895 c 128,-1,77
 714 901 714 901 709 911 c 128,-1,78
 704 921 704 921 700 926 c 0,79,80
 698 928 698 928 688 943.5 c 128,-1,81
 678 959 678 959 670.5 968 c 128,-1,82
 663 977 663 977 647.5 986 c 128,-1,83
 632 995 632 995 614 995 c 0,84,85
 572 995 572 995 541 945 c 128,-1,86
 510 895 510 895 496.5 830 c 128,-1,87
 483 765 483 765 483 700 c 0,88,89
 483 694 483 694 482.958128408 681.884977576 c 0,90,91
 483 641 483 641 483.5 618.5 c 128,-1,92
 484 596 484 596 487 555.5 c 128,-1,93
 490 515 490 515 498.5 490.5 c 128,-1,94
 507 466 507 466 520.5 440 c 128,-1,95
 534 414 534 414 557.5 401.5 c 128,-1,96
 581 389 581 389 612 389 c 0,97,98
 695 389 695 389 727 492 c 0,99,100
 741 535 741 535 741 594 c 1,101,-1
 700 602 l 1,0,1
717 -84 m 2,102,103
 736 -84 736 -84 727 -100 c 1,104,105
 724 -123 724 -123 717 -135 c 1,106,107
 716 -143 716 -143 708 -164 c 128,-1,108
 700 -185 700 -185 696 -197 c 2,109,-1
 672 -274 l 2,110,111
 656 -327 656 -327 643 -360 c 1,112,113
 633 -398 633 -398 633 -406 c 1,114,115
 627 -424 627 -424 616 -432 c 1,116,117
 610 -434 610 -434 555 -434 c 0,118,119
 499 -434 499 -434 489 -432 c 0,120,121
 484 -432 484 -432 481.5 -431 c 128,-1,122
 479 -430 479 -430 478 -427.5 c 128,-1,123
 477 -425 477 -425 476.5 -423.5 c 128,-1,124
 476 -422 476 -422 476.5 -418 c 128,-1,125
 477 -414 477 -414 477 -412 c 2,126,-1
 541 -211 l 1,127,-1
 557 -145 l 1,128,-1
 571 -104 l 1,129,130
 574 -84 574 -84 602 -84 c 2,131,-1
 717 -84 l 2,102,103
EndSplineSet
Validated: 524289
Substitution2: "Single Substitution lookup 20 subtable" gcommaaccent
Substitution2: "'aalt' Access All Alternates lookup 0 subtable" gcommaaccent
Position2: "'cpsp' Capital Spacing lookup 0 subtable" dx=10 dy=0 dh=20 dv=0
EndChar

